<svg width="196" height="78" viewBox="0 0 196 78" fill="none" xmlns="http://www.w3.org/2000/svg">
<g clip-path="url(#clip0_1034_1838)" filter="url(#filter0_d_1034_1838)">
<path fill-rule="evenodd" clip-rule="evenodd" d="M28.1809 23.1206C28.1861 23.1711 28.1966 23.1573 28.1446 23.1573V23.1941C28.1497 23.2445 28.1601 23.2308 28.1082 23.2308V23.2675C28.1133 23.3179 28.1238 23.3042 28.0718 23.3042V23.3409C28.0794 23.4632 28.0846 23.3869 28.0354 23.4142V23.4509C28.0405 23.5013 28.0511 23.4877 27.9993 23.4877V23.5244C28.0066 23.6467 28.012 23.5704 27.9629 23.5977V23.6345C27.9703 23.7568 27.9756 23.6804 27.9265 23.7078V23.7811C27.9313 23.8314 27.942 23.8178 27.8901 23.8178V23.9279C27.895 23.9782 27.9056 23.9646 27.8538 23.9646V24.1113C27.8586 24.1616 27.8692 24.148 27.8174 24.148C27.8174 24.923 27.7657 25.2566 27.9996 26.0193C28.4317 27.4276 29.4221 28.931 30.1602 30.1483C31.2025 31.8672 32.3654 33.5258 33.0752 35.6434C34.2193 39.0571 33.2344 42.7157 31.282 45.5003C30.7683 46.2332 29.9954 47.1932 29.3474 47.7478C29.3474 48.3227 29.5083 49.9427 29.5633 50.6653L29.6748 52.1297C29.6874 52.627 29.7596 53.095 29.7841 53.5963L30.1308 57.1705C30.1818 57.5354 30.3456 59.1691 30.4013 59.2754L31.1018 57.4908C31.6101 56.3186 32.2308 55.3108 32.8758 54.2595C33.9709 52.474 35.3094 50.8527 36.6069 49.2233C36.8041 48.9756 36.9909 48.7805 37.194 48.5332C37.5749 48.0696 37.9499 47.6502 38.3388 47.157C40.683 44.185 42.6838 40.0726 41.1111 36.0024C40.8606 35.3539 40.5737 34.8665 40.239 34.3537C39.8008 33.6823 39.4632 33.5071 39.1264 32.9457C38.5852 32.0432 37.5945 29.8272 39.4512 29.7279C40.7645 29.6577 42.5138 30.1466 43.6907 30.4663C47.0195 31.3706 51.25 33.2465 54.1214 35.051C54.6639 35.3918 55.1244 35.7035 55.6366 36.0537C56.1581 36.4103 56.586 36.7843 57.0524 37.1556C57.8874 37.8206 58.8011 38.9314 59.3454 39.8667C60.2757 41.4653 60.3735 43.6239 60.4578 43.7805L60.9182 42.8394C61.0061 42.6636 61.0657 42.5031 61.1482 42.3379C61.2341 42.1663 61.3012 42.037 61.3818 41.8401C61.5498 41.4294 61.8884 40.7943 62.0621 40.3629C62.1218 40.2148 62.2079 40.0146 62.2869 39.8563C62.4946 39.4409 63.9564 36.0015 63.9701 35.7736C63.9699 34.9056 63.9005 33.8726 63.6814 33.0715C63.4838 32.349 63.1089 31.6936 62.5996 31.1917C60.4425 29.0664 56.7716 28.7445 54.0274 27.9234C53.3592 27.7235 50.0834 26.6434 49.7361 26.3399C49.0381 26.1331 46.3348 24.6682 45.7232 24.3096C45.535 24.1993 42.1115 22.1273 42.0243 22.0246C41.8029 21.9409 41.4088 21.6894 41.1854 21.5549C40.9286 21.4003 40.6428 21.2591 40.3759 21.1229C37.3281 19.5677 33.7526 18.5801 30.6723 20.6068C29.8144 21.1713 28.5695 22.1761 28.1807 23.121L28.1809 23.1206Z" fill="#89163B"/>
<path fill-rule="evenodd" clip-rule="evenodd" d="M30.4005 59.275C30.4005 60.0992 31.1495 63.5507 31.3691 64.318C31.7488 65.6443 32.3453 67.3557 33.3351 68.3488C33.6262 68.6408 34.1191 69.0317 34.5537 69.1361C35.0537 69.2562 35.8739 69.2195 36.4853 69.2195C36.2497 68.6636 35.9185 68.4464 35.929 67.3115C35.9435 65.7374 37.2894 63.3927 38.027 62.0605C38.2907 61.5842 41.2022 56.7194 41.7501 56.0962C41.8071 56.0313 41.7551 56.0789 41.8218 56.0257C42.5031 55.0353 43.1677 54.0535 43.863 53.0596C44.557 52.0676 45.2517 51.1247 45.9504 50.107C46.5622 49.2156 47.9861 47.2692 48.4422 46.3141C48.8825 45.3918 48.9669 44.8581 49.6319 43.6647C49.9538 43.0872 50.3045 42.5872 50.7355 42.2465C51.3752 41.7409 51.9769 41.998 52.5527 42.3917C53.4613 43.0127 54.2087 44.0252 54.688 45.3361C55.5741 47.7593 55.3944 50.6066 54.9289 53.1514C54.8644 53.5043 54.7634 53.8721 54.7111 54.2199C54.9308 54.0671 57.3577 49.8263 57.7192 49.1469L60.1177 44.4893C60.2402 44.2421 60.3615 44.0343 60.4569 43.7801C60.3726 43.6235 60.2747 41.4649 59.3445 39.8662C58.8002 38.931 57.8866 37.8203 57.0514 37.1552C56.5851 36.7838 56.1571 36.4099 55.6356 36.0533C55.1235 35.703 54.663 35.3914 54.1205 35.0506C51.2491 33.2461 47.0187 31.3702 43.6897 30.4658C42.5128 30.1462 40.7635 29.6573 39.4502 29.7275C37.5936 29.8268 38.5842 32.0429 39.1255 32.9453C39.4623 33.5067 39.7999 33.6818 40.238 34.3532C40.5727 34.8661 40.8596 35.3535 41.1102 36.002C42.6829 40.0722 40.682 44.1845 38.3379 47.1566C37.9489 47.6497 37.574 48.0692 37.193 48.5328C36.99 48.78 36.8032 48.9753 36.606 49.2229C35.3085 50.8523 33.97 52.4735 32.8748 54.2591C32.23 55.3104 31.6092 56.3183 31.1008 57.4904L30.4004 59.275L30.4005 59.275Z" fill="#EE6B23"/>
<path fill-rule="evenodd" clip-rule="evenodd" d="M16.6361 9.88138L15.8108 10.598C15.7746 10.6333 15.7324 10.6651 15.692 10.6991C14.9068 11.3624 13.8704 12.8581 13.3786 13.6462C11.3824 16.8455 9.93394 20.541 10.2637 24.551C10.4007 26.217 10.9089 27.8249 11.8074 29.1561C11.9354 29.3457 12.0911 29.5129 12.1937 29.6855C12.9228 30.0457 19.4 30.7116 20.5309 30.8798C21.3784 31.0058 22.0829 31.1178 22.8853 31.328C23.0127 31.3613 23.0769 31.3982 23.2013 31.409L21.8892 30.4261C21.6706 30.265 21.4693 30.0999 21.2616 29.9228L19.495 28.2952C19.1326 27.8875 18.8062 27.5012 18.5022 27.0223C17.1898 24.9539 17.4638 21.882 18.4766 19.7057C18.9514 18.6856 19.748 17.7005 20.3907 17.091C21.9923 15.5717 24.0365 14.5601 26.2195 13.8752C27.0369 13.6189 29.0703 13.0995 29.8859 13.0362C30.5734 12.9758 31.3044 12.8374 32.0165 12.7634C34.4601 12.5094 36.1481 12.5244 38.5829 13.139C40.7429 13.6842 42.7185 14.504 44.6744 15.4962C44.8131 15.5666 44.9396 15.6328 45.087 15.7037C45.2083 15.762 45.4029 15.8347 45.4857 15.926C46.283 16.2444 51.0782 19.0805 52.3476 19.7525C52.5841 19.8777 53.1626 20.1572 53.3308 20.2974C53.6221 20.4055 53.9699 20.6126 54.2674 20.7511C54.5993 20.9057 54.903 21.0452 55.2473 21.1926C55.8263 21.4405 56.7051 21.7932 57.368 21.9145C57.34 21.8731 56.2284 21.036 56.0317 20.8386C55.9205 20.7269 55.8857 20.6942 55.7635 20.5958C55.3916 20.2965 54.6933 19.4046 54.3792 19.0221C53.8734 18.4062 53.0438 16.9524 52.7034 16.2756L51.6014 13.9036C51.489 13.6603 51.4021 13.455 51.2982 13.2194L50.9716 12.5628L50.1177 11.6969C47.9278 9.66224 45.6526 8.37888 42.7262 7.30895C40.2164 6.39118 37.0683 5.79306 34.2901 5.63131C33.7565 5.60023 33.2258 5.58762 32.6907 5.56608C32.4491 5.55639 31.2008 5.51732 31.0659 5.60839C30.6584 5.53431 29.2944 5.67307 28.8193 5.7193C25.5405 6.03889 22.5034 6.75184 19.5453 8.13236C18.8393 8.46187 17.9476 8.96768 17.3151 9.40234L16.6362 9.88146L16.6361 9.88138Z" fill="url(#paint0_linear_1034_1838)"/>
<path fill-rule="evenodd" clip-rule="evenodd" d="M12.1939 29.6853C12.0913 29.5128 11.9356 29.3455 11.8076 29.1559C10.9092 27.8247 10.4009 26.2169 10.2639 24.5508C9.93407 20.5408 11.3825 16.8453 13.3788 13.646C13.8706 12.8579 14.907 11.3622 15.6922 10.6989C15.7326 10.6649 15.7747 10.6331 15.811 10.5978L16.6363 9.8812L17.3152 9.40208C17.9476 8.96742 18.8394 8.46161 19.5454 8.13209C22.5034 6.75158 25.5405 6.03863 28.8194 5.71904C29.2943 5.67281 30.6584 5.53405 31.066 5.60812C31.2008 5.51705 32.4493 5.55613 32.6907 5.56582C33.2259 5.58743 33.7567 5.59997 34.2902 5.63104C37.0684 5.7928 40.2164 6.39091 42.7262 7.30869C45.6526 8.37861 47.9279 9.66198 50.1178 11.6966L50.9717 12.5625C50.929 12.3682 50.619 11.8101 50.5113 11.5928C50.1577 10.8791 49.868 10.416 49.4662 9.75013C49.192 9.29555 48.2971 8.11394 47.8915 7.70835C47.5048 7.32169 47.6952 7.44799 47.1831 6.99294L46.6189 6.46206C45.9774 5.8851 45.0376 5.24438 44.305 4.79949C44.1465 4.70334 44.028 4.63773 43.8693 4.54235C43.7786 4.48797 43.7138 4.46313 43.6318 4.41529C42.4107 3.70295 40.664 3.03416 39.3369 2.58788C38.4209 2.27983 36.881 1.83601 35.9525 1.63887C34.1486 1.2559 32.9879 1.015 31.1026 0.738324C30.4697 0.645408 29.1494 0.487342 28.5117 0.455499L25.7852 0.309509C25.3128 0.309509 24.8403 0.310125 24.3678 0.309509L23.3127 0.345045C23.1384 0.350276 23.1466 0.374966 22.9869 0.382965C21.5331 0.456114 19.6847 0.708557 18.2473 1.06453C18.1899 1.07876 18.1541 1.08507 18.1014 1.10068C18.0897 1.10414 18.056 1.11484 18.0453 1.11868C18.0367 1.12176 18.0259 1.12637 18.0183 1.12937L17.9658 1.15299C17.7837 1.15737 16.9421 1.4132 16.731 1.47842C15.4725 1.86716 14.0008 2.48527 12.8716 3.12161C11.6482 3.8111 10.6499 4.52759 9.64007 5.47182L7.76385 7.5026C7.70065 7.58821 7.65652 7.64344 7.58799 7.72858C7.23979 8.1614 6.78351 8.91027 6.48874 9.40661C5.92353 10.3583 5.62541 11.1011 5.2253 12.1291C3.91185 15.504 3.44146 20.9855 4.88853 24.2931C5.53836 25.7785 6.41816 26.8842 7.72246 27.8147C8.74037 28.5408 10.2943 29.206 11.5532 29.5236C11.7596 29.5757 11.9903 29.6684 12.194 29.6852L12.1939 29.6853Z" fill="url(#paint1_radial_1034_1838)"/>
<path fill-rule="evenodd" clip-rule="evenodd" d="M49.9525 60.7721C50.0538 60.7261 50.1925 60.5148 50.2744 60.4126L51.2197 59.2394C51.4344 58.9679 51.6293 58.7115 51.8371 58.4321C52.742 57.2149 53.3436 56.3483 54.1683 55.1C54.2617 54.9588 54.3446 54.8332 54.4448 54.6822C54.5063 54.5894 54.5251 54.5505 54.5838 54.4556C54.6435 54.3592 54.6866 54.3269 54.7102 54.2199C54.7624 53.872 54.8634 53.5042 54.9279 53.1513C55.3934 50.6064 55.5731 47.7592 54.687 45.336C54.2078 44.0251 53.4604 43.0127 52.5518 42.3916C51.9759 41.9979 51.3742 41.7407 50.7345 42.2464C50.3035 42.5871 49.9528 43.0871 49.6309 43.6646C48.9659 44.858 48.8816 45.3917 48.4412 46.314C47.9851 47.2691 46.5612 49.2155 45.9494 50.1069C45.2507 51.1246 44.5561 52.0676 43.862 53.0596C43.1667 54.0535 42.5022 55.0352 41.8208 56.0257C41.7541 56.0788 41.8062 56.0312 41.7491 56.0961C41.2012 56.7193 38.2898 61.5842 38.026 62.0604C37.2884 63.3925 35.9425 65.7373 35.928 67.3114C35.9175 68.4462 36.2487 68.6635 36.4843 69.2194C38.4972 69.2194 40.95 68.2372 42.682 67.2372C42.9599 67.0768 43.2412 66.9008 43.5124 66.7183C43.7934 66.5292 44.0649 66.3606 44.3348 66.1545C44.4726 66.0494 44.5818 65.9775 44.7138 65.8769C44.8536 65.7704 44.9596 65.6813 45.1028 65.5726C45.5073 65.2656 46.5579 64.3758 46.945 63.9841L48.3266 62.6278C48.4546 62.4993 48.519 62.3945 48.6531 62.2604C48.7833 62.1303 48.871 62.0511 48.9865 61.9001C49.1326 61.7092 49.8252 61.0059 49.9525 60.772V60.7721Z" fill="url(#paint2_radial_1034_1838)"/>
<path fill-rule="evenodd" clip-rule="evenodd" d="M49.7359 26.3392C50.0832 26.6426 53.3589 27.7227 54.0271 27.9227C56.7714 28.7438 60.4423 29.0657 62.5994 31.191C63.1087 31.6928 63.4836 32.3482 63.6812 33.0707C63.9003 33.8718 63.9696 34.9049 63.9699 35.7728L64.8598 33.4303C65.6323 31.0688 66.1464 29.6383 66.5018 27.019C66.6125 26.203 66.6274 24.8804 66.3097 24.073C66.1593 23.6909 65.9464 23.3753 65.6345 23.1407C65.2661 22.8637 65.0541 22.7287 64.6053 22.5655C64.218 22.4246 63.7895 22.3211 63.2957 22.2734C61.9542 22.1437 61.4359 22.2468 60.2027 22.2396C59.9114 22.238 59.7499 22.2829 59.4385 22.2783L58.6818 22.2349C57.6897 22.1274 57.6347 21.9628 57.3682 21.914C56.7054 21.7927 55.8266 21.44 55.2475 21.192C54.9032 21.0447 54.5996 20.9051 54.2676 20.7506C53.9702 20.6121 53.6224 20.4049 53.331 20.2969C53.1627 20.1566 52.5843 19.8771 52.3478 19.752C51.0784 19.0799 46.2833 16.2439 45.4859 15.9255C45.4032 15.8342 45.2085 15.7615 45.0872 15.7032C44.9398 15.6323 44.8133 15.5661 44.6747 15.4957C42.7187 14.5035 40.7432 13.6836 38.5832 13.1385C36.1483 12.5238 34.4603 12.5089 32.0168 12.7629C31.3047 12.8369 30.5736 12.9753 29.8861 13.0357C29.0706 13.0989 27.0372 13.6183 26.2197 13.8747C24.0368 14.5596 21.9926 15.5711 20.3909 17.0905C19.7483 17.7 18.9517 18.6851 18.4769 19.7051C17.4641 21.8815 17.19 24.9534 18.5025 27.0218C18.8064 27.5007 19.1328 27.8869 19.4953 28.2947L21.2619 29.9222C21.4695 30.0995 21.6708 30.2645 21.8894 30.4256L23.2015 31.4085L24.233 31.7646C24.5866 31.9069 24.8595 32.0404 25.1656 32.2171C25.7451 32.5517 25.8763 32.6967 26.3217 33.141C26.6118 33.4304 26.9901 34.056 27.1454 34.4368C27.215 34.6075 27.2869 34.7464 27.3587 34.9185C27.4336 35.0979 27.49 35.2658 27.5525 35.4564C28.2109 37.466 28.6955 40.5185 28.8735 42.5951C28.9463 43.4449 29.0609 44.3166 29.1261 45.1639L29.3469 47.7469C29.995 47.1923 30.7678 46.2323 31.2816 45.4994C33.234 42.7148 34.2188 39.0562 33.0747 35.6425C32.365 33.5249 31.2021 31.8663 30.1598 30.1474C29.4217 28.9302 28.4312 27.4267 27.9991 26.0184C27.7651 25.2557 27.8169 24.9221 27.8169 24.147L27.8533 24.1104V23.9637L27.8897 23.927V23.8169L27.926 23.7802V23.7068L27.9624 23.6335V23.5968L27.9988 23.5235V23.4868L28.035 23.45V23.4133L28.0713 23.34V23.3033L28.1078 23.2666V23.2299L28.1441 23.1932V23.1564L28.1805 23.1197C28.5693 22.1748 29.8142 21.17 30.6721 20.6055C33.7524 18.5788 37.3279 19.5665 40.3756 21.1216C40.6426 21.2578 40.9284 21.399 41.1851 21.5536C41.4085 21.6881 41.8026 21.9396 42.0241 22.0234C42.1112 22.126 45.5347 24.198 45.723 24.3083C46.3346 24.6669 49.0379 26.1318 49.7359 26.3387V26.3392Z" fill="url(#paint3_radial_1034_1838)"/>
<path fill-rule="evenodd" clip-rule="evenodd" d="M129.221 22.3507C129.221 21.1284 129.717 19.7061 130.484 18.8941C130.719 18.6454 130.759 18.5631 131.074 18.3162C132.745 17.008 134.823 16.9693 136.527 18.2792L137.398 19.1967C137.846 19.7974 138.154 20.514 138.305 21.2529C138.632 22.856 138.184 24.7599 137.117 25.8437C136.982 25.9801 136.997 26.0172 136.833 26.1439C136.459 26.4319 136.405 26.5772 135.787 26.8861C134.282 27.6395 132.445 27.5178 131.139 26.4303C130.449 25.8557 129.954 25.2223 129.615 24.3735C129.405 23.8459 129.221 23.097 129.221 22.3506L129.221 22.3507ZM138.162 14.5025C137.748 14.223 137.71 14.1623 137.202 13.8578C136.248 13.2867 134.675 12.7789 133.473 12.7789H132.783C130.956 12.7789 128.797 13.758 127.558 14.9147C127.449 15.0162 127.378 15.1129 127.264 15.2048C127.1 15.3365 127.104 15.3328 126.973 15.4981C126.882 15.614 126.784 15.6804 126.688 15.797C123.79 19.2894 123.442 24.0058 125.757 27.937C126.137 28.5822 126.361 28.7798 126.755 29.2766C127.344 30.0193 128.514 30.9034 129.342 31.3241C131.461 32.4011 133.71 32.5625 135.971 31.6556C136.905 31.2814 137.404 30.9188 138.198 30.3822C138.198 32.0324 138.174 32.992 136.953 34.2238C136.721 34.4583 136.547 34.592 136.283 34.7938C136.158 34.889 136.035 34.964 135.907 35.0382C135.781 35.1114 135.615 35.2085 135.478 35.2656C134.521 35.6644 134.225 35.7733 133.074 35.7733C131.437 35.7733 129.866 34.7627 129.003 33.4629C127.632 34.3892 126.267 35.3238 124.896 36.2501C124.936 36.4008 125.478 37.042 125.581 37.1724C125.977 37.6711 126.723 38.3386 127.238 38.7283C130.885 41.4868 135.765 41.4033 139.387 38.6601L139.813 38.3195C139.969 38.1962 140.049 38.1032 140.203 37.9793C140.42 37.804 140.913 37.2409 141.114 36.992C142.1 35.7742 142.897 34.2629 143.217 32.6596C143.384 31.824 143.468 30.9178 143.468 29.9055C143.468 28.8887 143.504 27.9428 143.504 26.8983V12.7056H138.162V14.5026L138.162 14.5025Z" fill="#171637"/>
<path fill-rule="evenodd" clip-rule="evenodd" d="M89.9706 11.7886C90.0186 11.8444 90.0081 11.8294 90.0392 11.9027L90.3566 12.866C90.4832 13.2489 90.5878 13.5854 90.7198 13.9665C90.9777 14.7108 91.2177 15.4349 91.4653 16.1847L92.9508 20.5903H87.0267L89.9706 11.7886ZM77.2502 31.7757H83.2832C83.3466 31.5013 83.4567 31.2722 83.5425 31.0105C83.6248 30.7598 83.7101 30.5021 83.7967 30.2401L85.3549 25.5779H94.6225C94.6787 25.8213 94.7955 26.1202 94.8723 26.3528L96.6941 31.7758H102.654C102.644 31.6473 102.577 31.473 102.53 31.3512C102.471 31.1978 102.434 31.0734 102.374 30.9215L100.541 25.8399C100.44 25.566 100.344 25.2701 100.23 24.9803C100.007 24.4121 99.8364 23.8617 99.6169 23.2887L99.0061 21.5946C98.8054 21.0106 98.587 20.4735 98.3977 19.898C98.084 18.9445 97.518 17.4502 97.1717 16.5142L95.6539 12.288C94.9908 10.3582 94.1463 8.25416 93.5091 6.34737C93.4349 6.12516 92.928 4.80356 92.9142 4.63727H87.0628C87.0272 4.79141 86.968 4.90502 86.9219 5.04516L85.8406 8.02471C85.6445 8.61144 85.4283 9.13463 85.2322 9.72136C84.8784 10.7804 84.3545 12.0431 84.0054 13.1043C83.9175 13.3716 83.8109 13.6548 83.7037 13.9367C83.2359 15.1664 82.7764 16.5846 82.3124 17.7772C81.7924 19.1132 81.3079 20.653 80.7859 21.9946L80.3182 23.283C79.9019 24.3694 79.5163 25.587 79.0928 26.6674C78.9806 26.9539 78.9024 27.2115 78.7917 27.5004C78.4753 28.3262 78.1923 29.2262 77.8677 30.0522L77.25 31.7759L77.2502 31.7757Z" fill="#171637"/>
<path fill-rule="evenodd" clip-rule="evenodd" d="M153.28 28.3282C150.89 28.3282 151.194 25.9658 152.237 25.075C153.515 23.9832 155.986 24.0561 157.537 23.4921C157.687 23.4375 157.869 23.336 158.005 23.304C158.005 24.179 157.954 24.7845 157.689 25.4051C157.566 25.6917 157.411 25.9381 157.242 26.1645C157.029 26.45 156.783 26.7439 156.51 26.9662C156.446 27.0185 156.426 27.0455 156.354 27.1026C155.52 27.7689 154.377 28.3282 153.28 28.3282H153.28ZM147.502 18.2797L151.79 19.3799C151.827 18.9335 152.554 17.9631 153.026 17.6192C154.165 16.7889 155.994 16.5863 157.087 17.4093C157.442 17.6771 157.969 18.2728 157.969 18.8664C157.969 19.8534 157.315 20.0206 156.479 20.2239C153.853 20.8622 150.879 21.0107 148.504 22.6655C147.818 23.1437 147.093 23.9555 146.764 24.7235C145.97 26.5782 146.24 29.2201 147.583 30.5935C147.942 30.9609 148.347 31.2454 148.804 31.4875C149.15 31.6703 149.649 31.8305 150.038 31.9296C151.991 32.427 154.318 32.0038 156.074 31.2934C156.703 31.0389 157.126 30.813 157.692 30.4333C157.791 30.3673 157.907 30.2615 158.005 30.2351V31.8122H163.093L163.093 22.5336C163.094 22.2224 163.055 22.0674 163.056 21.7638C163.065 20.0768 163.201 18.7029 162.635 16.9818C162.342 16.0936 161.905 15.2252 161.321 14.6397C161.072 14.39 160.912 14.1999 160.615 13.9959C160.508 13.9225 160.446 13.8662 160.338 13.7979C158.51 12.6354 155.738 12.4628 153.643 12.8149C151.879 13.1115 150.569 13.8594 149.327 15.0979L148.939 15.5498C148.707 15.8509 148.455 16.1895 148.266 16.5208C148.052 16.8963 147.532 17.9045 147.502 18.2796L147.502 18.2797Z" fill="#171637"/>
<path fill-rule="evenodd" clip-rule="evenodd" d="M181.81 28.3285C181.321 28.3285 180.84 28.2008 180.548 27.9891C180.243 27.7684 179.993 27.408 179.993 26.8983C179.993 25.2375 181.153 24.6487 182.457 24.2867C183.548 23.984 185.057 23.8585 186.067 23.4923C186.218 23.4377 186.399 23.3363 186.535 23.3042C186.535 24.2722 186.652 24.5726 186.232 25.4193C185.949 25.9915 185.623 26.4058 185.2 26.8347C184.8 27.2409 184.253 27.5716 183.749 27.8274C183.221 28.0954 182.436 28.3285 181.81 28.3285ZM176.032 18.28C176.395 18.3654 176.733 18.4669 177.1 18.5589C177.476 18.6531 177.814 18.7388 178.176 18.8301C178.885 19.009 179.601 19.2113 180.32 19.3802C180.401 19.0304 180.655 18.6565 180.829 18.3898C180.929 18.2362 181.035 18.1269 181.15 17.9806C181.376 17.6936 182.14 17.234 182.532 17.1015C182.701 17.0447 182.944 16.9888 183.149 16.9536C184.044 16.8001 184.906 16.9082 185.642 17.4208C186.41 17.9557 186.852 19.1924 186.162 19.7737C185.966 19.9391 185.595 20.07 185.329 20.143C184.704 20.3142 184.015 20.4459 183.342 20.5586C182.083 20.7693 180.635 21.0901 179.434 21.4933C177.902 22.0079 176.374 22.8668 175.566 24.2275C175.494 24.3484 175.395 24.5119 175.346 24.6289C174.697 26.1652 174.691 27.8526 175.32 29.3768C175.438 29.662 175.617 29.9568 175.787 30.1888C177.927 33.1016 183.095 32.3371 185.915 30.6368C186.029 30.5686 186.108 30.5198 186.224 30.4346C186.321 30.3631 186.429 30.2641 186.535 30.2354V31.8124H191.623L191.625 22.2394C191.624 21.9962 191.586 21.8588 191.587 21.5806C191.588 21.1169 191.623 20.7216 191.623 20.2236C191.623 19.061 191.468 17.893 191.174 17.01C191.017 16.5418 190.73 15.8291 190.476 15.4407C189.997 14.7106 189.597 14.2912 188.869 13.7982C188.52 13.562 188.086 13.3456 187.649 13.1956C186.169 12.6884 185.214 12.6688 183.664 12.6688C181.857 12.6688 180.048 13.2943 178.721 14.3187L177.858 15.098C177.347 15.6552 176.835 16.4001 176.504 17.0697C176.397 17.2869 176.053 18.0292 176.032 18.28V18.28Z" fill="#171637"/>
<path fill-rule="evenodd" clip-rule="evenodd" d="M109.96 14.6491V12.7054H104.617V31.7758H109.96V20.7003C109.96 20.2721 110.126 19.774 110.274 19.4775C110.441 19.1445 110.626 18.8182 110.877 18.5452C111.292 18.0929 112.094 17.5464 112.94 17.5464C113.985 17.5464 114.599 17.7766 115.294 18.472C115.811 18.9902 116.175 19.7394 116.175 20.5169V31.9225H121.263V20.5902C121.263 17.6137 119.766 14.8246 117.513 13.4455C115.723 12.3495 113.619 12.3249 111.752 13.2672C110.756 13.7701 110.213 14.478 109.96 14.649L109.96 14.6491Z" fill="#171637"/>
<path fill-rule="evenodd" clip-rule="evenodd" d="M175.561 63.9751H180.285V55.3568C180.285 54.1169 180.337 53.3376 180.795 52.534C181.143 51.9239 181.983 51.3228 182.938 51.3228C183.56 51.3228 184.059 51.2992 184.622 51.6038C185.559 52.1109 186.028 53.1625 186.028 54.33V63.9751H190.789V53.4498C190.789 51.9311 190.613 50.7566 189.953 49.5257C189.611 48.8878 189.296 48.5582 188.782 48.1036C188.654 47.9908 188.515 47.8833 188.366 47.7899C187.118 47.0119 186.197 46.9586 184.719 46.9586C184.241 46.9586 183.61 47.1137 183.265 47.252C182.727 47.4678 182.585 47.5135 182.08 47.853C181.401 48.3098 181.18 48.6052 180.712 49.1131L180.285 49.5991V41.2008H175.561V63.9752V63.9751Z" fill="#171637"/>
<path fill-rule="evenodd" clip-rule="evenodd" d="M77.832 63.9752H82.6295V55.5403H92.9511V51.2128H82.6295V46.4819H94.3322V42.1544H77.832V63.9752Z" fill="#171637"/>
<path fill-rule="evenodd" clip-rule="evenodd" d="M146.084 50.8091C146.878 50.8091 147.259 50.776 147.999 51.1509C148.359 51.3336 148.678 51.6127 148.914 51.914L149.246 52.386C149.522 52.8053 149.864 53.7512 149.864 54.2932H142.849C142.865 53.5911 143.406 52.4969 143.855 51.9345C144.362 51.3015 145.221 50.8091 146.084 50.8091ZM138.197 55.6501C138.197 58.0026 138.976 60.2321 140.514 61.7837C141.419 62.6965 142.165 63.2222 143.343 63.6973C144.857 64.3084 145.754 64.3417 147.392 64.3417C148.335 64.3417 149.48 64.0833 150.3 63.7554C150.582 63.6427 150.814 63.5128 151.087 63.3761C151.369 63.2351 151.559 63.1029 151.812 62.9334C152.071 62.7591 152.243 62.6156 152.476 62.43C152.79 62.1801 153.426 61.5515 153.643 61.2244L150.954 58.804C150.857 58.8698 150.699 59.0172 150.599 59.1055C150.483 59.2081 150.357 59.3048 150.233 59.3965C149.413 60.0045 148.405 60.491 147.283 60.491C146.433 60.491 145.97 60.5263 145.154 60.1824C144.392 59.8612 143.742 59.3267 143.37 58.5723C143.216 58.2598 142.955 57.7006 142.922 57.3005H153.789C154.567 57.3005 154.479 57.6319 154.479 55.6502C154.479 54.393 154.191 53.153 153.875 52.1888C153.436 50.8457 152.499 49.4248 151.391 48.5714C151.193 48.4192 151.014 48.2951 150.794 48.1468C149.761 47.451 148.295 46.9585 146.884 46.9585C145.826 46.9585 145.228 46.9273 144.173 47.2303C143.543 47.4111 143.28 47.5295 142.716 47.8142C141.741 48.3063 140.839 49.0365 140.165 49.8971C138.897 51.5137 138.197 53.4512 138.197 55.6502L138.197 55.6501Z" fill="#171637"/>
<path fill-rule="evenodd" clip-rule="evenodd" d="M111.633 49.599V47.2519H106.908V63.9751H111.633V55.3568C111.633 54.1168 111.685 53.3376 112.143 52.5339C112.49 51.9238 113.331 51.3227 114.286 51.3227C114.907 51.3227 115.407 51.2992 115.97 51.6038C116.907 52.1108 117.375 53.1625 117.375 54.33V63.9751H122.136V53.4497C122.136 52.2841 122.015 51.2417 121.649 50.2744L120.853 48.84C120.733 48.6972 120.64 48.5838 120.51 48.4529C120.441 48.3836 120.399 48.337 120.329 48.2688L119.713 47.7898C119.565 47.6972 119.41 47.5933 119.254 47.5202C118.073 46.9684 117.356 46.9584 116.067 46.9584C115.589 46.9584 114.958 47.1135 114.613 47.2518C112.464 48.1143 112.06 49.3103 111.633 49.5989L111.633 49.599Z" fill="#171637"/>
<path fill-rule="evenodd" clip-rule="evenodd" d="M166.693 31.7757C166.693 31.8602 166.719 31.8857 166.802 31.8857H171.527C171.611 31.8857 171.636 31.8602 171.636 31.7757V2.73013C171.636 2.64559 171.611 2.62006 171.527 2.62006H166.693V31.7757H166.693Z" fill="#171637"/>
<path fill-rule="evenodd" clip-rule="evenodd" d="M157.133 55.6868C157.133 57.0794 157.432 58.1898 157.844 59.1866C158.598 61.0066 159.89 62.3565 161.579 63.3032L162.283 63.6557C163.788 64.3116 164.756 64.3418 166.364 64.3418C168.302 64.3418 169.896 63.6345 171.355 62.4464C171.639 62.2149 172.364 61.5679 172.543 61.2979L169.817 58.4741L169.281 58.9236C168.572 59.5625 167.389 60.2344 166.328 60.2344C165.324 60.2344 164.991 60.2541 164.075 59.7943C163.19 59.3504 162.543 58.587 162.179 57.673C161.697 56.4629 161.685 54.8742 162.169 53.6536C162.367 53.1544 162.77 52.512 163.121 52.1576C163.667 51.6066 164.667 51.066 165.492 51.066C166.618 51.066 167.198 51.0666 168.175 51.6965C168.501 51.907 168.983 52.296 169.263 52.5788C169.372 52.6889 169.45 52.8475 169.635 52.863C169.68 52.6929 169.854 52.5873 169.972 52.4693L171.734 50.5429C171.962 50.3136 172.289 49.9048 172.47 49.7824C172.339 49.5851 172.128 49.3631 171.94 49.2168C171.821 49.1241 171.77 49.0429 171.66 48.9496C171.547 48.8539 171.448 48.7842 171.335 48.6905C170.002 47.5852 168.162 46.9584 166.401 46.9584C164.958 46.9584 164.113 46.9638 162.725 47.4672L161.647 47.9557C161.082 48.3033 160.956 48.3379 160.367 48.7915C160.302 48.8411 160.293 48.8554 160.23 48.9102C160.159 48.9729 160.138 48.9773 160.068 49.0399C159.972 49.1255 159.911 49.2115 159.811 49.2946C159.456 49.5918 158.837 50.3582 158.594 50.7428C157.695 52.1634 157.133 53.7855 157.133 55.6867L157.133 55.6868Z" fill="#171637"/>
<path fill-rule="evenodd" clip-rule="evenodd" d="M126.97 47.2519H124.971V51.3227H126.97V59.6843C126.97 60.3228 127.104 61.1353 127.285 61.6027C127.44 61.9996 127.602 62.3583 127.842 62.6918C128.242 63.2495 128.762 63.6467 129.425 63.9179C130.63 64.4105 132.814 64.3786 134.043 63.9613C134.739 63.7251 134.891 63.6454 135.51 63.3148V59.5008C135.393 59.5283 135.185 59.6337 135.073 59.6832C134.258 60.0468 133.795 60.0509 132.93 60.0509C132.54 60.0509 132.226 59.8523 132.03 59.639C131.839 59.4321 131.694 59.0459 131.694 58.6573V51.3226H135.583V47.2517H131.694V42.9976H126.97V47.2517L126.97 47.2519Z" fill="#171637"/>
<path fill-rule="evenodd" clip-rule="evenodd" d="M97.7852 63.975H102.51V47.2518H97.7852V63.975Z" fill="#171637"/>
<path fill-rule="evenodd" clip-rule="evenodd" d="M97.6777 45.4182H102.657V41.2007H97.6777V45.4182Z" fill="#171637"/>
</g>
<defs>
<filter id="filter0_d_1034_1838" x="0" y="0.30957" width="195.334" height="76.9153" filterUnits="userSpaceOnUse" color-interpolation-filters="sRGB">
<feFlood flood-opacity="0" result="BackgroundImageFix"/>
<feColorMatrix in="SourceAlpha" type="matrix" values="0 0 0 0 0 0 0 0 0 0 0 0 0 0 0 0 0 0 127 0" result="hardAlpha"/>
<feOffset dy="4"/>
<feGaussianBlur stdDeviation="2"/>
<feComposite in2="hardAlpha" operator="out"/>
<feColorMatrix type="matrix" values="0 0 0 0 0 0 0 0 0 0 0 0 0 0 0 0 0 0 0.25 0"/>
<feBlend mode="normal" in2="BackgroundImageFix" result="effect1_dropShadow_1034_1838"/>
<feBlend mode="normal" in="SourceGraphic" in2="effect1_dropShadow_1034_1838" result="shape"/>
</filter>
<linearGradient id="paint0_linear_1034_1838" x1="10.2167" y1="18.4791" x2="57.3679" y2="18.4791" gradientUnits="userSpaceOnUse">
<stop stop-color="#C62B40"/>
<stop offset="1" stop-color="#D73738"/>
</linearGradient>
<radialGradient id="paint1_radial_1034_1838" cx="0" cy="0" r="1" gradientUnits="userSpaceOnUse" gradientTransform="translate(29.3673 10.0014) scale(23.486 14.6879)">
<stop stop-color="#FFCC4C"/>
<stop offset="1" stop-color="#F49117"/>
</radialGradient>
<radialGradient id="paint2_radial_1034_1838" cx="0" cy="0" r="1" gradientUnits="userSpaceOnUse" gradientTransform="translate(45.6215 55.5926) scale(9.69345 13.6269)">
<stop stop-color="#F9BB09"/>
<stop offset="1" stop-color="#F8AA0E"/>
</radialGradient>
<radialGradient id="paint3_radial_1034_1838" cx="0" cy="0" r="1" gradientUnits="userSpaceOnUse" gradientTransform="translate(44.5424 29.4753) rotate(41.9288) scale(20.5406 20.9383)">
<stop stop-color="#FFD56B"/>
<stop offset="1" stop-color="#FF8C08"/>
</radialGradient>
<clipPath id="clip0_1034_1838">
<rect width="187.333" height="68.9153" fill="white" transform="translate(4 0.30957)"/>
</clipPath>
</defs>
</svg>
