<svg width="173" height="68" viewBox="0 0 173 68" fill="none" xmlns="http://www.w3.org/2000/svg">
<g clip-path="url(#clip0_947_1508)" filter="url(#filter0_d_947_1508)">
<path fill-rule="evenodd" clip-rule="evenodd" d="M25.2436 19.8602C25.2481 19.9041 25.2573 19.8921 25.2117 19.8921V19.9241C25.2162 19.968 25.2253 19.9561 25.1797 19.9561V19.988C25.1842 20.0319 25.1934 20.02 25.1477 20.02V20.052C25.1544 20.1585 25.159 20.092 25.1158 20.1158V20.1478C25.1203 20.1916 25.1295 20.1798 25.084 20.1798V20.2117C25.0905 20.3182 25.0952 20.2517 25.052 20.2755V20.3075C25.0585 20.414 25.0632 20.3476 25.0201 20.3714V20.4352C25.0243 20.479 25.0337 20.4672 24.9881 20.4672V20.563C24.9924 20.6068 25.0017 20.595 24.9562 20.595V20.7227C24.9604 20.7665 24.9697 20.7546 24.9242 20.7546C24.9242 21.4294 24.8788 21.7199 25.0843 22.3838C25.4639 23.6099 26.334 24.9189 26.9825 25.9787C27.8981 27.4753 28.9198 28.9193 29.5434 30.763C30.5485 33.735 29.6833 36.9203 27.968 39.3447C27.5167 39.9828 26.8376 40.8186 26.2683 41.3014C26.2683 41.8019 26.4098 43.2124 26.4581 43.8415L26.556 45.1164C26.5671 45.5495 26.6305 45.9569 26.6521 46.3933L26.9566 49.5051C27.0014 49.8228 27.1453 51.2452 27.1943 51.3377L27.8097 49.784C28.2563 48.7635 28.8016 47.886 29.3682 46.9708C30.3303 45.4162 31.5062 44.0047 32.6461 42.586C32.8194 42.3704 32.9835 42.2005 33.1619 41.9853C33.4966 41.5816 33.826 41.2164 34.1676 40.7871C36.2271 38.1996 37.9849 34.6192 36.6032 31.0755C36.3831 30.5109 36.131 30.0865 35.837 29.64C35.4521 29.0555 35.1555 28.903 34.8596 28.4142C34.3841 27.6285 33.5138 25.6992 35.1449 25.6127C36.2987 25.5516 37.8355 25.9772 38.8695 26.2555C41.794 27.0429 45.5106 28.6761 48.0332 30.2472C48.5098 30.5439 48.9144 30.8153 49.3643 31.1202C49.8225 31.4306 50.1985 31.7562 50.6082 32.0795C51.3418 32.6585 52.1445 33.6256 52.6227 34.4398C53.4399 35.8317 53.5259 37.711 53.6 37.8474L54.0045 37.028C54.0816 36.875 54.134 36.7352 54.2065 36.5914C54.282 36.442 54.3409 36.3294 54.4117 36.158C54.5593 35.8004 54.8567 35.2475 55.0094 34.8719C55.0618 34.7429 55.1375 34.5686 55.2069 34.4309C55.3893 34.0692 56.6736 31.0747 56.6856 30.8763C56.6855 30.1206 56.6245 29.2212 56.432 28.5237C56.2584 27.8947 55.929 27.3241 55.4816 26.8872C53.5865 25.0368 50.3615 24.7566 47.9506 24.0417C47.3636 23.8676 44.4857 22.9272 44.1806 22.663C43.5674 22.483 41.1924 21.2076 40.6551 20.8954C40.4898 20.7993 37.4821 18.9954 37.4055 18.906C37.2109 18.8331 36.8647 18.6141 36.6685 18.497C36.4429 18.3624 36.1918 18.2395 35.9573 18.1209C33.2797 16.7669 30.1385 15.9071 27.4324 17.6716C26.6787 18.1631 25.585 19.0378 25.2434 19.8605L25.2436 19.8602Z" fill="#89163B"/>
<path fill-rule="evenodd" clip-rule="evenodd" d="M27.1935 51.3375C27.1935 52.055 27.8514 55.06 28.0444 55.728C28.378 56.8828 28.902 58.3727 29.7716 59.2373C30.0273 59.4916 30.4604 59.8319 30.8422 59.9228C31.2815 60.0274 32.002 59.9954 32.5392 59.9954C32.3322 59.5114 32.0412 59.3223 32.0504 58.3342C32.0632 56.9638 33.2456 54.9224 33.8936 53.7626C34.1253 53.3479 36.6831 49.1124 37.1645 48.5698C37.2146 48.5133 37.1688 48.5548 37.2274 48.5085C37.826 47.6462 38.4099 46.7914 39.0207 45.9261C39.6305 45.0625 40.2407 44.2415 40.8545 43.3555C41.3921 42.5794 42.643 40.8848 43.0437 40.0532C43.4306 39.2503 43.5047 38.7856 44.0889 37.7466C44.3717 37.2438 44.6798 36.8084 45.0585 36.5118C45.6205 36.0716 46.149 36.2955 46.655 36.6382C47.4532 37.1789 48.1098 38.0604 48.5308 39.2017C49.3093 41.3115 49.1515 43.7904 48.7425 46.006C48.6858 46.3133 48.5971 46.6335 48.5512 46.9363C48.7442 46.8033 50.8763 43.111 51.1938 42.5196L53.301 38.4645C53.4086 38.2492 53.5152 38.0684 53.599 37.847C53.525 37.7107 53.439 35.8313 52.6217 34.4395C52.1436 33.6252 51.3409 32.6582 50.6072 32.0792C50.1975 31.7559 49.8215 31.4303 49.3634 31.1198C48.9134 30.8148 48.5089 30.5436 48.0323 30.2468C45.5097 28.6758 41.7931 27.0425 38.8685 26.2552C37.8345 25.9769 36.2977 25.5512 35.1439 25.6124C33.5128 25.6988 34.3831 27.6282 34.8587 28.4139C35.1545 28.9027 35.4511 29.0551 35.836 29.6397C36.1301 30.0862 36.3822 30.5105 36.6023 31.0751C37.9839 34.6188 36.2261 38.1991 34.1667 40.7867C33.825 41.2161 33.4956 41.5812 33.1609 41.9849C32.9825 42.2001 32.8184 42.3701 32.6452 42.5857C31.5053 44.0043 30.3294 45.4158 29.3672 46.9704C28.8007 47.8857 28.2553 48.7632 27.8087 49.7837L27.1934 51.3374L27.1935 51.3375Z" fill="#EE6B23"/>
<path fill-rule="evenodd" clip-rule="evenodd" d="M15.1005 8.33355L14.3755 8.95748C14.3436 8.98822 14.3065 9.01587 14.2711 9.04547C13.5812 9.623 12.6707 10.9252 12.2387 11.6113C10.4849 14.3967 9.21244 17.6142 9.50214 21.1054C9.62248 22.5559 10.069 23.9558 10.8584 25.1148C10.9708 25.2798 11.1076 25.4255 11.1977 25.5757C11.8383 25.8893 17.5287 26.4691 18.5222 26.6155C19.2668 26.7252 19.8857 26.8227 20.5907 27.0057C20.7026 27.0347 20.7589 27.0668 20.8682 27.0763L19.7155 26.2205C19.5235 26.0803 19.3466 25.9365 19.1642 25.7823L17.6122 24.3652C17.2937 24.0102 17.007 23.674 16.74 23.257C15.587 21.4562 15.8277 18.7817 16.7175 16.8869C17.1346 15.9988 17.8344 15.1411 18.399 14.6105C19.8061 13.2877 21.6021 12.407 23.5199 11.8107C24.238 11.5875 26.0244 11.1353 26.7409 11.0803C27.3449 11.0277 27.9872 10.9072 28.6128 10.8427C30.7595 10.6216 32.2424 10.6347 34.3816 11.1697C36.2791 11.6444 38.0148 12.3582 39.7332 13.222C39.855 13.2833 39.9661 13.3409 40.0956 13.4027C40.2021 13.4534 40.3732 13.5167 40.4459 13.5962C41.1464 13.8734 45.3591 16.3426 46.4743 16.9277C46.6821 17.0367 47.1903 17.2801 47.3381 17.4021C47.594 17.4962 47.8996 17.6765 48.1609 17.7971C48.4525 17.9317 48.7193 18.0531 49.0217 18.1814C49.5304 18.3973 50.3025 18.7044 50.8849 18.81C50.8603 18.774 49.8837 18.0451 49.7109 17.8733C49.6132 17.776 49.5827 17.7476 49.4753 17.6619C49.1486 17.4013 48.535 16.6248 48.2591 16.2918C47.8148 15.7556 47.0859 14.4898 46.7869 13.9006L45.8187 11.8355C45.72 11.6236 45.6436 11.4448 45.5523 11.2397L45.2654 10.6681L44.5153 9.91417C42.5914 8.14276 40.5925 7.02542 38.0216 6.09391C35.8166 5.29486 33.0509 4.77412 30.6102 4.63329C30.1414 4.60624 29.6751 4.59525 29.205 4.5765C28.9928 4.56806 27.8961 4.53404 27.7776 4.61333C27.4196 4.54884 26.2212 4.66965 25.8039 4.7099C22.9233 4.98815 20.2552 5.60886 17.6564 6.81079C17.0361 7.09767 16.2527 7.53805 15.697 7.91648L15.1006 8.33362L15.1005 8.33355Z" fill="url(#paint0_linear_947_1508)"/>
<path fill-rule="evenodd" clip-rule="evenodd" d="M11.1987 25.5756C11.1085 25.4254 10.9717 25.2797 10.8593 25.1147C10.0699 23.9557 9.62339 22.5559 9.50305 21.1053C9.21328 17.614 10.4858 14.3966 12.2396 11.6112C12.6717 10.9251 13.5821 9.62288 14.272 9.04536C14.3075 9.01576 14.3445 8.9881 14.3764 8.95737L15.1014 8.33343L15.6978 7.9163C16.2535 7.53787 17.0369 7.09749 17.6571 6.81061C20.2559 5.60868 22.9241 4.98797 25.8047 4.70972C26.222 4.66947 27.4203 4.54866 27.7784 4.61315C27.8969 4.53386 28.9937 4.56788 29.2058 4.57632C29.676 4.59514 30.1423 4.60605 30.611 4.63311C33.0517 4.77394 35.8174 5.29467 38.0223 6.09372C40.5933 7.02524 42.5922 8.14258 44.5161 9.91399L45.2662 10.6679C45.2287 10.4987 44.9564 10.0128 44.8617 9.82358C44.5511 9.20226 44.2966 8.79906 43.9436 8.21932C43.7027 7.82355 42.9165 6.7948 42.5602 6.44168C42.2204 6.10504 42.3878 6.215 41.9378 5.81883L41.4421 5.35662C40.8786 4.8543 40.0529 4.29647 39.4093 3.90913C39.2701 3.82542 39.1659 3.7683 39.0265 3.68526C38.9469 3.63791 38.89 3.61628 38.8179 3.57463C37.7452 2.95445 36.2106 2.37217 35.0447 1.98363C34.2399 1.71543 32.8871 1.32903 32.0714 1.15739C30.4865 0.823961 29.4669 0.614221 27.8105 0.373341C27.2545 0.292445 26.0947 0.154828 25.5344 0.127103L23.1391 0C22.724 0 22.3089 0.000535736 21.8938 0L20.9669 0.0309387C20.8138 0.0354925 20.8209 0.0569889 20.6806 0.0639534C19.4034 0.127639 17.7796 0.347425 16.5167 0.657348C16.4663 0.669737 16.4349 0.675228 16.3885 0.688822C16.3783 0.691836 16.3487 0.701144 16.3392 0.704492C16.3317 0.707171 16.3222 0.711189 16.3155 0.713801L16.2695 0.73436C16.1095 0.738177 15.3701 0.960909 15.1847 1.0177C14.079 1.35615 12.786 1.89429 11.794 2.44831C10.7192 3.0486 9.84217 3.6724 8.95499 4.49449L7.30667 6.26255C7.25115 6.33708 7.21238 6.38516 7.15218 6.4593C6.84627 6.83612 6.44541 7.48811 6.18644 7.92025C5.68988 8.74883 5.42798 9.39553 5.07647 10.2905C3.92256 13.2289 3.50931 18.0012 4.78061 20.881C5.3515 22.1742 6.12443 23.1368 7.2703 23.947C8.16458 24.5791 9.52977 25.1583 10.6357 25.4348C10.8171 25.4801 11.0198 25.5608 11.1987 25.5755L11.1987 25.5756Z" fill="url(#paint1_radial_947_1508)"/>
<path fill-rule="evenodd" clip-rule="evenodd" d="M44.372 52.6409C44.461 52.6008 44.5829 52.4169 44.6548 52.3279L45.4853 51.3065C45.674 51.0701 45.8451 50.8469 46.0277 50.6036C46.8227 49.5439 47.3512 48.7894 48.0758 47.7026C48.1578 47.5796 48.2306 47.4703 48.3187 47.3388C48.3727 47.258 48.3892 47.2242 48.4408 47.1415C48.4932 47.0576 48.5311 47.0295 48.5518 46.9363C48.5977 46.6335 48.6864 46.3132 48.743 46.006C49.1521 43.7903 49.3099 41.3114 48.5314 39.2017C48.1104 38.0604 47.4538 37.1789 46.6556 36.6382C46.1496 36.2954 45.621 36.0715 45.0591 36.5118C44.6804 36.8084 44.3723 37.2437 44.0895 37.7465C43.5053 38.7855 43.4312 39.2502 43.0443 40.0531C42.6436 40.8847 41.3927 42.5793 40.8551 43.3554C40.2413 44.2415 39.6311 45.0624 39.0213 45.9261C38.4104 46.7914 37.8267 47.6461 37.228 48.5085C37.1694 48.5547 37.2152 48.5133 37.1651 48.5698C36.6837 49.1124 34.1259 53.3479 33.8942 53.7626C33.2462 54.9223 32.0638 56.9638 32.051 58.3342C32.0418 59.3222 32.3328 59.5114 32.5398 59.9954C34.3081 59.9954 36.463 59.1403 37.9846 58.2696C38.2288 58.1299 38.4759 57.9767 38.7142 57.8178C38.961 57.6532 39.1995 57.5064 39.4366 57.327C39.5577 57.2355 39.6537 57.1728 39.7697 57.0853C39.8925 56.9926 39.9856 56.915 40.1114 56.8203C40.4668 56.5531 41.3897 55.7784 41.7299 55.4374L42.9436 54.2565C43.0561 54.1446 43.1127 54.0534 43.2305 53.9367C43.3448 53.8234 43.4219 53.7544 43.5234 53.623C43.6517 53.4567 44.2602 52.8444 44.372 52.6408V52.6409Z" fill="url(#paint2_radial_947_1508)"/>
<path fill-rule="evenodd" clip-rule="evenodd" d="M44.1801 22.6624C44.4852 22.9266 47.363 23.8669 47.95 24.041C50.361 24.7559 53.586 25.0362 55.4811 26.8865C55.9285 27.3234 56.2579 27.894 56.4315 28.5231C56.6239 29.2205 56.6849 30.12 56.6851 30.8756L57.4669 28.8361C58.1455 26.7801 58.5972 25.5347 58.9095 23.2542C59.0067 22.5439 59.0198 21.3923 58.7407 20.6894C58.6086 20.3567 58.4215 20.0819 58.1475 19.8777C57.8239 19.6365 57.6376 19.519 57.2434 19.3769C56.903 19.2542 56.5266 19.1641 56.0928 19.1226C54.9143 19.0097 54.4589 19.0994 53.3755 19.0932C53.1195 19.0917 52.9777 19.1308 52.7041 19.1268L52.0394 19.089C51.1677 18.9955 51.1194 18.8522 50.8853 18.8096C50.303 18.704 49.5309 18.397 49.0222 18.1811C48.7197 18.0528 48.453 17.9313 48.1613 17.7968C47.9 17.6762 47.5944 17.4958 47.3385 17.4017C47.1906 17.2796 46.6825 17.0363 46.4747 16.9273C45.3595 16.3422 41.1468 13.873 40.4463 13.5959C40.3736 13.5164 40.2026 13.4531 40.096 13.4023C39.9665 13.3406 39.8554 13.283 39.7336 13.2217C38.0152 12.3578 36.2796 11.644 34.382 11.1694C32.2429 10.6343 30.7599 10.6213 28.6132 10.8424C27.9876 10.9068 27.3453 11.0273 26.7413 11.0799C26.0248 11.135 24.2384 11.5871 23.5203 11.8104C21.6025 12.4067 19.8066 13.2873 18.3995 14.6101C17.8349 15.1408 17.1351 15.9984 16.7179 16.8866C15.8281 18.7814 15.5874 21.4558 16.7404 23.2566C17.0074 23.6737 17.2942 24.0099 17.6126 24.3649L19.1646 25.7819C19.347 25.9362 19.5239 26.0799 19.716 26.2201L20.8687 27.0759L21.7749 27.386C22.0855 27.5098 22.3253 27.626 22.5942 27.7799C23.1033 28.0712 23.2185 28.1975 23.6099 28.5843C23.8647 28.8362 24.1971 29.3809 24.3335 29.7125C24.3947 29.8611 24.4578 29.982 24.5209 30.1318C24.5867 30.288 24.6363 30.4342 24.6912 30.6001C25.2696 32.3498 25.6954 35.0073 25.8517 36.8153C25.9156 37.5552 26.0163 38.3142 26.0736 39.0518L26.2676 41.3006C26.837 40.8178 27.5159 39.982 27.9673 39.3439C29.6825 36.9195 30.5477 33.7342 29.5426 30.7622C28.9191 28.9185 27.8974 27.4745 26.9817 25.9779C26.3333 24.9182 25.4631 23.6092 25.0836 22.3831C24.878 21.719 24.9234 21.4286 24.9234 20.7538L24.9555 20.7219V20.5942L24.9874 20.5622V20.4664L25.0193 20.4345V20.3706L25.0513 20.3068V20.2747L25.0833 20.2109V20.179L25.115 20.147V20.115L25.147 20.0512V20.0192L25.179 19.9873V19.9553L25.2109 19.9234V19.8914L25.2429 19.8594C25.5845 19.0367 26.6781 18.1619 27.4318 17.6705C30.138 15.906 33.2792 16.7658 35.9567 18.1197C36.1913 18.2383 36.4424 18.3613 36.6679 18.4959C36.8641 18.613 37.2104 18.8319 37.4049 18.9049C37.4815 18.9943 40.4892 20.7982 40.6546 20.8943C41.1919 21.2065 43.5668 22.4818 44.1801 22.6619V22.6624Z" fill="url(#paint3_radial_947_1508)"/>
<path fill-rule="evenodd" clip-rule="evenodd" d="M113.632 19.1899C113.632 18.1257 114.067 16.8873 114.741 16.1804C114.948 15.9639 114.983 15.8922 115.26 15.6773C116.728 14.5383 118.553 14.5046 120.05 15.645L120.816 16.4439C121.209 16.9669 121.479 17.5908 121.612 18.234C121.899 19.6298 121.506 21.2874 120.568 22.231C120.45 22.3498 120.463 22.382 120.319 22.4923C119.99 22.7431 119.942 22.8696 119.4 23.1385C118.078 23.7944 116.464 23.6885 115.316 22.7417C114.71 22.2414 114.275 21.69 113.978 20.951C113.793 20.4916 113.632 19.8396 113.632 19.1898L113.632 19.1899ZM121.486 12.357C121.123 12.1136 121.09 12.0608 120.643 11.7956C119.805 11.2984 118.423 10.8564 117.367 10.8564H116.761C115.156 10.8564 113.259 11.7088 112.17 12.7158C112.075 12.8042 112.013 12.8883 111.912 12.9684C111.768 13.0831 111.771 13.0798 111.657 13.2238C111.576 13.3246 111.491 13.3825 111.406 13.4839C108.86 16.5246 108.555 20.6309 110.588 24.0535C110.922 24.6152 111.119 24.7872 111.465 25.2198C111.983 25.8664 113.011 26.6361 113.738 27.0024C115.599 27.94 117.575 28.0806 119.562 27.2911C120.382 26.9652 120.821 26.6496 121.518 26.1824C121.518 27.6191 121.497 28.4545 120.425 29.527C120.22 29.7311 120.067 29.8475 119.835 30.0232C119.726 30.1062 119.618 30.1714 119.505 30.2361C119.394 30.2998 119.249 30.3843 119.128 30.434C118.287 30.7812 118.027 30.8761 117.016 30.8761C115.578 30.8761 114.198 29.9962 113.44 28.8645C112.236 29.671 111.036 30.4847 109.832 31.2911C109.867 31.4224 110.343 31.9806 110.434 32.0941C110.782 32.5283 111.437 33.1095 111.889 33.4487C115.093 35.8504 119.381 35.7777 122.563 33.3894L122.937 33.0928C123.074 32.9855 123.144 32.9045 123.279 32.7966C123.47 32.6441 123.903 32.1538 124.08 31.9371C124.946 30.8768 125.646 29.561 125.927 28.1651C126.074 27.4377 126.148 26.6486 126.148 25.7674C126.148 24.8821 126.18 24.0585 126.18 23.1492V10.7925H121.486V12.357L121.486 12.357Z" fill="white"/>
<path fill-rule="evenodd" clip-rule="evenodd" d="M79.1481 9.99401C79.1903 10.0426 79.181 10.0296 79.2084 10.0933L79.4873 10.932C79.5985 11.2654 79.6903 11.5584 79.8063 11.8902C80.0329 12.5382 80.2437 13.1686 80.4613 13.8214L81.7663 17.657H76.5618L79.1481 9.99401ZM67.9729 27.3955H73.273C73.3287 27.1566 73.4254 26.9571 73.5008 26.7292C73.5731 26.511 73.6481 26.2867 73.7242 26.0585L75.0931 21.9994H83.235C83.2844 22.2113 83.387 22.4716 83.4545 22.6741L85.055 27.3956H90.2913C90.282 27.2837 90.2233 27.1319 90.1821 27.0258C90.1303 26.8923 90.0975 26.784 90.0453 26.6518L88.4348 22.2275C88.3457 21.9891 88.2612 21.7315 88.1614 21.4792C87.9658 20.9844 87.8156 20.5053 87.6228 20.0064L87.0861 18.5315C86.9098 18.023 86.7179 17.5554 86.5516 17.0543C86.2761 16.2242 85.7788 14.9232 85.4745 14.1083L84.1412 10.4288C83.5585 8.74862 82.8166 6.91681 82.2568 5.2567C82.1916 5.06323 81.7463 3.9126 81.7342 3.76782H76.5935C76.5623 3.90202 76.5103 4.00093 76.4698 4.12295L75.5198 6.71705C75.3475 7.22787 75.1575 7.68338 74.9853 8.1942C74.6744 9.1162 74.2142 10.2156 73.9075 11.1395C73.8303 11.3722 73.7366 11.6188 73.6424 11.8643C73.2315 12.9349 72.8278 14.1696 72.4201 15.2079C71.9633 16.3711 71.5377 17.7117 71.079 18.8797L70.6681 20.0014C70.3024 20.9473 69.9636 22.0074 69.5916 22.948C69.493 23.1974 69.4244 23.4218 69.3271 23.6733C69.0491 24.3922 68.8005 25.1758 68.5154 25.8949L67.9727 27.3956L67.9729 27.3955Z" fill="white"/>
<path fill-rule="evenodd" clip-rule="evenodd" d="M134.769 24.3941C132.669 24.3941 132.936 22.3374 133.852 21.5618C134.975 20.6112 137.146 20.6747 138.509 20.1837C138.641 20.1361 138.8 20.0477 138.92 20.0199C138.92 20.7817 138.875 21.3089 138.642 21.8492C138.534 22.0987 138.398 22.3133 138.249 22.5104C138.062 22.7589 137.846 23.0148 137.606 23.2083C137.55 23.2538 137.532 23.2773 137.469 23.3271C136.736 23.9072 135.732 24.3941 134.769 24.3941H134.769ZM129.692 15.6456L133.46 16.6034C133.492 16.2148 134.13 15.3699 134.545 15.0705C135.546 14.3476 137.153 14.1712 138.113 14.8878C138.425 15.1209 138.888 15.6395 138.888 16.1563C138.888 17.0157 138.314 17.1612 137.579 17.3382C135.272 17.894 132.659 18.0233 130.573 19.464C129.97 19.8803 129.333 20.5871 129.044 21.2557C128.347 22.8705 128.584 25.1707 129.763 26.3664C130.079 26.6862 130.435 26.9339 130.837 27.1447C131.14 27.3039 131.579 27.4433 131.921 27.5297C133.637 27.9627 135.681 27.5942 137.223 26.9758C137.776 26.7541 138.147 26.5575 138.645 26.2269C138.732 26.1694 138.834 26.0773 138.92 26.0544V27.4274H143.39L143.39 19.3492C143.391 19.0782 143.356 18.9432 143.358 18.679C143.365 17.2102 143.484 16.014 142.987 14.5156C142.73 13.7422 142.346 12.9862 141.833 12.4765C141.615 12.2591 141.474 12.0935 141.212 11.9159C141.118 11.852 141.064 11.803 140.97 11.7435C139.363 10.7315 136.928 10.5812 135.088 10.8877C133.538 11.1459 132.387 11.7971 131.296 12.8754L130.955 13.2688C130.751 13.531 130.53 13.8257 130.364 14.1142C130.175 14.4412 129.719 15.3189 129.692 15.6455L129.692 15.6456Z" fill="white"/>
<path fill-rule="evenodd" clip-rule="evenodd" d="M159.833 24.3944C159.403 24.3944 158.98 24.2831 158.723 24.0988C158.456 23.9067 158.236 23.5929 158.236 23.1492C158.236 21.7032 159.255 21.1906 160.401 20.8755C161.359 20.6119 162.685 20.5026 163.572 20.1837C163.705 20.1363 163.864 20.048 163.983 20.02C163.983 20.8628 164.086 21.1244 163.717 21.8615C163.468 22.3596 163.182 22.7204 162.811 23.0938C162.459 23.4474 161.978 23.7353 161.536 23.9581C161.071 24.1914 160.382 24.3944 159.833 24.3944ZM154.756 15.6458C155.075 15.7201 155.372 15.8085 155.694 15.8886C156.024 15.9706 156.322 16.0453 156.64 16.1247C157.263 16.2804 157.892 16.4566 158.523 16.6036C158.594 16.2991 158.817 15.9736 158.97 15.7414C159.058 15.6076 159.151 15.5125 159.253 15.3851C159.451 15.1352 160.122 14.7351 160.467 14.6197C160.615 14.5702 160.829 14.5216 161.009 14.491C161.795 14.3574 162.552 14.4514 163.199 14.8977C163.873 15.3635 164.262 16.4402 163.656 16.9462C163.483 17.0902 163.157 17.2043 162.923 17.2677C162.375 17.4168 161.769 17.5315 161.178 17.6296C160.072 17.8131 158.8 18.0923 157.745 18.4434C156.399 18.8914 155.057 19.6392 154.347 20.8239C154.283 20.9291 154.197 21.0715 154.153 21.1734C153.583 22.5109 153.578 23.98 154.13 25.307C154.234 25.5554 154.391 25.812 154.541 26.014C156.421 28.55 160.961 27.8843 163.439 26.404C163.538 26.3446 163.608 26.3022 163.71 26.228C163.795 26.1658 163.89 26.0795 163.983 26.0545V27.4276H168.453L168.455 19.0929C168.454 18.8812 168.421 18.7616 168.422 18.5194C168.422 18.1157 168.454 17.7715 168.454 17.3379C168.454 16.3257 168.317 15.3088 168.058 14.5401C167.921 14.1324 167.668 13.512 167.445 13.1738C167.025 12.5381 166.673 12.173 166.033 11.7438C165.727 11.5381 165.346 11.3497 164.962 11.2191C163.662 10.7776 162.823 10.7605 161.461 10.7605C159.873 10.7605 158.284 11.3051 157.118 12.1969L156.36 12.8754C155.911 13.3606 155.462 14.0091 155.171 14.592C155.077 14.7812 154.774 15.4274 154.756 15.6457V15.6458Z" fill="white"/>
<path fill-rule="evenodd" clip-rule="evenodd" d="M96.7092 12.4845V10.7923H92.0156V27.3956H96.7092V17.7529C96.7092 17.3801 96.8552 16.9464 96.9856 16.6883C97.1322 16.3984 97.295 16.1143 97.515 15.8766C97.8796 15.4828 98.5839 15.007 99.3274 15.007C100.245 15.007 100.785 15.2075 101.395 15.8129C101.85 16.2641 102.169 16.9163 102.169 17.5932V27.5233H106.639V17.6571C106.639 15.0656 105.324 12.6374 103.345 11.4366C101.772 10.4824 99.924 10.461 98.2841 11.2814C97.4091 11.7192 96.9317 12.3355 96.7093 12.4845L96.7092 12.4845Z" fill="white"/>
<path fill-rule="evenodd" clip-rule="evenodd" d="M154.342 55.4294H158.493V47.926C158.493 46.8465 158.538 46.168 158.941 45.4684C159.246 44.9372 159.984 44.4138 160.823 44.4138C161.369 44.4138 161.808 44.3933 162.303 44.6585C163.126 45.1 163.537 46.0156 163.537 47.032V55.4294H167.72V46.2657C167.72 44.9435 167.566 43.9209 166.986 42.8492C166.685 42.2939 166.409 42.0069 165.957 41.6111C165.845 41.5129 165.723 41.4193 165.591 41.338C164.496 40.6607 163.686 40.6143 162.388 40.6143C161.968 40.6143 161.413 40.7493 161.111 40.8697C160.638 41.0576 160.513 41.0974 160.069 41.393C159.473 41.7907 159.279 42.0478 158.868 42.4901L158.493 42.9132V35.6013H154.342V55.4295V55.4294Z" fill="white"/>
<path fill-rule="evenodd" clip-rule="evenodd" d="M68.4844 55.4296H72.6991V48.0858H81.767V44.3181H72.6991V40.1993H82.9804V36.4316H68.4844V55.4296Z" fill="white"/>
<path fill-rule="evenodd" clip-rule="evenodd" d="M128.446 43.9668C129.144 43.9668 129.478 43.938 130.128 44.2644C130.445 44.4234 130.725 44.6664 130.933 44.9288L131.224 45.3397C131.467 45.7047 131.767 46.5283 131.767 47.0002H125.605C125.618 46.3889 126.093 45.4363 126.489 44.9466C126.933 44.3955 127.688 43.9668 128.446 43.9668ZM121.518 48.1815C121.518 50.2297 122.202 52.1707 123.553 53.5217C124.348 54.3164 125.004 54.7741 126.038 55.1877C127.369 55.7197 128.156 55.7487 129.596 55.7487C130.424 55.7487 131.43 55.5238 132.151 55.2383C132.398 55.1402 132.602 55.0271 132.842 54.908C133.089 54.7853 133.257 54.6702 133.478 54.5226C133.706 54.3709 133.857 54.2459 134.062 54.0843C134.337 53.8667 134.897 53.3195 135.088 53.0347L132.725 50.9274C132.639 50.9847 132.501 51.1131 132.413 51.1899C132.311 51.2793 132.2 51.3634 132.091 51.4433C131.371 51.9726 130.485 52.3961 129.5 52.3961C128.753 52.3961 128.346 52.427 127.629 52.1275C126.96 51.8479 126.389 51.3825 126.062 50.7257C125.926 50.4536 125.698 49.9668 125.669 49.6184H135.215C135.899 49.6184 135.822 49.907 135.822 48.1816C135.822 47.0871 135.569 46.0074 135.291 45.168C134.905 43.9986 134.082 42.7616 133.109 42.0186C132.935 41.886 132.778 41.778 132.584 41.6489C131.677 41.0431 130.389 40.6143 129.149 40.6143C128.22 40.6143 127.695 40.5872 126.767 40.851C126.214 41.0084 125.983 41.1115 125.488 41.3593C124.631 41.7878 123.839 42.4235 123.246 43.1728C122.132 44.5802 121.518 46.2671 121.518 48.1816L121.518 48.1815Z" fill="white"/>
<path fill-rule="evenodd" clip-rule="evenodd" d="M98.1782 42.9132V40.8697H94.0273V55.4296H98.1782V47.9262C98.1782 46.8466 98.2238 46.1682 98.6261 45.4685C98.9315 44.9373 99.6701 44.414 100.509 44.414C101.055 44.414 101.494 44.3935 101.988 44.6587C102.812 45.1001 103.223 46.0157 103.223 47.0322V55.4296H107.406V46.2658C107.406 45.251 107.299 44.3434 106.977 43.5013L106.278 42.2524C106.173 42.1281 106.092 42.0293 105.977 41.9154C105.916 41.855 105.879 41.8145 105.818 41.7551L105.277 41.3381C105.146 41.2575 105.011 41.167 104.873 41.1033C103.836 40.6229 103.206 40.6143 102.073 40.6143C101.654 40.6143 101.099 40.7493 100.796 40.8697C98.908 41.6206 98.5533 42.6619 98.1781 42.9132L98.1782 42.9132Z" fill="white"/>
<path fill-rule="evenodd" clip-rule="evenodd" d="M146.551 27.3956C146.551 27.4691 146.573 27.4914 146.647 27.4914H150.797C150.871 27.4914 150.893 27.4691 150.893 27.3956V2.10755C150.893 2.03395 150.871 2.01172 150.797 2.01172H146.551V27.3956H146.551Z" fill="white"/>
<path fill-rule="evenodd" clip-rule="evenodd" d="M138.153 48.2135C138.153 49.4259 138.415 50.3927 138.777 51.2605C139.439 52.8451 140.574 54.0204 142.058 54.8446L142.677 55.1515C143.999 55.7225 144.849 55.7488 146.263 55.7488C147.965 55.7488 149.365 55.133 150.647 54.0986C150.897 53.8971 151.533 53.3338 151.691 53.0987L149.296 50.6401L148.825 51.0315C148.202 51.5878 147.163 52.1727 146.231 52.1727C145.349 52.1727 145.056 52.1899 144.251 51.7896C143.474 51.4031 142.906 50.7385 142.586 49.9427C142.162 48.8892 142.152 47.506 142.577 46.4433C142.75 46.0086 143.105 45.4494 143.413 45.1408C143.893 44.6611 144.771 44.1904 145.496 44.1904C146.486 44.1904 146.995 44.191 147.853 44.7394C148.14 44.9226 148.563 45.2613 148.809 45.5075C148.904 45.6034 148.974 45.7415 149.136 45.755C149.176 45.6069 149.329 45.515 149.432 45.4122L150.98 43.735C151.18 43.5354 151.467 43.1795 151.627 43.0729C151.512 42.9011 151.326 42.7078 151.161 42.5805C151.057 42.4998 151.011 42.4291 150.915 42.3478C150.816 42.2645 150.729 42.2039 150.629 42.1223C149.458 41.1599 147.842 40.6143 146.294 40.6143C145.027 40.6143 144.285 40.6189 143.066 41.0572L142.118 41.4825C141.622 41.7851 141.511 41.8153 140.994 42.2101C140.937 42.2534 140.928 42.2658 140.874 42.3135C140.811 42.3681 140.793 42.3719 140.731 42.4264C140.646 42.501 140.593 42.5759 140.506 42.6482C140.193 42.9069 139.649 43.5742 139.436 43.909C138.646 45.1459 138.152 46.5581 138.152 48.2134L138.153 48.2135Z" fill="white"/>
<path fill-rule="evenodd" clip-rule="evenodd" d="M111.653 40.8697H109.896V44.4139H111.653V51.6938C111.653 52.2497 111.77 52.9571 111.93 53.364C112.066 53.7096 112.209 54.0219 112.419 54.3123C112.77 54.7978 113.227 55.1437 113.81 55.3797C114.869 55.8086 116.787 55.7808 117.867 55.4175C118.478 55.2119 118.612 55.1425 119.156 54.8547V51.5341C119.053 51.558 118.87 51.6497 118.772 51.6928C118.056 52.0094 117.649 52.0129 116.889 52.0129C116.546 52.0129 116.271 51.84 116.098 51.6544C115.93 51.4742 115.803 51.138 115.803 50.7996V44.4138H119.22V40.8696H115.803V37.1658H111.653V40.8696L111.653 40.8697Z" fill="white"/>
<path fill-rule="evenodd" clip-rule="evenodd" d="M86.0137 55.4294H90.1645V40.8696H86.0137V55.4294Z" fill="white"/>
<path fill-rule="evenodd" clip-rule="evenodd" d="M85.918 39.2733H90.2923V35.6013H85.918V39.2733Z" fill="white"/>
</g>
<defs>
<filter id="filter0_d_947_1508" x="0" y="0" width="172.578" height="68" filterUnits="userSpaceOnUse" color-interpolation-filters="sRGB">
<feFlood flood-opacity="0" result="BackgroundImageFix"/>
<feColorMatrix in="SourceAlpha" type="matrix" values="0 0 0 0 0 0 0 0 0 0 0 0 0 0 0 0 0 0 127 0" result="hardAlpha"/>
<feOffset dy="4"/>
<feGaussianBlur stdDeviation="2"/>
<feComposite in2="hardAlpha" operator="out"/>
<feColorMatrix type="matrix" values="0 0 0 0 0 0 0 0 0 0 0 0 0 0 0 0 0 0 0.25 0"/>
<feBlend mode="normal" in2="BackgroundImageFix" result="effect1_dropShadow_947_1508"/>
<feBlend mode="normal" in="SourceGraphic" in2="effect1_dropShadow_947_1508" result="shape"/>
</filter>
<linearGradient id="paint0_linear_947_1508" x1="9.46088" y1="15.819" x2="50.8848" y2="15.819" gradientUnits="userSpaceOnUse">
<stop stop-color="#C62B40"/>
<stop offset="1" stop-color="#D73738"/>
</linearGradient>
<radialGradient id="paint1_radial_947_1508" cx="0" cy="0" r="1" gradientUnits="userSpaceOnUse" gradientTransform="translate(26.2861 8.43805) scale(20.6332 12.7878)">
<stop stop-color="#FFCC4C"/>
<stop offset="1" stop-color="#F49117"/>
</radialGradient>
<radialGradient id="paint2_radial_947_1508" cx="0" cy="0" r="1" gradientUnits="userSpaceOnUse" gradientTransform="translate(40.5671 48.1314) scale(8.51603 11.8641)">
<stop stop-color="#F9BB09"/>
<stop offset="1" stop-color="#F8AA0E"/>
</radialGradient>
<radialGradient id="paint3_radial_947_1508" cx="0" cy="0" r="1" gradientUnits="userSpaceOnUse" gradientTransform="translate(39.6174 25.3928) rotate(41.6716) scale(17.9733 18.3029)">
<stop stop-color="#FFD56B"/>
<stop offset="1" stop-color="#FF8C08"/>
</radialGradient>
<clipPath id="clip0_947_1508">
<rect width="164.579" height="60" fill="white" transform="translate(4)"/>
</clipPath>
</defs>
</svg>
