<svg width="128" height="40" viewBox="0 0 128 40" fill="none" xmlns="http://www.w3.org/2000/svg">
<rect width="127.288" height="40" rx="12" fill="#F9F9F9"/>
<rect x="0.5" y="0.5" width="126.288" height="39" rx="11.5" stroke="#777777" stroke-opacity="0.2"/>
<path fill-rule="evenodd" clip-rule="evenodd" d="M56.838 10.4H57.5348V14.0821C57.5348 14.205 57.5665 14.3015 57.6298 14.3714C57.6931 14.4414 57.7818 14.4763 57.8958 14.4763C57.9423 14.4763 57.9961 14.4679 58.0574 14.4509C58.1186 14.4339 58.1767 14.4149 58.2316 14.3937L58.3329 14.9406C58.2316 14.9872 58.1112 15.0243 57.9719 15.0519C57.8325 15.0794 57.7079 15.0932 57.5981 15.0932C57.3574 15.0932 57.1706 15.0275 57.0375 14.896C56.9045 14.7646 56.838 14.5781 56.838 14.3364V10.4ZM40.3115 10.5272V15.0423H41.9078C42.2414 15.0423 42.5433 14.9883 42.8136 14.8802C43.0839 14.772 43.314 14.6194 43.5041 14.4223C43.6941 14.2251 43.8408 13.9877 43.9443 13.71C44.0478 13.4323 44.0995 13.1218 44.0995 12.7784C44.0995 12.4689 44.053 12.1775 43.9601 11.904C43.8672 11.6305 43.7289 11.3921 43.5452 11.1886C43.3615 10.9851 43.1335 10.824 42.8611 10.7053C42.5887 10.5866 42.271 10.5272 41.9078 10.5272H40.3115ZM43.2787 12.1234C43.3442 12.3227 43.3769 12.541 43.3769 12.7784C43.3769 13.0116 43.3452 13.2278 43.2819 13.4271C43.2185 13.6263 43.1246 13.7991 43 13.9454C42.8754 14.0916 42.7213 14.2061 42.5376 14.2888C42.3539 14.3714 42.1438 14.4128 41.9073 14.4128H41.0205V11.1568H41.9073C42.1396 11.1568 42.3465 11.1971 42.5281 11.2776C42.7097 11.3582 42.8638 11.4695 42.9905 11.6115C43.1172 11.7535 43.2133 11.9242 43.2787 12.1234ZM46.0819 15.1059C45.8201 15.1059 45.5846 15.0593 45.3756 14.966C45.1666 14.8727 44.9881 14.7477 44.8403 14.5908C44.6925 14.434 44.5785 14.2506 44.4983 14.0407C44.418 13.8309 44.3779 13.6115 44.3779 13.3826C44.3779 13.1536 44.418 12.9342 44.4983 12.7244C44.5785 12.5145 44.6936 12.3311 44.8435 12.1743C44.9934 12.0174 45.1729 11.8924 45.3819 11.7991C45.591 11.7058 45.8243 11.6592 46.0819 11.6592C46.3395 11.6592 46.5728 11.7058 46.7818 11.7991C46.9909 11.8924 47.1703 12.0174 47.3203 12.1743C47.4702 12.3311 47.5853 12.5145 47.6655 12.7244C47.7457 12.9342 47.7858 13.1536 47.7858 13.3826C47.7858 13.6115 47.7457 13.8309 47.6655 14.0407C47.5853 14.2506 47.4702 14.434 47.3203 14.5908C47.1703 14.7477 46.9909 14.8727 46.7818 14.966C46.5728 15.0593 46.3395 15.1059 46.0819 15.1059ZM45.1698 13.8341C45.1191 13.6984 45.0938 13.55 45.0938 13.3889C45.0938 13.232 45.1201 13.0847 45.1729 12.9469C45.2257 12.8092 45.2965 12.6894 45.3851 12.5876C45.4738 12.4859 45.5783 12.4053 45.6987 12.346C45.819 12.2866 45.9468 12.257 46.0819 12.257C46.2213 12.257 46.3511 12.2856 46.4715 12.3428C46.5918 12.4 46.6964 12.4795 46.785 12.5813C46.8737 12.683 46.9434 12.8028 46.9941 12.9406C47.0447 13.0784 47.0701 13.2257 47.0701 13.3826C47.0701 13.5437 47.0447 13.692 46.9941 13.8277C46.9434 13.9634 46.8737 14.0821 46.785 14.1838C46.6964 14.2856 46.5918 14.3651 46.4715 14.4223C46.3511 14.4795 46.2213 14.5082 46.0819 14.5082C45.9426 14.5082 45.8127 14.4795 45.6924 14.4223C45.572 14.3651 45.4675 14.2866 45.3788 14.187C45.2901 14.0874 45.2204 13.9697 45.1698 13.8341ZM52.2523 11.7164H52.9174L51.5238 15.0423H50.9474L50.333 13.497L49.7185 15.0423H49.1421L47.7422 11.7164H48.4073L49.4778 14.3682L49.9592 13.1345L49.3828 11.7227H49.9529L50.333 12.7657L50.7067 11.7227H51.2768L50.7067 13.1345L51.1881 14.3682L52.2523 11.7164ZM55.4888 15.0423H56.1856V13.0137C56.1856 12.8314 56.1708 12.6586 56.1412 12.4954C56.1116 12.3322 56.0599 12.188 55.986 12.063C55.9121 11.9379 55.8118 11.8393 55.6851 11.7673C55.5584 11.6952 55.3959 11.6592 55.1974 11.6592C54.906 11.6592 54.64 11.7238 54.3992 11.8531C54.1585 11.9824 53.9748 12.1594 53.8482 12.3841V11.7164H53.2147V15.0423H53.9115V13.0646C53.9495 12.9501 54.0033 12.8452 54.073 12.7498C54.1427 12.6544 54.2219 12.5717 54.3106 12.5018C54.3992 12.4318 54.4943 12.3778 54.5956 12.3396C54.697 12.3015 54.7983 12.2824 54.8997 12.2824C55.0939 12.2824 55.2407 12.3534 55.3399 12.4954C55.4391 12.6374 55.4888 12.8653 55.4888 13.179V15.0423ZM59.3559 14.966C59.565 15.0593 59.8004 15.1059 60.0622 15.1059C60.3198 15.1059 60.5531 15.0593 60.7622 14.966C60.9712 14.8727 61.1507 14.7477 61.3006 14.5908C61.4505 14.4339 61.5656 14.2506 61.6458 14.0407C61.726 13.8309 61.7662 13.6115 61.7662 13.3825C61.7662 13.1536 61.726 12.9342 61.6458 12.7243C61.5656 12.5145 61.4505 12.3311 61.3006 12.1743C61.1507 12.0174 60.9712 11.8923 60.7622 11.7991C60.5531 11.7058 60.3198 11.6592 60.0622 11.6592C59.8046 11.6592 59.5713 11.7058 59.3623 11.7991C59.1532 11.8923 58.9737 12.0174 58.8238 12.1743C58.6739 12.3311 58.5588 12.5145 58.4786 12.7243C58.3984 12.9342 58.3583 13.1536 58.3583 13.3825C58.3583 13.6115 58.3984 13.8309 58.4786 14.0407C58.5588 14.2506 58.6729 14.4339 58.8207 14.5908C58.9685 14.7477 59.1469 14.8727 59.3559 14.966ZM59.074 13.3889C59.074 13.55 59.0994 13.6984 59.1501 13.834C59.2007 13.9697 59.2704 14.0874 59.3591 14.187C59.4478 14.2866 59.5523 14.365 59.6726 14.4223C59.793 14.4795 59.9229 14.5081 60.0622 14.5081C60.2016 14.5081 60.3314 14.4795 60.4518 14.4223C60.5721 14.365 60.6766 14.2856 60.7653 14.1838C60.854 14.0821 60.9237 13.9634 60.9744 13.8277C61.025 13.692 61.0504 13.5436 61.0504 13.3825C61.0504 13.2257 61.025 13.0784 60.9744 12.9406C60.9237 12.8028 60.854 12.683 60.7653 12.5813C60.6766 12.4795 60.5721 12.4 60.4518 12.3428C60.3314 12.2856 60.2016 12.2569 60.0622 12.2569C59.9271 12.2569 59.7993 12.2866 59.679 12.346C59.5586 12.4053 59.4541 12.4859 59.3654 12.5876C59.2767 12.6894 59.206 12.8091 59.1532 12.9469C59.1004 13.0847 59.074 13.232 59.074 13.3889ZM62.6561 15.0264C62.7934 15.0794 62.9423 15.1059 63.1027 15.1059C63.3519 15.1059 63.5852 15.054 63.8027 14.9501C64.0202 14.8462 64.2028 14.6968 64.3506 14.5018L64.3696 14.7116C64.3865 14.8176 64.4319 14.9045 64.5058 14.9724C64.5797 15.0402 64.6842 15.0741 64.8193 15.0741C64.8658 15.0741 64.9133 15.072 64.9619 15.0678C65.0104 15.0635 65.0685 15.055 65.1361 15.0423V14.4445C65.0136 14.4403 64.9524 14.364 64.9524 14.2156V13.0137C64.9524 12.577 64.8257 12.2421 64.5723 12.0089C64.3189 11.7758 63.9642 11.6592 63.5081 11.6592C63.0478 11.6592 62.6044 11.8033 62.1779 12.0916L62.3933 12.5367C62.5749 12.4138 62.7512 12.3195 62.9222 12.2538C63.0932 12.188 63.2674 12.1552 63.4448 12.1552C63.7066 12.1552 63.9072 12.2241 64.0466 12.3619C64.1859 12.4997 64.2556 12.6915 64.2556 12.9374V13.1663C64.1331 13.1197 63.9959 13.0826 63.8439 13.055C63.6918 13.0275 63.5377 13.0137 63.3814 13.0137C63.1745 13.0137 62.9855 13.0391 62.8145 13.09C62.6435 13.1409 62.4957 13.213 62.3711 13.3062C62.2465 13.3995 62.1505 13.5097 62.0829 13.6369C62.0153 13.7641 61.9815 13.9061 61.9815 14.063C61.9815 14.2114 62.01 14.3491 62.067 14.4763C62.1241 14.6035 62.2022 14.7137 62.3014 14.807C62.4007 14.9003 62.5189 14.9734 62.6561 15.0264ZM63.2931 14.5908C63.462 14.5908 63.6214 14.56 63.7713 14.4986C63.9212 14.4371 64.0384 14.3512 64.1229 14.241C64.2116 14.1647 64.2559 14.0842 64.2559 13.9994V13.5606C64.1377 13.5139 64.012 13.4779 63.879 13.4525C63.746 13.427 63.6161 13.4143 63.4894 13.4143C63.2403 13.4143 63.0365 13.4684 62.8782 13.5765C62.7198 13.6846 62.6406 13.8277 62.6406 14.0057C62.6406 14.1711 62.7019 14.3099 62.8243 14.4223C62.9468 14.5346 63.103 14.5908 63.2931 14.5908ZM66.3586 14.9692C66.5486 15.0603 66.7556 15.1059 66.9794 15.1059C67.237 15.1059 67.4714 15.0466 67.6825 14.9278C67.8937 14.8091 68.0605 14.6459 68.1829 14.4382L68.1956 14.6862C68.204 14.8007 68.2526 14.8939 68.3413 14.966C68.43 15.0381 68.544 15.0741 68.6833 15.0741C68.7129 15.0741 68.7498 15.072 68.7942 15.0678C68.8385 15.0635 68.8966 15.055 68.9684 15.0423V14.4445C68.8966 14.4403 68.847 14.4212 68.8195 14.3873C68.7921 14.3534 68.7784 14.2962 68.7784 14.2156V10.4H68.0816V12.346C67.9675 12.1467 67.8092 11.9824 67.6065 11.8531C67.4038 11.7238 67.1694 11.6592 66.9034 11.6592C66.688 11.6592 66.4906 11.7047 66.3111 11.7959C66.1316 11.887 65.9754 12.011 65.8424 12.1679C65.7093 12.3248 65.6059 12.506 65.532 12.7116C65.4581 12.9172 65.4211 13.1366 65.4211 13.3698C65.4211 13.6115 65.4602 13.8372 65.5383 14.0471C65.6164 14.2569 65.7252 14.4403 65.8645 14.5972C66.0039 14.754 66.1686 14.878 66.3586 14.9692ZM67.1507 14.5082C67.2521 14.5082 67.3534 14.4912 67.4548 14.4573C67.5561 14.4234 67.649 14.3767 67.7335 14.3174C67.818 14.258 67.8908 14.1881 67.952 14.1075C68.0133 14.027 68.0565 13.9401 68.0819 13.8468V12.9756C68.0439 12.8696 67.99 12.7721 67.9204 12.683C67.8507 12.594 67.7715 12.5177 67.6828 12.4541C67.5941 12.3905 67.5002 12.3417 67.4009 12.3078C67.3017 12.2739 67.2014 12.257 67.1 12.257C66.9607 12.257 66.833 12.2888 66.7168 12.3523C66.6007 12.4159 66.5004 12.5007 66.4159 12.6067C66.3315 12.7127 66.265 12.8335 66.2164 12.9692C66.1678 13.1049 66.1436 13.2448 66.1436 13.3889C66.1436 13.5415 66.1699 13.6857 66.2227 13.8213C66.2755 13.957 66.3484 14.0757 66.4413 14.1775C66.5342 14.2792 66.6408 14.3598 66.7612 14.4191C66.8815 14.4785 67.0114 14.5082 67.1507 14.5082ZM71.6822 14.966C71.8913 15.0593 72.1267 15.1059 72.3885 15.1059C72.6461 15.1059 72.8794 15.0593 73.0885 14.966C73.2975 14.8727 73.477 14.7477 73.6269 14.5908C73.7768 14.434 73.8919 14.2506 73.9721 14.0407C74.0524 13.8309 74.0925 13.6115 74.0925 13.3826C74.0925 13.1536 74.0524 12.9342 73.9721 12.7244C73.8919 12.5145 73.7768 12.3311 73.6269 12.1743C73.477 12.0174 73.2975 11.8924 73.0885 11.7991C72.8794 11.7058 72.6461 11.6592 72.3885 11.6592C72.1309 11.6592 71.8976 11.7058 71.6886 11.7991C71.4795 11.8924 71.3001 12.0174 71.1501 12.1743C71.0002 12.3311 70.8852 12.5145 70.8049 12.7244C70.7247 12.9342 70.6846 13.1536 70.6846 13.3826C70.6846 13.6115 70.7247 13.8309 70.8049 14.0407C70.8852 14.2506 70.9992 14.434 71.147 14.5908C71.2948 14.7477 71.4732 14.8727 71.6822 14.966ZM71.4004 13.3889C71.4004 13.55 71.4257 13.6984 71.4764 13.8341C71.5271 13.9697 71.5968 14.0874 71.6854 14.187C71.7741 14.2866 71.8786 14.3651 71.999 14.4223C72.1193 14.4795 72.2492 14.5082 72.3886 14.5082C72.5279 14.5082 72.6578 14.4795 72.7781 14.4223C72.8985 14.3651 73.003 14.2856 73.0917 14.1838C73.1804 14.0821 73.25 13.9634 73.3007 13.8277C73.3514 13.692 73.3767 13.5437 73.3767 13.3826C73.3767 13.2257 73.3514 13.0784 73.3007 12.9406C73.25 12.8028 73.1804 12.683 73.0917 12.5813C73.003 12.4795 72.8985 12.4 72.7781 12.3428C72.6578 12.2856 72.5279 12.257 72.3886 12.257C72.2534 12.257 72.1257 12.2866 72.0053 12.346C71.885 12.4053 71.7805 12.4859 71.6918 12.5876C71.6031 12.6894 71.5324 12.8092 71.4796 12.9469C71.4268 13.0847 71.4004 13.232 71.4004 13.3889ZM76.8231 15.0423H77.5198V13.0137C77.5198 12.8314 77.5051 12.6586 77.4755 12.4954C77.4459 12.3322 77.3942 12.188 77.3203 12.063C77.2464 11.9379 77.1461 11.8393 77.0194 11.7673C76.8927 11.6952 76.7301 11.6592 76.5317 11.6592C76.2403 11.6592 75.9742 11.7238 75.7335 11.8531C75.4928 11.9824 75.3091 12.1594 75.1824 12.3841V11.7164H74.549V15.0423H75.2458V13.0646C75.2838 12.9501 75.3376 12.8452 75.4073 12.7498C75.477 12.6544 75.5562 12.5717 75.6449 12.5018C75.7335 12.4318 75.8285 12.3778 75.9299 12.3396C76.0312 12.3015 76.1326 12.2824 76.234 12.2824C76.4282 12.2824 76.575 12.3534 76.6742 12.4954C76.7734 12.6374 76.8231 12.8653 76.8231 13.179V15.0423ZM81.4092 14.8706C81.3205 14.913 81.198 14.9607 81.0418 15.0137C80.8855 15.0667 80.7187 15.0932 80.5414 15.0932C80.4316 15.0932 80.3281 15.0784 80.231 15.0487C80.1338 15.019 80.0483 14.9745 79.9744 14.9151C79.9005 14.8558 79.8425 14.7784 79.8002 14.683C79.758 14.5876 79.7369 14.4721 79.7369 14.3364V12.2569H79.2998V11.7164H79.7369V10.6226H80.4337V11.7164H81.1558V12.2569H80.4337V14.1139C80.4421 14.2326 80.4791 14.3184 80.5445 14.3714C80.61 14.4244 80.6913 14.4509 80.7884 14.4509C80.8855 14.4509 80.9784 14.4339 81.0671 14.4C81.1558 14.3661 81.2212 14.3386 81.2635 14.3174L81.4092 14.8706ZM83.9996 15.0423H84.6964V13.0137C84.6964 12.8314 84.6806 12.6586 84.6489 12.4954C84.6172 12.3322 84.5613 12.1891 84.4811 12.0662C84.4008 11.9432 84.2942 11.8446 84.1612 11.7705C84.0281 11.6963 83.8582 11.6592 83.6512 11.6592C83.3936 11.6592 83.1561 11.7228 82.9386 11.8499C82.7211 11.9771 82.5491 12.1552 82.4224 12.3841V10.4H81.7256V15.0423H82.4224V13.0646C82.4562 12.9501 82.5068 12.8452 82.5744 12.7498C82.642 12.6544 82.719 12.5717 82.8056 12.5018C82.8922 12.4318 82.984 12.3778 83.0812 12.3396C83.1783 12.3015 83.2754 12.2824 83.3725 12.2824C83.5752 12.2824 83.7304 12.3555 83.8381 12.5018C83.9458 12.648 83.9996 12.8738 83.9996 13.179V15.0423ZM86.8446 15.1059C86.587 15.1059 86.3526 15.0603 86.1414 14.9692C85.9303 14.878 85.7498 14.754 85.5998 14.5972C85.4499 14.4403 85.3338 14.258 85.2514 14.0503C85.1691 13.8425 85.1279 13.6221 85.1279 13.3889C85.1279 13.1557 85.1691 12.9342 85.2514 12.7244C85.3338 12.5145 85.4499 12.3301 85.5998 12.1711C85.7498 12.0121 85.9303 11.8871 86.1414 11.7959C86.3526 11.7048 86.5891 11.6592 86.8509 11.6592C87.1085 11.6592 87.3418 11.7058 87.5508 11.7991C87.7599 11.8924 87.9383 12.0164 88.0861 12.1711C88.2339 12.3258 88.3469 12.506 88.425 12.7116C88.5031 12.9173 88.5422 13.1324 88.5422 13.3571C88.5422 13.408 88.5401 13.4557 88.5358 13.5002C88.5316 13.5447 88.5274 13.5818 88.5232 13.6115H85.8691C85.8817 13.7599 85.9166 13.8934 85.9736 14.0121C86.0306 14.1308 86.1045 14.2336 86.1953 14.3205C86.2861 14.4075 86.3895 14.4742 86.5057 14.5209C86.6218 14.5675 86.7432 14.5908 86.8699 14.5908C86.9628 14.5908 87.0546 14.5792 87.1454 14.5558C87.2362 14.5325 87.3196 14.4986 87.3956 14.4541C87.4717 14.4096 87.5392 14.3555 87.5984 14.2919C87.6575 14.2283 87.7039 14.1584 87.7377 14.0821L88.3331 14.2538C88.2191 14.5039 88.0301 14.7085 87.7662 14.8674C87.5023 15.0264 87.1951 15.1059 86.8446 15.1059ZM87.7467 12.7402C87.8038 12.859 87.8386 12.9883 87.8513 13.1282H85.8496C85.8623 12.9883 85.896 12.859 85.9509 12.7402C86.0058 12.6215 86.0776 12.5209 86.1663 12.4382C86.255 12.3555 86.3574 12.2909 86.4735 12.2442C86.5897 12.1976 86.7132 12.1743 86.8441 12.1743C86.975 12.1743 87.0996 12.1976 87.2178 12.2442C87.3361 12.2909 87.4395 12.3555 87.5282 12.4382C87.6169 12.5209 87.6897 12.6215 87.7467 12.7402Z" fill="#6E7883"/>
<path fill-rule="evenodd" clip-rule="evenodd" d="M43.5279 17.6H45.3359L49.3372 28.4597H47.2328L46.2547 25.7524H42.5794L41.6161 28.4597H39.5117L43.5279 17.6ZM45.8839 24.2688L44.4315 20.0014L42.9199 24.2688H45.8839ZM53.5294 28.1921C53.9839 28.4725 54.5174 28.6127 55.13 28.6127C55.624 28.6127 56.0784 28.5056 56.4934 28.2915C56.9083 28.0773 57.2665 27.7816 57.5678 27.4043C57.8691 27.0271 58.1038 26.5835 58.2718 26.0736C58.4397 25.5638 58.5237 25.0183 58.5237 24.437C58.5237 23.8762 58.4323 23.3434 58.2495 22.8387C58.0667 22.3339 57.8148 21.8955 57.4937 21.5233C57.1726 21.1511 56.7898 20.8554 56.3452 20.6361C55.9006 20.4169 55.4165 20.3073 54.8928 20.3073C54.3001 20.3073 53.7764 20.4424 53.322 20.7126C52.8675 20.9828 52.497 21.3525 52.2105 21.8215V20.4449H50.4766V31.7176H52.4624V27.0525C52.7193 27.5318 53.075 27.9116 53.5294 28.1921ZM54.4634 26.869C54.7598 26.869 55.034 26.8027 55.2859 26.6702C55.5379 26.5376 55.7528 26.3592 55.9306 26.1348C56.1084 25.9105 56.2467 25.6505 56.3455 25.3548C56.4443 25.0591 56.4937 24.7532 56.4937 24.437C56.4937 24.1005 56.4394 23.787 56.3307 23.4964C56.222 23.2058 56.0714 22.9534 55.8787 22.7393C55.6861 22.5251 55.4588 22.3569 55.197 22.2345C54.9352 22.1121 54.6512 22.051 54.3449 22.051C54.1572 22.051 53.9645 22.0841 53.7669 22.1504C53.5693 22.2167 53.3865 22.311 53.2186 22.4334C53.0506 22.5557 52.9 22.6985 52.7666 22.8616C52.6332 23.0248 52.5319 23.2032 52.4628 23.397V25.2783C52.6406 25.7372 52.9123 26.117 53.2779 26.4178C53.6434 26.7186 54.0386 26.869 54.4634 26.869ZM63.1019 28.1921C63.5564 28.4725 64.0899 28.6127 64.7025 28.6127C65.1965 28.6127 65.6509 28.5056 66.0659 28.2915C66.4808 28.0773 66.839 27.7816 67.1403 27.4044C67.4417 27.0271 67.6763 26.5835 67.8443 26.0737C68.0122 25.5638 68.0962 25.0183 68.0962 24.437C68.0962 23.8762 68.0048 23.3434 67.822 22.8387C67.6392 22.3339 67.3873 21.8955 67.0662 21.5233C66.7451 21.1511 66.3623 20.8554 65.9177 20.6361C65.4731 20.4169 64.989 20.3073 64.4654 20.3073C63.8726 20.3073 63.3489 20.4424 62.8945 20.7126C62.44 20.9828 62.0695 21.3525 61.783 21.8215V20.4449H60.0491V31.7177H62.0349V27.0526C62.2918 27.5318 62.6475 27.9116 63.1019 28.1921ZM64.0356 26.869C64.332 26.869 64.6061 26.8027 64.8581 26.6702C65.11 26.5376 65.3249 26.3592 65.5027 26.1348C65.6806 25.9105 65.8189 25.6505 65.9177 25.3548C66.0165 25.0591 66.0659 24.7532 66.0659 24.437C66.0659 24.1005 66.0115 23.787 65.9029 23.4964C65.7942 23.2058 65.6435 22.9534 65.4509 22.7393C65.2582 22.5251 65.031 22.3569 64.7692 22.2345C64.5073 22.1121 64.2233 22.051 63.917 22.051C63.7293 22.051 63.5366 22.0841 63.3391 22.1504C63.1415 22.2167 62.9587 22.311 62.7907 22.4334C62.6228 22.5557 62.4721 22.6985 62.3387 22.8616C62.2053 23.0248 62.1041 23.2032 62.0349 23.397V25.2783C62.2128 25.7372 62.4844 26.117 62.85 26.4178C63.2156 26.7186 63.6107 26.869 64.0356 26.869ZM74.3769 28.2915C74.9994 28.5056 75.6366 28.6127 76.2887 28.6127C77.2569 28.6127 78.0226 28.3858 78.5858 27.932C79.1489 27.4783 79.4305 26.8588 79.4305 26.0737C79.4305 25.7372 79.3737 25.4491 79.26 25.2095C79.1464 24.9698 78.9686 24.7583 78.7265 24.5747C78.4845 24.3912 78.1733 24.228 77.7929 24.0853C77.4125 23.9425 76.9556 23.7997 76.4221 23.657C76.1356 23.5856 75.896 23.5168 75.7033 23.4505C75.5107 23.3842 75.355 23.3154 75.2365 23.244C75.1179 23.1726 75.0315 23.0911 74.9771 22.9993C74.9228 22.9075 74.8956 22.7902 74.8956 22.6475C74.8956 22.3314 75.0093 22.102 75.2365 21.9592C75.4637 21.8164 75.7453 21.7451 76.0812 21.7451C76.4468 21.7451 76.8148 21.8164 77.1853 21.9592C77.5558 22.102 77.9386 22.3263 78.3338 22.6322L79.1341 21.3933C78.7092 21.0058 78.2424 20.7254 77.7336 20.552C77.2248 20.3787 76.6789 20.292 76.096 20.292C75.6613 20.292 75.2587 20.3532 74.8882 20.4755C74.5177 20.5979 74.1942 20.7738 73.9175 21.0032C73.6409 21.2327 73.426 21.5105 73.2729 21.8368C73.1197 22.1631 73.0432 22.5302 73.0432 22.9381C73.0432 23.244 73.0926 23.5066 73.1914 23.7258C73.2902 23.945 73.4482 24.1388 73.6656 24.307C73.8829 24.4753 74.1695 24.6257 74.5251 24.7582C74.8808 24.8908 75.3106 25.0285 75.8145 25.1712C76.4171 25.3446 76.8518 25.4975 77.1186 25.6301C77.3854 25.7626 77.5187 25.9717 77.5187 26.2572C77.5187 26.5427 77.4051 26.7619 77.1779 26.9149C76.9506 27.0679 76.6394 27.1443 76.2442 27.1443C75.7996 27.1443 75.3526 27.0551 74.903 26.8767C74.4535 26.6982 73.9916 26.4356 73.5174 26.0889L72.7764 27.3738C73.221 27.7714 73.7545 28.0773 74.3769 28.2915ZM85.5496 28.0468C85.2829 28.1691 84.9568 28.2915 84.5715 28.4138C84.1862 28.5362 83.7811 28.5974 83.3563 28.5974C83.0797 28.5974 82.8203 28.5617 82.5783 28.4903C82.3362 28.4189 82.1238 28.3042 81.941 28.1462C81.7582 27.9881 81.6125 27.7842 81.5038 27.5344C81.3951 27.2845 81.3408 26.9812 81.3408 26.6243V22.0204H80.3182V20.4449H81.3408V17.8447H83.3267V20.4449H84.9568V22.0204H83.3267V25.936C83.3267 26.2215 83.3983 26.4229 83.5415 26.5402C83.6848 26.6574 83.8602 26.7161 84.0676 26.7161C84.2751 26.7161 84.4777 26.6804 84.6753 26.609C84.8729 26.5376 85.0309 26.4764 85.1495 26.4254L85.5496 28.0468ZM88.4532 28.2762C88.9571 28.5005 89.5252 28.6127 90.1575 28.6127C90.7898 28.6127 91.3579 28.5005 91.8617 28.2762C92.3656 28.0518 92.7904 27.7485 93.1362 27.3661C93.482 26.9837 93.7488 26.5427 93.9365 26.0431C94.1242 25.5434 94.2181 25.0183 94.2181 24.4676C94.2181 23.9068 94.1242 23.3766 93.9365 22.8769C93.7488 22.3773 93.4796 21.9362 93.1288 21.5539C92.7781 21.1715 92.3533 20.8681 91.8543 20.6438C91.3554 20.4194 90.7898 20.3073 90.1575 20.3073C89.5252 20.3073 88.9571 20.4194 88.4532 20.6438C87.9493 20.8681 87.522 21.1715 87.1713 21.5539C86.8205 21.9362 86.5513 22.3773 86.3636 22.8769C86.1759 23.3766 86.082 23.9068 86.082 24.4676C86.082 25.0183 86.1759 25.5434 86.3636 26.0431C86.5513 26.5427 86.8205 26.9837 87.1713 27.3661C87.522 27.7485 87.9493 28.0518 88.4532 28.2762ZM88.1268 24.4676C88.1268 24.8245 88.1787 25.1483 88.2825 25.4389C88.3862 25.7295 88.5294 25.9819 88.7122 26.196C88.895 26.4102 89.1099 26.5759 89.3569 26.6931C89.6039 26.8104 89.8706 26.869 90.1572 26.869C90.4437 26.869 90.7104 26.8104 90.9574 26.6931C91.2044 26.5759 91.4193 26.4102 91.6021 26.196C91.7849 25.9819 91.9281 25.727 92.0318 25.4312C92.1356 25.1355 92.1875 24.8092 92.1875 24.4523C92.1875 24.1056 92.1356 23.7844 92.0318 23.4887C91.9281 23.193 91.7849 22.9381 91.6021 22.724C91.4193 22.5098 91.2044 22.3441 90.9574 22.2269C90.7104 22.1096 90.4437 22.051 90.1572 22.051C89.8706 22.051 89.6039 22.1121 89.3569 22.2345C89.1099 22.3569 88.895 22.5251 88.7122 22.7393C88.5294 22.9534 88.3862 23.2083 88.2825 23.504C88.1787 23.7997 88.1268 24.1209 88.1268 24.4676ZM98.7359 22.5786C99.2102 22.3492 99.7486 22.2294 100.351 22.2192V20.3532C100.302 20.343 100.25 20.3379 100.196 20.3379H99.9512C99.7437 20.3379 99.5288 20.3812 99.3065 20.4679C99.0842 20.5545 98.8644 20.6795 98.647 20.8426C98.4297 21.0058 98.2271 21.197 98.0394 21.4162C97.8517 21.6354 97.6887 21.8827 97.5504 22.158V20.4449H95.7275V28.4597H97.7134V23.6111C97.9209 23.1522 98.2617 22.8081 98.7359 22.5786ZM104.856 28.6127C104.233 28.6127 103.67 28.5031 103.166 28.2838C102.663 28.0646 102.233 27.7663 101.877 27.389C101.521 27.0118 101.247 26.5733 101.055 26.0736C100.862 25.574 100.766 25.0489 100.766 24.4982C100.766 23.9272 100.859 23.3893 101.047 22.8846C101.235 22.3798 101.507 21.9362 101.862 21.5539C102.218 21.1715 102.65 20.8681 103.159 20.6438C103.668 20.4194 104.238 20.3073 104.871 20.3073C105.503 20.3073 106.069 20.4194 106.568 20.6438C107.066 20.8681 107.491 21.1689 107.842 21.5462C108.193 21.9235 108.46 22.362 108.642 22.8616C108.825 23.3613 108.916 23.8813 108.916 24.4217C108.916 24.5543 108.914 24.6818 108.909 24.8041C108.904 24.9265 108.892 25.0285 108.872 25.11H102.87C102.9 25.4261 102.974 25.7066 103.092 25.9513C103.211 26.196 103.364 26.405 103.552 26.5784C103.739 26.7517 103.952 26.8843 104.189 26.9761C104.426 27.0678 104.673 27.1137 104.93 27.1137C105.325 27.1137 105.698 27.0143 106.049 26.8155C106.4 26.6166 106.639 26.3541 106.768 26.0278L108.472 26.5172C108.185 27.129 107.728 27.6312 107.101 28.0238C106.474 28.4164 105.725 28.6127 104.856 28.6127ZM106.226 22.3339C106.607 22.6959 106.822 23.1777 106.871 23.7793H102.84C102.86 23.4836 102.926 23.2134 103.04 22.9687C103.154 22.724 103.299 22.5149 103.477 22.3416C103.655 22.1682 103.86 22.0331 104.092 21.9362C104.324 21.8394 104.574 21.7909 104.841 21.7909C105.384 21.7909 105.846 21.9719 106.226 22.3339Z" fill="#6E7883"/>
<path fill-rule="evenodd" clip-rule="evenodd" d="M26.9939 8.42431C26.9939 9.48536 26.6362 10.4754 25.921 11.395C25.0446 12.498 24.0464 12.9933 22.9265 12.8804C22.9132 12.8091 22.9062 12.7422 22.9062 12.678V12.477C22.9062 11.4584 23.2708 10.5043 23.9988 9.61238C24.3636 9.1606 24.8255 8.78525 25.3849 8.48769C25.9452 8.19121 26.4743 8.02829 26.9737 8C26.987 8.07072 26.9939 8.14116 26.9939 8.21243V8.42431ZM30.6553 15.2138C29.1716 16.1756 28.4428 17.5193 28.4705 19.2453C28.484 20.5748 28.9361 21.6927 29.8252 22.5966C30.2296 23.007 30.6817 23.3266 31.1808 23.5524C31.1268 23.7224 31.0728 23.888 31.0191 24.0506C30.9646 24.2133 30.904 24.3721 30.8372 24.5277C30.6941 24.8987 30.5286 25.2601 30.3416 25.61C30.1672 25.9349 29.9816 26.2533 29.7851 26.5647C29.5492 26.9258 29.3028 27.2795 29.0461 27.6255C28.8238 27.9225 28.6178 28.1556 28.4298 28.3261C27.8895 28.8489 27.3098 29.125 26.6892 29.1527C26.2712 29.1527 25.7312 29.0115 25.0707 28.7279C24.4764 28.4597 23.9037 28.3259 23.3509 28.3259C22.7572 28.3259 22.1631 28.4605 21.5702 28.7279C20.936 29.0115 20.4239 29.1598 20.033 29.1745C19.4252 29.2033 18.8325 28.9199 18.2518 28.3261C17.8484 27.9437 17.3746 27.3355 16.8356 26.5008C16.2294 25.5822 15.7295 24.5144 15.3384 23.2978C14.9204 22.024 14.7119 20.7514 14.7119 19.4784C14.7119 18.0643 14.9946 16.8477 15.5617 15.8288C16.0066 15.0093 16.5998 14.3617 17.3416 13.8876C18.0832 13.414 18.8862 13.1701 19.7493 13.1556C20.262 13.1556 20.8828 13.3112 21.6106 13.6224C22.34 13.9344 22.8321 14.0891 23.0885 14.0891C23.2097 14.0891 23.7564 13.9061 24.7274 13.5378C25.6302 13.1978 26.3723 13.0575 26.9527 13.1132C28.5845 13.2696 29.8186 13.9692 30.6553 15.2138Z" fill="#EA6212"/>
</svg>
