<svg width="132" height="42" viewBox="0 0 132 42" fill="none" xmlns="http://www.w3.org/2000/svg">
<rect x="1.23145" y="1" width="129.578" height="39.348" rx="11" stroke="white" stroke-width="2"/>
<path fill-rule="evenodd" clip-rule="evenodd" d="M61.1436 10.7507H61.8638V14.5568C61.8638 14.6839 61.8966 14.7836 61.962 14.8559C62.0275 14.9283 62.1192 14.9644 62.237 14.9644C62.2851 14.9644 62.3407 14.9556 62.404 14.9381C62.4673 14.9206 62.5273 14.9009 62.5841 14.879L62.6889 15.4443C62.5841 15.4925 62.4597 15.5308 62.3156 15.5593C62.1716 15.5878 62.0428 15.6021 61.9293 15.6021C61.6805 15.6021 61.4873 15.5341 61.3498 15.3983C61.2123 15.2624 61.1436 15.0696 61.1436 14.8198V10.7507ZM44.0596 10.8821V15.5494H45.7096C46.0545 15.5494 46.3666 15.4935 46.646 15.3818C46.9254 15.27 47.1633 15.1122 47.3597 14.9085C47.5561 14.7047 47.7078 14.4593 47.8148 14.1722C47.9217 13.8852 47.9752 13.5642 47.9752 13.2092C47.9752 12.8893 47.9272 12.588 47.8311 12.3053C47.7351 12.0227 47.5921 11.7761 47.4023 11.5658C47.2124 11.3554 46.9766 11.1889 46.6951 11.0662C46.4135 10.9435 46.085 10.8821 45.7096 10.8821H44.0596ZM47.1274 12.5323C47.1951 12.7382 47.2289 12.9639 47.2289 13.2093C47.2289 13.4504 47.1962 13.6739 47.1307 13.8798C47.0652 14.0858 46.9681 14.2644 46.8393 14.4156C46.7106 14.5668 46.5512 14.6851 46.3613 14.7706C46.1714 14.856 45.9543 14.8988 45.7098 14.8988H44.7931V11.5331H45.7098C45.9499 11.5331 46.1638 11.5747 46.3515 11.658C46.5392 11.7412 46.6985 11.8563 46.8295 12.0031C46.9605 12.1499 47.0598 12.3263 47.1274 12.5323ZM50.0241 15.6151C49.7534 15.6151 49.5101 15.5669 49.294 15.4705C49.0779 15.3741 48.8935 15.2448 48.7407 15.0827C48.5879 14.9205 48.47 14.731 48.3871 14.5141C48.3042 14.2971 48.2627 14.0703 48.2627 13.8337C48.2627 13.597 48.3042 13.3703 48.3871 13.1533C48.47 12.9364 48.589 12.7469 48.744 12.5847C48.8989 12.4226 49.0845 12.2933 49.3005 12.1969C49.5166 12.1005 49.7578 12.0522 50.0241 12.0522C50.2904 12.0522 50.5315 12.1005 50.7476 12.1969C50.9637 12.2933 51.1492 12.4226 51.3042 12.5847C51.4591 12.7469 51.5781 12.9364 51.661 13.1533C51.744 13.3703 51.7855 13.597 51.7855 13.8337C51.7855 14.0703 51.744 14.2971 51.661 14.5141C51.5781 14.731 51.4591 14.9205 51.3042 15.0827C51.1492 15.2448 50.9637 15.3741 50.7476 15.4705C50.5315 15.5669 50.2904 15.6151 50.0241 15.6151ZM49.0815 14.3004C49.0291 14.1602 49.0029 14.0068 49.0029 13.8403C49.0029 13.6781 49.0302 13.5258 49.0848 13.3834C49.1393 13.241 49.2125 13.1172 49.3041 13.012C49.3958 12.9068 49.5038 12.8236 49.6283 12.7622C49.7527 12.7008 49.8847 12.6702 50.0244 12.6702C50.1685 12.6702 50.3027 12.6997 50.4271 12.7589C50.5515 12.8181 50.6595 12.9002 50.7512 13.0054C50.8429 13.1106 50.9149 13.2344 50.9673 13.3768C51.0197 13.5193 51.0459 13.6715 51.0459 13.8337C51.0459 14.0002 51.0197 14.1536 50.9673 14.2938C50.9149 14.4341 50.8429 14.5568 50.7512 14.662C50.6595 14.7671 50.5515 14.8493 50.4271 14.9085C50.3027 14.9676 50.1685 14.9972 50.0244 14.9972C49.8803 14.9972 49.7461 14.9676 49.6217 14.9085C49.4973 14.8493 49.3893 14.7682 49.2976 14.6653C49.2059 14.5623 49.1339 14.4407 49.0815 14.3004ZM56.4024 12.1115H57.0899L55.6494 15.5495H55.0535L54.4184 13.9521L53.7832 15.5495H53.1874L51.7403 12.1115H52.4278L53.5344 14.8527L54.0321 13.5774L53.4362 12.1181H54.0255L54.4184 13.1961L54.8047 12.1181H55.394L54.8047 13.5774L55.3023 14.8527L56.4024 12.1115ZM59.7481 15.5494H60.4683V13.4525C60.4683 13.264 60.4531 13.0854 60.4225 12.9167C60.3919 12.748 60.3385 12.599 60.2621 12.4697C60.1857 12.3404 60.082 12.2385 59.9511 12.164C59.8201 12.0895 59.652 12.0523 59.4469 12.0523C59.1457 12.0523 58.8707 12.1191 58.6218 12.2528C58.373 12.3864 58.1831 12.5694 58.0522 12.8017V12.1114H57.3974V15.5494H58.1177V13.505C58.1569 13.3867 58.2126 13.2783 58.2846 13.1797C58.3566 13.081 58.4385 12.9956 58.5302 12.9233C58.6218 12.851 58.7201 12.7951 58.8248 12.7557C58.9296 12.7162 59.0344 12.6965 59.1391 12.6965C59.3399 12.6965 59.4916 12.7699 59.5942 12.9167C59.6968 13.0635 59.7481 13.2991 59.7481 13.6234V15.5494ZM63.7459 15.4706C63.962 15.567 64.2053 15.6152 64.476 15.6152C64.7423 15.6152 64.9834 15.567 65.1995 15.4706C65.4156 15.3741 65.6011 15.2449 65.7561 15.0827C65.9111 14.9206 66.03 14.731 66.113 14.5141C66.1959 14.2972 66.2374 14.0704 66.2374 13.8337C66.2374 13.5971 66.1959 13.3703 66.113 13.1534C66.03 12.9364 65.9111 12.7469 65.7561 12.5847C65.6011 12.4226 65.4156 12.2933 65.1995 12.1969C64.9834 12.1005 64.7423 12.0523 64.476 12.0523C64.2097 12.0523 63.9685 12.1005 63.7524 12.1969C63.5364 12.2933 63.3508 12.4226 63.1959 12.5847C63.0409 12.7469 62.922 12.9364 62.839 13.1534C62.7561 13.3703 62.7146 13.5971 62.7146 13.8337C62.7146 14.0704 62.7561 14.2972 62.839 14.5141C62.922 14.731 63.0398 14.9206 63.1926 15.0827C63.3454 15.2449 63.5298 15.3741 63.7459 15.4706ZM63.4542 13.8403C63.4542 14.0069 63.4804 14.1603 63.5328 14.3005C63.5852 14.4407 63.6572 14.5623 63.7489 14.6653C63.8405 14.7683 63.9486 14.8494 64.073 14.9086C64.1974 14.9677 64.3316 14.9973 64.4757 14.9973C64.6197 14.9973 64.754 14.9677 64.8784 14.9086C65.0028 14.8494 65.1108 14.7672 65.2025 14.662C65.2942 14.5569 65.3662 14.4342 65.4186 14.2939C65.471 14.1537 65.4971 14.0003 65.4971 13.8338C65.4971 13.6716 65.471 13.5193 65.4186 13.3769C65.3662 13.2345 65.2942 13.1107 65.2025 13.0055C65.1108 12.9003 65.0028 12.8181 64.8784 12.759C64.754 12.6998 64.6197 12.6702 64.4757 12.6702C64.336 12.6702 64.2039 12.7009 64.0795 12.7623C63.9551 12.8236 63.8471 12.9069 63.7554 13.0121C63.6637 13.1172 63.5906 13.2411 63.5361 13.3835C63.4815 13.5259 63.4542 13.6782 63.4542 13.8403ZM67.1571 15.533C67.299 15.5878 67.4528 15.6152 67.6187 15.6152C67.8763 15.6152 68.1174 15.5615 68.3423 15.4541C68.5671 15.3467 68.7559 15.1923 68.9086 14.9907L68.9283 15.2076C68.9458 15.3172 68.9927 15.407 69.0691 15.4771C69.1455 15.5472 69.2535 15.5823 69.3932 15.5823C69.4412 15.5823 69.4903 15.5801 69.5405 15.5757C69.5907 15.5713 69.6507 15.5626 69.7206 15.5494V14.9315C69.594 14.9271 69.5307 14.8483 69.5307 14.6949V13.4525C69.5307 13.0011 69.3997 12.6549 69.1378 12.4138C68.8759 12.1728 68.5092 12.0523 68.0378 12.0523C67.562 12.0523 67.1036 12.2013 66.6627 12.4993L66.8854 12.9594C67.0731 12.8323 67.2553 12.7348 67.4321 12.6669C67.6089 12.599 67.789 12.565 67.9723 12.565C68.243 12.565 68.4503 12.6362 68.5944 12.7787C68.7384 12.9211 68.8104 13.1194 68.8104 13.3736V13.6102C68.6838 13.562 68.542 13.5237 68.3848 13.4952C68.2277 13.4667 68.0683 13.4525 67.9068 13.4525C67.6929 13.4525 67.4976 13.4787 67.3208 13.5313C67.144 13.5839 66.9912 13.6584 66.8624 13.7548C66.7337 13.8513 66.6344 13.9652 66.5645 14.0967C66.4947 14.2281 66.4597 14.3749 66.4597 14.5371C66.4597 14.6905 66.4892 14.8329 66.5481 14.9644C66.6071 15.0959 66.6878 15.2098 66.7904 15.3062C66.893 15.4026 67.0152 15.4782 67.1571 15.533ZM67.8152 15.0828C67.9898 15.0828 68.1546 15.051 68.3096 14.9874C68.4646 14.9239 68.5857 14.8351 68.673 14.7212C68.7647 14.6423 68.8105 14.5591 68.8105 14.4714V14.0178C68.6883 13.9696 68.5584 13.9324 68.4209 13.9061C68.2834 13.8798 68.1492 13.8666 68.0182 13.8666C67.7607 13.8666 67.55 13.9225 67.3863 14.0343C67.2227 14.146 67.1408 14.2939 67.1408 14.478C67.1408 14.6489 67.2041 14.7924 67.3307 14.9086C67.4573 15.0247 67.6188 15.0828 67.8152 15.0828ZM70.9837 15.4739C71.1802 15.5681 71.3941 15.6152 71.6254 15.6152C71.8917 15.6152 72.134 15.5538 72.3522 15.4311C72.5705 15.3084 72.7429 15.1397 72.8695 14.925L72.8826 15.1813C72.8913 15.2997 72.9415 15.3961 73.0332 15.4706C73.1249 15.5451 73.2427 15.5823 73.3868 15.5823C73.4174 15.5823 73.4556 15.5801 73.5014 15.5758C73.5472 15.5714 73.6072 15.5626 73.6815 15.5495V14.9315C73.6072 14.9272 73.556 14.9074 73.5276 14.8724C73.4992 14.8373 73.485 14.7782 73.485 14.6949V10.7507H72.7648V12.7623C72.6469 12.5563 72.4832 12.3865 72.2737 12.2528C72.0641 12.1191 71.8219 12.0523 71.5469 12.0523C71.3242 12.0523 71.1201 12.0994 70.9346 12.1936C70.7491 12.2879 70.5876 12.416 70.4501 12.5782C70.3126 12.7403 70.2056 12.9277 70.1292 13.1402C70.0528 13.3528 70.0146 13.5796 70.0146 13.8206C70.0146 14.0704 70.055 14.3038 70.1358 14.5207C70.2165 14.7376 70.3289 14.9272 70.473 15.0893C70.6171 15.2515 70.7873 15.3796 70.9837 15.4739ZM71.8028 14.9972C71.9076 14.9972 72.0124 14.9797 72.1171 14.9446C72.2219 14.9096 72.3179 14.8614 72.4052 14.8C72.4925 14.7387 72.5678 14.6664 72.6311 14.5831C72.6944 14.4998 72.7392 14.41 72.7654 14.3136V13.413C72.7261 13.3034 72.6704 13.2026 72.5984 13.1106C72.5264 13.0186 72.4445 12.9397 72.3529 12.8739C72.2612 12.8082 72.1641 12.7578 72.0615 12.7228C71.9589 12.6877 71.8552 12.6702 71.7504 12.6702C71.6064 12.6702 71.4743 12.703 71.3543 12.7688C71.2343 12.8345 71.1306 12.9222 71.0433 13.0317C70.956 13.1413 70.8872 13.2662 70.837 13.4064C70.7868 13.5466 70.7617 13.6913 70.7617 13.8403C70.7617 13.998 70.789 14.147 70.8436 14.2873C70.8981 14.4275 70.9734 14.5502 71.0695 14.6554C71.1655 14.7606 71.2757 14.8438 71.4001 14.9052C71.5245 14.9665 71.6588 14.9972 71.8028 14.9972ZM76.4881 15.4706C76.7042 15.567 76.9476 15.6152 77.2182 15.6152C77.4845 15.6152 77.7257 15.567 77.9417 15.4706C78.1578 15.3741 78.3433 15.2449 78.4983 15.0827C78.6533 14.9206 78.7722 14.731 78.8552 14.5141C78.9381 14.2972 78.9796 14.0704 78.9796 13.8337C78.9796 13.5971 78.9381 13.3703 78.8552 13.1534C78.7722 12.9364 78.6533 12.7469 78.4983 12.5847C78.3433 12.4226 78.1578 12.2933 77.9417 12.1969C77.7257 12.1005 77.4845 12.0523 77.2182 12.0523C76.9519 12.0523 76.7108 12.1005 76.4947 12.1969C76.2786 12.2933 76.0931 12.4226 75.9381 12.5847C75.7831 12.7469 75.6642 12.9364 75.5812 13.1534C75.4983 13.3703 75.4568 13.5971 75.4568 13.8337C75.4568 14.0704 75.4983 14.2972 75.5812 14.5141C75.6642 14.731 75.782 14.9206 75.9348 15.0827C76.0876 15.2449 76.272 15.3741 76.4881 15.4706ZM76.1964 13.8403C76.1964 14.0069 76.2226 14.1603 76.275 14.3005C76.3274 14.4407 76.3994 14.5623 76.4911 14.6653C76.5828 14.7683 76.6908 14.8494 76.8152 14.9086C76.9396 14.9677 77.0739 14.9973 77.2179 14.9973C77.362 14.9973 77.4962 14.9677 77.6206 14.9086C77.745 14.8494 77.8531 14.7672 77.9447 14.662C78.0364 14.5569 78.1084 14.4342 78.1608 14.2939C78.2132 14.1537 78.2394 14.0003 78.2394 13.8338C78.2394 13.6716 78.2132 13.5193 78.1608 13.3769C78.1084 13.2345 78.0364 13.1107 77.9447 13.0055C77.8531 12.9003 77.745 12.8181 77.6206 12.759C77.4962 12.6998 77.362 12.6702 77.2179 12.6702C77.0782 12.6702 76.9462 12.7009 76.8218 12.7623C76.6973 12.8236 76.5893 12.9069 76.4976 13.0121C76.406 13.1172 76.3329 13.2411 76.2783 13.3835C76.2237 13.5259 76.1964 13.6782 76.1964 13.8403ZM81.8017 15.5494H82.5219V13.4525C82.5219 13.264 82.5066 13.0854 82.4761 12.9167C82.4455 12.748 82.3921 12.599 82.3157 12.4697C82.2393 12.3404 82.1356 12.2385 82.0046 12.164C81.8737 12.0895 81.7056 12.0523 81.5005 12.0523C81.1993 12.0523 80.9243 12.1191 80.6754 12.2528C80.4266 12.3864 80.2367 12.5694 80.1058 12.8017V12.1114H79.451V15.5494H80.1712V13.505C80.2105 13.3867 80.2662 13.2783 80.3382 13.1797C80.4102 13.081 80.4921 12.9956 80.5838 12.9233C80.6754 12.851 80.7736 12.7951 80.8784 12.7557C80.9832 12.7162 81.0879 12.6965 81.1927 12.6965C81.3935 12.6965 81.5452 12.7699 81.6478 12.9167C81.7504 13.0635 81.8017 13.2991 81.8017 13.6234V15.5494ZM86.5418 15.3721C86.4501 15.4159 86.3235 15.4652 86.162 15.52C86.0005 15.5748 85.8281 15.6022 85.6447 15.6022C85.5312 15.6022 85.4243 15.5869 85.3239 15.5562C85.2235 15.5255 85.1351 15.4795 85.0587 15.4181C84.9823 15.3568 84.9223 15.2768 84.8786 15.1782C84.835 15.0796 84.8131 14.9602 84.8131 14.8199V12.6704H84.3613V12.1116H84.8131V10.981H85.5334V12.1116H86.2799V12.6704H85.5334V14.5899C85.5421 14.7126 85.5803 14.8013 85.648 14.8561C85.7156 14.9109 85.7997 14.9383 85.9001 14.9383C86.0005 14.9383 86.0965 14.9207 86.1882 14.8857C86.2799 14.8506 86.3475 14.8221 86.3912 14.8002L86.5418 15.3721ZM89.2199 15.5495H89.9402V13.4525C89.9402 13.264 89.9238 13.0855 89.8911 12.9167C89.8583 12.748 89.8005 12.6001 89.7176 12.473C89.6346 12.3459 89.5244 12.244 89.3869 12.1673C89.2494 12.0907 89.0737 12.0523 88.8598 12.0523C88.5935 12.0523 88.348 12.118 88.1232 12.2495C87.8984 12.381 87.7205 12.565 87.5895 12.8017V10.7507H86.8692V15.5495H87.5895V13.5051C87.6244 13.3867 87.6768 13.2783 87.7467 13.1797C87.8165 13.0811 87.8962 12.9956 87.9857 12.9233C88.0751 12.851 88.1701 12.7951 88.2705 12.7557C88.3709 12.7162 88.4713 12.6965 88.5717 12.6965C88.7812 12.6965 88.9416 12.7721 89.053 12.9233C89.1643 13.0745 89.2199 13.3079 89.2199 13.6234V15.5495ZM92.16 15.6152C91.8938 15.6152 91.6515 15.5681 91.4332 15.4738C91.215 15.3796 91.0284 15.2514 90.8734 15.0893C90.7184 14.9271 90.5984 14.7387 90.5133 14.524C90.4281 14.3092 90.3856 14.0813 90.3856 13.8403C90.3856 13.5993 90.4281 13.3703 90.5133 13.1534C90.5984 12.9364 90.7184 12.7458 90.8734 12.5815C91.0284 12.4171 91.215 12.2878 91.4332 12.1936C91.6515 12.0994 91.896 12.0523 92.1666 12.0523C92.4329 12.0523 92.6741 12.1005 92.8901 12.1969C93.1062 12.2933 93.2906 12.4215 93.4434 12.5815C93.5962 12.7414 93.713 12.9277 93.7937 13.1402C93.8745 13.3528 93.9149 13.5752 93.9149 13.8074C93.9149 13.86 93.9127 13.9093 93.9083 13.9553C93.904 14.0014 93.8996 14.0397 93.8952 14.0704H91.1517C91.1648 14.2238 91.2008 14.3618 91.2597 14.4845C91.3186 14.6072 91.395 14.7135 91.4889 14.8033C91.5827 14.8932 91.6897 14.9622 91.8097 15.0104C91.9298 15.0586 92.0553 15.0827 92.1862 15.0827C92.2823 15.0827 92.3772 15.0707 92.4711 15.0466C92.5649 15.0225 92.6511 14.9874 92.7297 14.9414C92.8083 14.8954 92.8781 14.8395 92.9392 14.7737C93.0004 14.708 93.0484 14.6357 93.0833 14.5568L93.6988 14.7343C93.5809 14.9929 93.3856 15.2043 93.1128 15.3687C92.8399 15.533 92.5224 15.6152 92.16 15.6152ZM93.093 13.1698C93.1519 13.2925 93.1879 13.4261 93.201 13.5707H91.1319C91.145 13.4261 91.1799 13.2925 91.2367 13.1698C91.2934 13.047 91.3676 12.943 91.4593 12.8575C91.551 12.7721 91.6568 12.7052 91.7769 12.657C91.8969 12.6088 92.0246 12.5847 92.1599 12.5847C92.2952 12.5847 92.424 12.6088 92.5462 12.657C92.6685 12.7052 92.7754 12.7721 92.8671 12.8575C92.9588 12.943 93.0341 13.047 93.093 13.1698Z" fill="white"/>
<path fill-rule="evenodd" clip-rule="evenodd" d="M47.3839 18.1931H49.2529L53.389 29.4188H51.2137L50.2026 26.6203H46.4035L45.4077 29.4188H43.2324L47.3839 18.1931ZM49.8197 25.0865L48.3184 20.6753L46.7559 25.0865H49.8197ZM57.7232 29.1422C58.193 29.4321 58.7445 29.577 59.3777 29.577C59.8883 29.577 60.3581 29.4663 60.787 29.245C61.216 29.0236 61.5862 28.7179 61.8977 28.3279C62.2092 27.9379 62.4517 27.4794 62.6253 26.9524C62.7989 26.4254 62.8857 25.8614 62.8857 25.2606C62.8857 24.6809 62.7913 24.1302 62.6023 23.6084C62.4134 23.0866 62.153 22.6334 61.8211 22.2487C61.4891 21.8639 61.0934 21.5583 60.6338 21.3316C60.1743 21.105 59.6738 20.9917 59.1326 20.9917C58.5198 20.9917 57.9785 21.1314 57.5087 21.4107C57.0389 21.69 56.656 22.0721 56.3598 22.557V21.134H54.5674V32.7866H56.6202V27.9643C56.8857 28.4597 57.2534 28.8523 57.7232 29.1422ZM58.6881 27.7745C58.9945 27.7745 59.2779 27.706 59.5383 27.569C59.7988 27.432 60.0209 27.2475 60.2047 27.0156C60.3885 26.7837 60.5315 26.5149 60.6337 26.2093C60.7358 25.9036 60.7868 25.5874 60.7868 25.2606C60.7868 24.9128 60.7307 24.5886 60.6183 24.2882C60.506 23.9878 60.3503 23.727 60.1511 23.5056C59.952 23.2843 59.7171 23.1103 59.4464 22.9838C59.1758 22.8574 58.8822 22.7941 58.5656 22.7941C58.3715 22.7941 58.1724 22.8284 57.9681 22.8969C57.7639 22.9654 57.5749 23.0629 57.4013 23.1894C57.2277 23.3159 57.072 23.4634 56.9341 23.6321C56.7962 23.8007 56.6915 23.9852 56.62 24.1855V26.1302C56.8039 26.6045 57.0847 26.9972 57.4626 27.3081C57.8405 27.6191 58.249 27.7745 58.6881 27.7745ZM67.6177 29.1422C68.0875 29.432 68.6389 29.577 69.2721 29.577C69.7828 29.577 70.2526 29.4663 70.6815 29.245C71.1104 29.0236 71.4806 28.7179 71.7921 28.3279C72.1036 27.9379 72.3462 27.4794 72.5198 26.9524C72.6934 26.4254 72.7802 25.8614 72.7802 25.2606C72.7802 24.6809 72.6858 24.1302 72.4968 23.6084C72.3079 23.0866 72.0475 22.6334 71.7155 22.2487C71.3836 21.8639 70.9879 21.5583 70.5283 21.3316C70.0687 21.105 69.5683 20.9917 69.027 20.9917C68.4143 20.9917 67.873 21.1314 67.4032 21.4107C66.9334 21.69 66.5504 22.0721 66.2543 22.557V21.134H64.4619V32.7866H66.5147V27.9643C66.7802 28.4597 67.1479 28.8523 67.6177 29.1422ZM68.583 27.7745C68.8893 27.7745 69.1728 27.706 69.4332 27.569C69.6936 27.432 69.9157 27.2475 70.0996 27.0156C70.2834 26.7837 70.4264 26.5149 70.5285 26.2093C70.6306 25.9036 70.6817 25.5874 70.6817 25.2606C70.6817 24.9128 70.6255 24.5886 70.5132 24.2882C70.4008 23.9878 70.2451 23.727 70.0459 23.5056C69.8468 23.2843 69.6119 23.1103 69.3413 22.9838C69.0706 22.8574 68.777 22.7941 68.4604 22.7941C68.2664 22.7941 68.0672 22.8284 67.863 22.8969C67.6587 22.9654 67.4698 23.0629 67.2962 23.1894C67.1225 23.3159 66.9668 23.4634 66.8289 23.6321C66.691 23.8007 66.5864 23.9852 66.5149 24.1855V26.1302C66.6987 26.6045 66.9796 26.9972 67.3574 27.3081C67.7353 27.6191 68.1438 27.7745 68.583 27.7745ZM79.2729 29.245C79.9163 29.4663 80.575 29.577 81.249 29.577C82.2499 29.577 83.0414 29.3425 83.6235 28.8734C84.2056 28.4043 84.4967 27.764 84.4967 26.9524C84.4967 26.6045 84.438 26.3068 84.3205 26.0591C84.2031 25.8114 84.0192 25.5927 83.769 25.4029C83.5188 25.2132 83.1971 25.0445 82.8039 24.897C82.4107 24.7494 81.9384 24.6018 81.3869 24.4543C81.0907 24.3805 80.8431 24.3093 80.6439 24.2408C80.4448 24.1723 80.2839 24.1012 80.1614 24.0274C80.0388 23.9536 79.9495 23.8693 79.8933 23.7744C79.8371 23.6795 79.809 23.5583 79.809 23.4108C79.809 23.084 79.9265 22.8468 80.1614 22.6993C80.3963 22.5517 80.6873 22.4779 81.0346 22.4779C81.4124 22.4779 81.7929 22.5517 82.1758 22.6993C82.5588 22.8468 82.9546 23.0787 83.3631 23.3949L84.1903 22.1143C83.7512 21.7137 83.2686 21.4239 82.7426 21.2447C82.2167 21.0655 81.6524 20.9759 81.0499 20.9759C80.6005 20.9759 80.1843 21.0391 79.8014 21.1656C79.4184 21.2921 79.0839 21.4739 78.798 21.7111C78.512 21.9483 78.2899 22.2355 78.1316 22.5728C77.9733 22.9101 77.8941 23.2895 77.8941 23.7112C77.8941 24.0274 77.9452 24.2988 78.0473 24.5254C78.1495 24.752 78.3129 24.9523 78.5375 25.1262C78.7622 25.3002 79.0584 25.4556 79.426 25.5927C79.7937 25.7297 80.238 25.872 80.7588 26.0195C81.3818 26.1987 81.8312 26.3568 82.1069 26.4939C82.3826 26.6309 82.5205 26.847 82.5205 27.1421C82.5205 27.4373 82.4031 27.6639 82.1682 27.822C81.9333 27.9801 81.6116 28.0591 81.2031 28.0591C80.7435 28.0591 80.2814 27.9669 79.8167 27.7825C79.352 27.598 78.8746 27.3266 78.3843 26.9682L77.6184 28.2963C78.078 28.7074 78.6295 29.0236 79.2729 29.245ZM90.8219 28.992C90.5461 29.1185 90.2091 29.245 89.8108 29.3714C89.4125 29.4979 88.9938 29.5612 88.5546 29.5612C88.2687 29.5612 88.0006 29.5243 87.7504 29.4505C87.5002 29.3767 87.2806 29.2581 87.0917 29.0948C86.9027 28.9314 86.7521 28.7206 86.6397 28.4623C86.5274 28.2041 86.4712 27.8905 86.4712 27.5216V22.7625H85.4142V21.134H86.4712V18.4462H88.524V21.134H90.2091V22.7625H88.524V26.8101C88.524 27.1052 88.598 27.3134 88.7461 27.4346C88.8942 27.5558 89.0755 27.6164 89.29 27.6164C89.5044 27.6164 89.7138 27.5795 89.918 27.5058C90.1223 27.432 90.2857 27.3687 90.4082 27.316L90.8219 28.992ZM93.8232 29.2292C94.344 29.461 94.9313 29.577 95.5849 29.577C96.2385 29.577 96.8257 29.461 97.3466 29.2292C97.8674 28.9973 98.3066 28.6837 98.664 28.2884C99.0215 27.8931 99.2972 27.4373 99.4913 26.9208C99.6853 26.4043 99.7823 25.8614 99.7823 25.2923C99.7823 24.7125 99.6853 24.1644 99.4913 23.6479C99.2972 23.1314 99.0189 22.6756 98.6564 22.2803C98.2938 21.885 97.8547 21.5714 97.3389 21.3395C96.8232 21.1077 96.2385 20.9917 95.5849 20.9917C94.9313 20.9917 94.344 21.1077 93.8232 21.3395C93.3023 21.5714 92.8606 21.885 92.4981 22.2803C92.1355 22.6756 91.8572 23.1314 91.6632 23.6479C91.4691 24.1644 91.3721 24.7125 91.3721 25.2923C91.3721 25.8614 91.4691 26.4043 91.6632 26.9208C91.8572 27.4373 92.1355 27.8931 92.4981 28.2884C92.8606 28.6837 93.3023 28.9973 93.8232 29.2292ZM93.4863 25.2923C93.4863 25.6612 93.5399 25.9959 93.6472 26.2963C93.7544 26.5967 93.9025 26.8576 94.0914 27.0789C94.2804 27.3003 94.5025 27.4716 94.7578 27.5928C95.0131 27.714 95.2889 27.7746 95.5851 27.7746C95.8812 27.7746 96.157 27.714 96.4123 27.5928C96.6676 27.4716 96.8897 27.3003 97.0787 27.0789C97.2676 26.8576 97.4157 26.5941 97.5229 26.2884C97.6302 25.9827 97.6838 25.6454 97.6838 25.2765C97.6838 24.9181 97.6302 24.5861 97.5229 24.2804C97.4157 23.9747 97.2676 23.7112 97.0787 23.4899C96.8897 23.2685 96.6676 23.0972 96.4123 22.976C96.157 22.8548 95.8812 22.7942 95.5851 22.7942C95.2889 22.7942 95.0131 22.8574 94.7578 22.9839C94.5025 23.1104 94.2804 23.2843 94.0914 23.5057C93.9025 23.727 93.7544 23.9905 93.6472 24.2962C93.5399 24.6019 93.4863 24.9339 93.4863 25.2923ZM104.453 23.3396C104.943 23.1025 105.5 22.9786 106.123 22.9681V21.0391C106.072 21.0286 106.018 21.0233 105.962 21.0233H105.709C105.494 21.0233 105.272 21.0681 105.043 21.1577C104.813 21.2473 104.586 21.3764 104.361 21.5451C104.136 21.7137 103.927 21.9114 103.733 22.138C103.539 22.3646 103.37 22.6202 103.227 22.9048V21.134H101.343V29.4189H103.396V24.4069C103.61 23.9325 103.963 23.5768 104.453 23.3396ZM110.778 29.577C110.135 29.577 109.552 29.4637 109.032 29.2371C108.511 29.0104 108.066 28.7021 107.699 28.3121C107.331 27.9221 107.048 27.4689 106.849 26.9524C106.649 26.4359 106.55 25.8931 106.55 25.3239C106.55 24.7336 106.647 24.1776 106.841 23.6558C107.035 23.1341 107.316 22.6756 107.683 22.2803C108.051 21.885 108.498 21.5714 109.024 21.3395C109.55 21.1077 110.14 20.9917 110.793 20.9917C111.447 20.9917 112.032 21.1077 112.547 21.3395C113.063 21.5714 113.502 21.8824 113.865 22.2724C114.227 22.6624 114.503 23.1156 114.692 23.6321C114.881 24.1486 114.975 24.6862 114.975 25.2448C114.975 25.3818 114.973 25.5136 114.968 25.6401C114.963 25.7666 114.95 25.872 114.929 25.9563H108.725C108.756 26.2831 108.832 26.5729 108.955 26.8259C109.078 27.0789 109.236 27.295 109.43 27.4741C109.624 27.6533 109.843 27.7904 110.089 27.8852C110.334 27.9801 110.589 28.0275 110.855 28.0275C111.263 28.0275 111.649 27.9248 112.011 27.7192C112.374 27.5137 112.621 27.2423 112.754 26.905L114.516 27.4109C114.22 28.0433 113.747 28.5625 113.099 28.9683C112.45 29.3741 111.677 29.577 110.778 29.577ZM112.195 23.0864C112.588 23.4606 112.81 23.9587 112.861 24.5806H108.694C108.715 24.2749 108.784 23.9956 108.901 23.7426C109.019 23.4896 109.169 23.2735 109.353 23.0943C109.537 22.9151 109.749 22.7755 109.989 22.6753C110.229 22.5752 110.487 22.5251 110.762 22.5251C111.324 22.5251 111.802 22.7122 112.195 23.0864Z" fill="white"/>
<path fill-rule="evenodd" clip-rule="evenodd" d="M30.2918 8.70839C30.2918 9.80519 29.9221 10.8286 29.1827 11.7792C28.2768 12.9193 27.245 13.4313 26.0873 13.3146C26.0736 13.241 26.0664 13.1718 26.0664 13.1054V12.8977C26.0664 11.8447 26.4432 10.8584 27.1958 9.93649C27.5729 9.46949 28.0503 9.08148 28.6286 8.7739C29.2077 8.46743 29.7547 8.29902 30.2709 8.26978C30.2846 8.34288 30.2918 8.4157 30.2918 8.48936V8.70839ZM34.0774 15.7268C32.5437 16.7209 31.7903 18.1099 31.8189 19.8941C31.8329 21.2684 32.3002 22.424 33.2193 23.3583C33.6373 23.7826 34.1046 24.1129 34.6205 24.3463C34.5647 24.522 34.5089 24.6932 34.4534 24.8614C34.397 25.0295 34.3344 25.1937 34.2654 25.3545C34.1175 25.738 33.9464 26.1116 33.7531 26.4733C33.5728 26.8091 33.381 27.1383 33.1778 27.4601C32.9339 27.8334 32.6792 28.199 32.414 28.5567C32.1842 28.8637 31.9712 29.1046 31.7768 29.2809C31.2183 29.8213 30.6191 30.1067 29.9776 30.1354C29.5455 30.1354 28.9873 29.9895 28.3046 29.6962C27.6903 29.419 27.0982 29.2807 26.5268 29.2807C25.913 29.2807 25.299 29.4198 24.6861 29.6962C24.0305 29.9895 23.5012 30.1427 23.0971 30.1579C22.4688 30.1877 21.8561 29.8947 21.2559 29.2809C20.8389 28.8856 20.3491 28.2569 19.792 27.3941C19.1653 26.4446 18.6486 25.3408 18.2442 24.0831C17.8122 22.7665 17.5967 21.4509 17.5967 20.1351C17.5967 18.6733 17.8889 17.4157 18.4751 16.3625C18.935 15.5153 19.5482 14.8459 20.315 14.3558C21.0816 13.8663 21.9117 13.6141 22.8038 13.5992C23.3338 13.5992 23.9756 13.7601 24.7278 14.0817C25.4818 14.4042 25.9905 14.5642 26.2555 14.5642C26.3808 14.5642 26.9459 14.3749 27.9497 13.9943C28.8829 13.6428 29.65 13.4977 30.25 13.5554C31.9368 13.717 33.2124 14.4402 34.0774 15.7268Z" fill="white"/>
</svg>
