<svg width="133" height="44" viewBox="0 0 133 44" fill="none" xmlns="http://www.w3.org/2000/svg">
<g clip-path="url(#clip0_1035_2052)">
<path d="M90.2748 40.5138H87.4213L83.7237 31.6963H71.5928L67.9354 40.5138H64.6465L76.3085 14.3629H79.2224L90.2748 40.5138ZM82.7792 29.3561L77.8023 17.434L72.6846 29.3561H82.7792Z" fill="white"/>
<path d="M94.5485 40.5138H91.8691V21.1755H94.2739V23.9247C94.8104 22.8948 95.6498 22.0545 96.6786 21.5175C97.5838 21.0227 98.6015 20.771 99.6327 20.7866V23.3682C98.5766 23.3616 97.5486 23.7085 96.7121 24.3539C96.1239 24.8016 95.6106 25.3403 95.1916 25.9497C94.7057 26.8665 94.4743 27.8969 94.5217 28.9336L94.5485 40.5138Z" fill="white"/>
<path d="M104.168 18.8689H101.623V14.3562H104.168V18.8689ZM104.168 40.5138H101.623V21.1756H104.168V40.5138Z" fill="white"/>
<path d="M109.594 40.5138H107.021V14.3629H109.594V40.5138Z" fill="white"/>
<path d="M132.342 40.5138H129.83V37.4964C128.901 38.6362 127.719 39.5427 126.378 40.1435C125.037 40.7443 123.574 41.0226 122.106 40.9563C120.821 40.9269 119.555 40.6387 118.383 40.1087C117.212 39.5788 116.159 38.818 115.287 37.8719C113.446 35.937 112.437 33.3566 112.476 30.6848C112.515 28.0131 113.599 25.4632 115.495 23.5827C116.418 22.6068 117.542 21.8434 118.788 21.3455C120.035 20.8477 121.375 20.6272 122.716 20.6994C124.018 20.7277 125.301 21.019 126.488 21.556C127.674 22.0929 128.741 22.8644 129.622 23.8241C130.543 24.7369 131.262 25.834 131.73 27.0438C132.199 28.2536 132.407 29.5488 132.342 30.8446V40.5138ZM115.086 30.6435C115.053 31.626 115.213 32.6055 115.557 33.526C115.902 34.4464 116.425 35.2898 117.096 36.0078C117.73 36.7317 118.505 37.3189 119.374 37.7339C120.242 38.1489 121.185 38.3829 122.147 38.4217C123.157 38.482 124.167 38.3144 125.104 37.9314C126.041 37.5485 126.88 36.9598 127.559 36.2089C128.287 35.4747 128.858 34.5994 129.237 33.6368C129.616 32.6741 129.795 31.6442 129.763 30.61C129.755 28.6544 128.983 26.7795 127.612 25.3865C126.972 24.6873 126.191 24.1322 125.32 23.7577C124.449 23.3832 123.509 23.1979 122.562 23.2139C121.584 23.195 120.613 23.3781 119.71 23.752C118.806 24.1258 117.989 24.6822 117.31 25.3865C116.604 26.0667 116.042 26.8832 115.66 27.7868C115.278 28.6904 115.083 29.6622 115.086 30.6435Z" fill="white"/>
<path d="M0.341797 43.6718C0.55249 43.2918 0.792111 42.9286 1.05853 42.5855C2.07 41.1439 3.06807 39.6955 4.08624 38.2606C4.68241 37.4157 5.29197 36.5775 5.88813 35.7393C6.92639 34.2709 7.95126 32.8024 8.98952 31.3406C9.92061 30.0398 10.8584 28.7389 11.7828 27.4381C13.0153 25.7126 14.2434 23.9871 15.4669 22.2616C16.6459 20.5919 17.8181 18.9089 19.0037 17.2527C19.5597 16.4614 20.1425 15.6903 20.6984 14.8991C21.4152 13.8866 22.1252 12.8875 22.842 11.8481C23.5587 10.8088 24.2486 9.83654 24.952 8.88437C26.1979 7.14098 27.4416 5.39982 28.683 3.6609L31.0007 0.408801C31.3959 -0.134333 31.3959 -0.141039 31.7978 0.408801C32.9767 2.01138 34.1624 3.66761 35.3346 5.29701C36.3461 6.70513 37.3441 8.14008 38.369 9.53479C38.5968 9.83654 38.5499 9.98405 38.3221 10.2053L35.4887 12.6729L30.438 17.1253C29.3931 18.0506 28.3615 18.9961 27.3165 19.9214L22.4467 24.2598C20.7185 25.7886 18.9769 27.304 17.2487 28.8395C15.909 30.0264 14.5693 31.2065 13.2297 32.38C11.89 33.5534 10.3895 34.9347 8.93593 36.2087C8.00485 37.0402 7.06036 37.8515 6.12258 38.6763C5.07092 39.6016 4.01926 40.5404 2.9676 41.4724L0.542751 43.6248C0.518032 43.6522 0.485535 43.6714 0.449617 43.6798C0.413699 43.6882 0.376078 43.6854 0.341797 43.6718H0.341797Z" fill="white"/>
<path d="M7.07422 40.2322C7.63019 39.7561 8.17277 39.3806 8.68855 38.9716C9.64643 38.2206 10.5708 37.4159 11.5488 36.6917C12.5268 35.9676 13.3641 35.2769 14.2818 34.5863C15.1995 33.8956 16.0301 33.1982 16.9009 32.5076C18.5018 31.247 20.1161 30.0065 21.7171 28.7526C22.9898 27.7535 24.2558 26.741 25.5285 25.7285C26.8012 24.716 28.094 23.7772 29.3332 22.7513C30.1371 22.0808 30.9811 21.4907 31.7916 20.8403C32.4614 20.2904 33.1849 19.754 33.8748 19.2109C34.96 18.3593 36.0384 17.501 37.1236 16.6628L39.2269 15.02C39.823 14.5641 40.4192 14.1014 41.002 13.6186C41.1895 13.4644 41.2498 13.5381 41.3503 13.6722L42.4823 15.2413C43.3129 16.3812 44.1569 17.5278 44.9809 18.6744C45.5837 19.5126 46.1799 20.3508 46.7627 21.2024C47.1512 21.7522 47.1445 21.7723 46.5416 22.0472C45.51 22.53 44.4718 22.986 43.4335 23.4621L40.2183 24.9842C39.3006 25.4066 38.3762 25.8156 37.4652 26.2381C36.7083 26.5868 35.958 26.9623 35.2011 27.3109C34.5915 27.5993 33.9753 27.8742 33.359 28.1558L30.6059 29.4231L27.7993 30.7642C26.8481 31.2068 25.8969 31.6627 24.9457 32.1053C23.9946 32.5478 23.1171 32.8563 22.2262 33.2988C21.0137 33.8688 19.808 34.4656 18.5755 35.0087C17.343 35.5518 16.1239 36.1888 14.8511 36.685C14.3756 36.8728 13.9268 37.1343 13.4646 37.3556C13.0024 37.5768 12.6406 37.7646 12.2186 37.9523C11.4215 38.3077 10.6378 38.7033 9.82729 39.0453C9.19978 39.3834 8.54827 39.6747 7.87804 39.917C7.63019 39.9774 7.45603 40.2322 7.07422 40.2322Z" fill="white"/>
<path d="M16.9941 37.4226C17.4929 37.1747 18.0102 36.9662 18.5415 36.799C19.6847 36.352 20.8346 35.905 21.9912 35.4579C22.929 35.1026 23.8802 34.7874 24.8247 34.4119C25.4476 34.1772 26.0572 33.9157 26.6801 33.681C27.3031 33.4463 28.0868 33.158 28.7901 32.8965C30.0696 32.4204 31.349 31.951 32.615 31.4548C34.1556 30.8558 35.6985 30.2702 37.2436 29.698C38.3556 29.2823 39.4474 28.7995 40.5928 28.4106C41.5775 28.0686 42.5287 27.6462 43.5134 27.3243C44.0761 27.1433 44.6186 26.9019 45.1679 26.694C45.9583 26.3856 46.742 26.0771 47.5392 25.7754C48.1152 25.5541 48.7114 25.3731 49.2808 25.1049C49.3183 25.0804 49.3605 25.0643 49.4048 25.0575C49.449 25.0507 49.4942 25.0534 49.5373 25.0654C49.5804 25.0775 49.6204 25.0986 49.6548 25.1274C49.6891 25.1561 49.7169 25.1919 49.7363 25.2323L52.0807 28.471C52.7506 29.403 53.4204 30.3418 54.0903 31.2671C54.2242 31.4548 54.2108 31.5219 53.9831 31.5554C52.9448 31.7029 51.92 31.8907 50.8884 32.0382C50.2186 32.1321 49.5487 32.2595 48.9257 32.3668C47.9277 32.521 46.9162 32.6886 45.9315 32.8362C45.2617 32.93 44.5918 33.0641 43.922 33.1714C42.9574 33.3189 42.0062 33.5268 41.0283 33.6207C40.3584 33.6877 39.6886 33.8621 39.0187 33.9559C38.3489 34.0498 37.8733 34.1303 37.3039 34.2309C36.7345 34.3314 36.0111 34.4387 35.368 34.546L33.5394 34.8679C32.8695 34.9685 32.1997 35.0959 31.57 35.1964L28.5423 35.6725C27.8725 35.7731 27.2026 35.9005 26.5328 36.0078C25.5615 36.162 24.5835 36.3296 23.6055 36.4638C22.9357 36.5576 22.2658 36.685 21.6362 36.7923C20.6649 36.9532 19.6869 37.1209 18.7089 37.255C18.22 37.322 17.731 37.4159 17.242 37.483C17.1992 37.4971 17.1532 37.4989 17.1094 37.4883C17.0656 37.4776 17.0257 37.4549 16.9941 37.4226Z" fill="white"/>
<path d="M31.9922 36.4034C32.0281 36.3656 32.072 36.3363 32.1207 36.3177C32.1694 36.2992 32.2216 36.2918 32.2735 36.2961C32.7491 36.2626 33.2247 36.2626 33.7003 36.2156C34.9261 36.1016 36.1519 36.1687 37.3845 36.0346C38.148 35.9606 38.9149 35.9271 39.682 35.934C40.727 35.934 41.7653 35.7932 42.8102 35.7396C43.2456 35.7396 43.6743 35.7396 44.1097 35.7396C44.9939 35.6859 45.8714 35.6122 46.7489 35.5518C46.8694 35.5451 46.9902 35.5451 47.1106 35.5518C48.3499 35.5518 49.5824 35.4177 50.8216 35.3506C51.2235 35.3506 51.6254 35.3506 52.0273 35.3506C53.0455 35.297 54.0369 35.2098 55.0885 35.1562C55.6177 35.1562 56.1536 35.1562 56.6827 35.1562C56.81 35.1562 56.8703 35.2367 56.9373 35.3238C57.721 36.4235 58.5114 37.5299 59.3085 38.6229C59.7707 39.2934 60.2597 39.8969 60.6884 40.5607C60.7353 40.6345 60.8291 40.6881 60.7621 40.782C60.6951 40.8759 60.6214 40.782 60.5478 40.782C59.476 40.6211 58.4043 40.4735 57.3258 40.2992C56.656 40.1919 55.9861 40.0779 55.256 39.9975C54.7851 39.9643 54.3172 39.8971 53.856 39.7963C53.4206 39.6756 52.9718 39.7359 52.5163 39.6287C51.9603 39.4946 51.3776 39.4811 50.8216 39.3403C50.2656 39.1995 49.569 39.1593 48.946 39.0587C47.8944 38.8911 46.836 38.7503 45.7843 38.5826C45.1145 38.4686 44.4446 38.3479 43.7145 38.2809C43.259 38.2339 42.7968 38.1602 42.3413 38.0931C41.504 37.9724 40.66 37.8517 39.8227 37.7176C38.8246 37.5634 37.8132 37.3555 36.8352 37.2416C36.1653 37.1611 35.4486 37.0471 34.7587 36.9398C34.2212 36.8712 33.6887 36.7682 33.1644 36.6314C32.8909 36.5744 32.613 36.5407 32.3338 36.5308C32.271 36.5365 32.2077 36.528 32.1485 36.5059C32.0894 36.4839 32.036 36.4488 31.9922 36.4034Z" fill="white"/>
</g>
<defs>
<clipPath id="clip0_1035_2052">
<rect width="132.007" height="43.6787" fill="white" transform="translate(0.341797)"/>
</clipPath>
</defs>
</svg>
