<svg width="21" height="18" viewBox="0 0 21 18" fill="none" xmlns="http://www.w3.org/2000/svg">
<path d="M20.1921 14.394C20.2938 14.4951 20.3654 14.6042 20.4061 14.7217C20.4623 14.8843 20.459 15.047 20.396 15.2113C20.3334 15.375 20.2142 15.5152 20.0392 15.6311L19.2139 16.169C18.8906 16.3751 18.5545 16.5458 18.2055 16.6811C17.8566 16.8164 17.4937 16.9234 17.1163 17.0017C16.5092 17.1276 15.8827 17.1739 15.2363 17.1405C14.5898 17.1071 13.9457 17.0009 13.3039 16.8221C12.6621 16.6434 12.0324 16.3965 11.4156 16.0822C10.7987 15.7675 10.2145 15.3953 9.66395 14.965C9.32756 14.7329 8.96544 14.4635 8.57703 14.1571C8.24754 13.8959 7.86537 13.5804 7.42983 13.2104C6.99444 12.8409 6.54035 12.424 6.06691 11.9614C5.58677 11.4997 5.19122 11.0915 4.8808 10.7368C4.57023 10.3816 4.32188 10.0846 4.13683 9.84546C3.92037 9.56626 3.75373 9.3229 3.63704 9.11579C3.34453 8.7469 3.09311 8.37174 2.88333 7.99021C2.67355 7.60868 2.50163 7.22337 2.36717 6.83481C2.19135 6.32673 2.08825 5.82439 2.05703 5.32704C2.02582 4.8297 2.07691 4.35059 2.20922 3.88994C2.34153 3.42928 2.56169 2.99612 2.86971 2.59045C3.17772 2.18478 3.5827 1.82282 4.08436 1.50372L4.90016 0.979117C5.03008 0.900106 5.16902 0.845477 5.31629 0.814922C5.52356 0.771918 5.73199 0.776203 5.94173 0.828199C6.15093 0.880309 6.32764 0.975372 6.47092 1.11404L9.35118 3.89109C9.45337 3.99211 9.52392 4.09969 9.56338 4.21372C9.6214 4.3814 9.6194 4.54794 9.55684 4.71347C9.49428 4.879 9.37416 5.01844 9.19581 5.1315L7.58176 6.16891C7.36845 6.30597 7.2263 6.47126 7.15451 6.66586C7.08326 6.86035 7.08076 7.05416 7.1477 7.2476C7.19856 7.39457 7.2818 7.52532 7.39812 7.64016L12.2697 12.357C12.4592 12.5382 12.6746 12.6555 12.917 12.7089C13.1588 12.7624 13.4031 12.7638 13.6486 12.7128C13.816 12.6781 13.9765 12.6131 14.1302 12.5183L15.7442 11.4809C15.8727 11.4026 16.0104 11.3478 16.1576 11.3172C16.3605 11.2752 16.5679 11.2797 16.7793 11.3313C16.9906 11.383 17.1692 11.4767 17.3147 11.6132L20.1921 14.394Z" fill="#8DC63F"/>
</svg>
