<svg width="128" height="40" viewBox="0 0 128 40" fill="none" xmlns="http://www.w3.org/2000/svg">
<rect width="127.288" height="40" rx="12" fill="#F9F9F9"/>
<rect x="0.5" y="0.5" width="126.288" height="39" rx="11.5" stroke="#777777" stroke-opacity="0.2"/>
<path d="M25.7446 18.3197L29.3285 14.7025L17.9782 8.37959C17.0752 7.87317 15.9766 7.87597 15.0762 8.38697L25.7446 18.3197Z" fill="#EA6212"/>
<path d="M14.0094 9.40314C13.7489 9.83294 13.5996 10.3248 13.5996 10.8461V28.7856C13.5996 29.2907 13.7357 29.7722 13.9816 30.1931L24.71 19.3654L14.0094 9.40314Z" fill="#EA6212"/>
<path d="M34.0804 17.3493L30.6618 15.4455L26.8203 19.3211L31.5282 23.7033L34.0819 22.2809C35.0009 21.7669 35.5511 20.8453 35.5511 19.8144C35.5493 18.7817 34.9839 17.834 34.0804 17.3493Z" fill="#EA6212"/>
<path d="M25.786 20.3668L15.0283 31.2241C15.4825 31.4899 15.9975 31.6315 16.5225 31.6347C17.02 31.6347 17.5205 31.5077 17.9786 31.2521L30.1792 24.4566L25.786 20.3668Z" fill="#EA6212"/>
<path fill-rule="evenodd" clip-rule="evenodd" d="M46.4867 9.20739H45.5698C45.4118 9.04641 45.2236 8.92174 45.0053 8.83339C44.787 8.74505 44.5552 8.70088 44.3099 8.70088C43.8276 8.70088 43.4159 8.86186 43.075 9.18383C42.734 9.50581 42.5635 9.89256 42.5635 10.3441C42.5635 10.7996 42.734 11.1883 43.075 11.5103C43.4159 11.8322 43.8276 11.9932 44.3099 11.9932C44.6592 11.9932 44.9773 11.9039 45.2642 11.7252C45.5511 11.5466 45.7652 11.3081 45.9066 11.0096H43.7298V10.3205L46.7985 10.3264V10.4089C46.7985 11.0411 46.5532 11.5809 46.0625 12.0286C45.5719 12.4762 44.9877 12.7 44.3099 12.7C43.6238 12.7 43.0375 12.4703 42.551 12.0109C42.0645 11.5515 41.8213 10.9959 41.8213 10.3441C41.8213 9.70016 42.0645 9.1485 42.551 8.6891C43.0375 8.2297 43.6238 8 44.3099 8C44.7756 8 45.2008 8.10798 45.5854 8.32393C45.97 8.53989 46.2704 8.83437 46.4867 9.20739ZM49.1209 12.0757C49.3371 12.0757 49.5346 12.0276 49.7134 11.9314C49.8922 11.8352 50.0378 11.7007 50.15 11.5279H50.8985C50.7654 11.8695 50.5347 12.1512 50.2062 12.3731C49.8777 12.5949 49.5159 12.7059 49.1209 12.7059C48.6053 12.7059 48.1625 12.5311 47.7924 12.1817C47.4223 11.8322 47.2373 11.4121 47.2373 10.9213C47.2373 10.4265 47.4203 10.0064 47.7862 9.66087C48.1521 9.31534 48.597 9.14258 49.1209 9.14258C49.6407 9.14258 50.0856 9.31534 50.4557 9.66087C50.8257 10.0064 51.0108 10.4265 51.0108 10.9213L51.0045 11.0862H47.9172C47.9587 11.3571 48.0959 11.5898 48.3288 11.7841C48.5617 11.9785 48.8257 12.0757 49.1209 12.0757ZM50.2557 10.5031H47.9854C48.0851 10.2872 48.238 10.1115 48.4438 9.976C48.6496 9.84054 48.8752 9.7728 49.1205 9.7728C49.3658 9.7728 49.5924 9.8425 49.8004 9.98189C50.0083 10.1213 50.16 10.295 50.2557 10.5031ZM52.5281 9.82581V12.594H51.8108V9.82581H51.2744V9.25451H51.8108V8.09424H52.5281V9.25451H53.0645V9.82581H52.5281ZM55.1384 12.594H55.8557V8.10013H55.1384V12.594ZM57.6912 9.82581V12.594H56.9739V9.82581H56.4375V9.25451H56.9739V8.09424H57.6912V9.25451H58.2276V9.82581H57.6912ZM63.3207 9.6609C62.9506 9.31537 62.5057 9.1426 61.9859 9.1426C61.462 9.1426 61.0171 9.31537 60.6512 9.6609C60.2853 10.0064 60.1023 10.4266 60.1023 10.9213C60.1023 11.4121 60.2873 11.8322 60.6574 12.1817C61.0275 12.5312 61.4703 12.7059 61.9859 12.7059C62.5057 12.7059 62.9506 12.5312 63.3207 12.1817C63.6907 11.8322 63.8758 11.4121 63.8758 10.9213C63.8758 10.4266 63.6907 10.0064 63.3207 9.6609ZM60.7634 10.9213C60.7634 11.2393 60.883 11.5113 61.1221 11.737C61.3612 11.9628 61.6491 12.0757 61.9859 12.0757C62.3227 12.0757 62.6107 11.9628 62.8498 11.737C63.0888 11.5113 63.2084 11.2393 63.2084 10.9213C63.2084 10.6033 63.0899 10.3323 62.8529 10.1085C62.6159 9.88471 62.3269 9.7728 61.9859 9.7728C61.6491 9.7728 61.3612 9.88569 61.1221 10.1115C60.883 10.3372 60.7634 10.6072 60.7634 10.9213ZM66.9833 10.8506V12.594H67.7005V10.8035C67.7005 10.4422 67.6475 10.134 67.5415 9.87879C67.4355 9.62357 67.2525 9.43706 66.9926 9.31927C66.7327 9.20147 66.4864 9.14258 66.2535 9.14258C66.0706 9.14258 65.8918 9.17301 65.7171 9.23387C65.5425 9.29473 65.3907 9.38602 65.2618 9.50774V9.25448H64.5508V12.594H65.2618V10.9095C65.2618 10.6857 65.2899 10.4815 65.346 10.297C65.4021 10.1124 65.4926 9.98481 65.6173 9.91413C65.7421 9.84345 65.8419 9.80026 65.9167 9.78456C65.9916 9.76885 66.0685 9.761 66.1475 9.761C66.3138 9.761 66.4697 9.80026 66.6153 9.87879C66.7608 9.95732 66.8585 10.082 66.9084 10.2528C66.9583 10.4236 66.9833 10.6229 66.9833 10.8506Z" fill="#6E7883"/>
<path fill-rule="evenodd" clip-rule="evenodd" d="M54.052 15.0588H52.0899V24.0241C52.0899 24.6325 52.2583 25.1012 52.5951 25.4299C52.9318 25.7587 53.4077 25.9231 54.0227 25.9231C54.3058 25.9231 54.6231 25.8887 54.9745 25.82C55.326 25.7513 55.6335 25.6532 55.897 25.5256L55.6335 24.0241C55.5065 24.0829 55.3723 24.132 55.2308 24.1713C55.0892 24.2105 54.9599 24.2302 54.8427 24.2302C54.5889 24.2302 54.3937 24.1516 54.257 23.9946C54.1204 23.8376 54.052 23.6168 54.052 23.3322V15.0588ZM42.998 25.8053V15.3533H47.4056C47.8839 15.3533 48.3256 15.4539 48.7307 15.655C49.1359 15.8562 49.4848 16.1212 49.7777 16.45C50.0706 16.7788 50.3 17.1517 50.4659 17.5688C50.6319 17.9859 50.7148 18.4055 50.7148 18.8275C50.7148 19.2691 50.6367 19.6985 50.4806 20.1156C50.3244 20.5327 50.1047 20.9032 49.8216 21.227C49.5385 21.5509 49.1969 21.811 48.7966 22.0073C48.3964 22.2035 47.9571 22.3017 47.4788 22.3017H45.0188V25.8053H42.998ZM45.0188 20.5204H47.3616C47.7326 20.5204 48.0425 20.3683 48.2914 20.0641C48.5404 19.7598 48.6648 19.3476 48.6648 18.8275C48.6648 18.5625 48.6258 18.3245 48.5477 18.1135C48.4696 17.9025 48.3671 17.7234 48.2402 17.5762C48.1133 17.429 47.9644 17.3185 47.7936 17.2449C47.6228 17.1713 47.4495 17.1345 47.2738 17.1345H45.0188V20.5204ZM59.0146 25.9525C58.6436 25.9525 58.2971 25.8912 57.9749 25.7685C57.6528 25.6458 57.3746 25.4741 57.1403 25.2533C56.906 25.0325 56.723 24.7748 56.5912 24.4804C56.4594 24.186 56.3935 23.8621 56.3935 23.5088C56.3935 23.1457 56.474 22.8096 56.6351 22.5004C56.7962 22.1913 57.0207 21.9287 57.3087 21.7128C57.5966 21.4969 57.9408 21.3276 58.341 21.2049C58.7412 21.0823 59.1805 21.0209 59.6589 21.0209C60.0005 21.0209 60.3349 21.0504 60.6619 21.1093C60.9889 21.1681 61.2793 21.2516 61.5331 21.3595V20.9179C61.5331 20.4075 61.3892 20.015 61.1012 19.7402C60.8132 19.4654 60.3861 19.328 59.8199 19.328C59.4099 19.328 59.0097 19.4016 58.6192 19.5488C58.2287 19.696 57.8285 19.9119 57.4185 20.1965L56.8181 18.9452C57.8041 18.2877 58.8681 17.9589 60.0103 17.9589C61.1134 17.9589 61.97 18.2313 62.5801 18.7759C63.1902 19.3206 63.4953 20.1082 63.4953 21.1387V23.5383C63.4953 23.7444 63.5319 23.8916 63.6051 23.9799C63.6783 24.0682 63.7979 24.1173 63.9639 24.1271V25.8053C63.632 25.874 63.344 25.9084 63.0999 25.9084C62.729 25.9084 62.4434 25.825 62.2433 25.6581C62.0432 25.4913 61.9187 25.2705 61.8699 24.9957L61.826 24.5687C61.4843 25.0202 61.0695 25.3637 60.5814 25.5992C60.0933 25.8348 59.571 25.9525 59.0146 25.9525ZM60.5155 24.3332C60.2177 24.451 59.9029 24.5099 59.571 24.5099C59.2 24.5099 58.8877 24.3995 58.6339 24.1786C58.38 23.9578 58.2531 23.6806 58.2531 23.3469C58.2531 22.9936 58.4142 22.7016 58.7364 22.471C59.0585 22.2403 59.4734 22.125 59.981 22.125C60.2348 22.125 60.4984 22.152 60.7717 22.206C61.045 22.26 61.2989 22.3311 61.5331 22.4194V23.3027C61.5331 23.5088 61.4258 23.6953 61.211 23.8621C61.045 24.0584 60.8132 24.2154 60.5155 24.3332ZM65.4703 27.3069C65.6363 27.356 65.7974 27.3928 65.9536 27.4173C66.1097 27.4419 66.2415 27.4541 66.3489 27.4541C66.4758 27.4541 66.593 27.4296 66.7003 27.3805C66.8077 27.3314 66.9053 27.2456 66.9932 27.1229C67.0811 27.0002 67.1689 26.8309 67.2568 26.615C67.3446 26.3991 67.4374 26.1292 67.535 25.8053L64.5039 18.0914H66.5246L68.6039 24.0977L70.4489 18.0914H72.2939L69.0725 27.3364C68.887 27.8761 68.5697 28.3178 68.1207 28.6613C67.6716 29.0048 67.1152 29.1765 66.4514 29.1765C66.2952 29.1765 66.1366 29.1642 65.9755 29.1397C65.8144 29.1152 65.6461 29.0735 65.4703 29.0146V27.3069ZM82.8417 17.8117C83.0223 17.9295 83.1467 18.0227 83.2151 18.0914L84.1083 16.4426C83.6495 16.1286 83.1126 15.8562 82.4976 15.6256C81.8825 15.395 81.209 15.2797 80.4768 15.2797C79.9497 15.2797 79.4567 15.3508 78.9979 15.4931C78.5391 15.6354 78.1364 15.844 77.7899 16.1188C77.4433 16.3936 77.1724 16.7371 76.9772 17.1493C76.782 17.5614 76.6843 18.0325 76.6843 18.5625C76.6843 18.9649 76.7453 19.3108 76.8674 19.6003C76.9894 19.8899 77.1724 20.145 77.4165 20.3658C77.6605 20.5867 77.9656 20.778 78.3317 20.94C78.6977 21.1019 79.1297 21.2516 79.6276 21.389C80.0376 21.5067 80.4085 21.6147 80.7404 21.7128C81.0723 21.811 81.3554 21.9189 81.5897 22.0367C81.824 22.1545 82.0046 22.2919 82.1315 22.4489C82.2584 22.6059 82.3218 22.7973 82.3218 23.023C82.3218 23.7395 81.7654 24.0977 80.6526 24.0977C80.2523 24.0977 79.8618 24.0486 79.4811 23.9505C79.1004 23.8523 78.7539 23.7321 78.4415 23.5898C78.1291 23.4475 77.8582 23.3052 77.6288 23.1629C77.3994 23.0206 77.2408 22.9052 77.1529 22.8169L76.2597 24.5687C76.8649 25.0006 77.5483 25.3342 78.3097 25.5698C79.0711 25.8053 79.8423 25.9231 80.6233 25.9231C81.1309 25.9231 81.6165 25.8667 82.0802 25.7538C82.5439 25.6409 82.9539 25.4618 83.3102 25.2165C83.6665 24.9711 83.9496 24.6497 84.1595 24.2522C84.3694 23.8548 84.4743 23.3763 84.4743 22.8169C84.4743 22.336 84.3962 21.9312 84.2401 21.6024C84.0839 21.2736 83.8618 20.9915 83.5738 20.7559C83.2858 20.5204 82.9344 20.3241 82.5195 20.1671C82.1046 20.0101 81.6434 19.8629 81.1358 19.7255C80.7453 19.6273 80.4012 19.5341 80.1034 19.4458C79.8057 19.3574 79.5592 19.2593 79.364 19.1513C79.1687 19.0434 79.0199 18.9183 78.9174 18.7759C78.8149 18.6336 78.7636 18.4545 78.7636 18.2386C78.7636 17.8657 78.9003 17.5762 79.1736 17.3701C79.447 17.164 79.8618 17.0609 80.4183 17.0609C80.7306 17.0609 81.0381 17.1002 81.3408 17.1787C81.6434 17.2572 81.924 17.3529 82.1827 17.4658C82.4414 17.5786 82.6611 17.6939 82.8417 17.8117ZM90.4912 25.4079C90.2276 25.5256 89.9055 25.6434 89.5247 25.7612C89.144 25.8789 88.7438 25.9378 88.324 25.9378C88.0507 25.9378 87.7944 25.9035 87.5553 25.8348C87.3161 25.7661 87.1062 25.6557 86.9256 25.5035C86.745 25.3514 86.601 25.1551 86.4937 24.9147C86.3863 24.6742 86.3326 24.3823 86.3326 24.0388V19.6077H85.3222V18.0914H86.3326V15.5888H88.2947V18.0914H89.9055V19.6077H88.2947V23.3763C88.2947 23.6511 88.3655 23.845 88.5071 23.9578C88.6486 24.0707 88.8219 24.1271 89.0269 24.1271C89.2319 24.1271 89.432 24.0928 89.6272 24.0241C89.8225 23.9554 89.9787 23.8965 90.0958 23.8474L90.4912 25.4079ZM93.3595 25.6287C93.8573 25.8446 94.4186 25.9525 95.0434 25.9525C95.6682 25.9525 96.2295 25.8446 96.7273 25.6287C97.2252 25.4128 97.6449 25.1208 97.9866 24.7528C98.3283 24.3847 98.5919 23.9603 98.7773 23.4794C98.9628 22.9985 99.0555 22.4931 99.0555 21.9631C99.0555 21.4233 98.9628 20.913 98.7773 20.4321C98.5919 19.9512 98.3258 19.5267 97.9793 19.1587C97.6327 18.7907 97.213 18.4987 96.72 18.2828C96.227 18.0669 95.6682 17.9589 95.0434 17.9589C94.4186 17.9589 93.8573 18.0669 93.3595 18.2828C92.8616 18.4987 92.4394 18.7907 92.0929 19.1587C91.7463 19.5267 91.4803 19.9512 91.2948 20.4321C91.1093 20.913 91.0166 21.4233 91.0166 21.9631C91.0166 22.4931 91.1093 22.9985 91.2948 23.4794C91.4803 23.9603 91.7463 24.3847 92.0929 24.7528C92.4394 25.1208 92.8616 25.4128 93.3595 25.6287ZM93.0381 21.9631C93.0381 22.3066 93.0893 22.6182 93.1918 22.8979C93.2943 23.1776 93.4359 23.4205 93.6165 23.6266C93.7971 23.8327 94.0094 23.9922 94.2534 24.105C94.4975 24.2179 94.7611 24.2743 95.0442 24.2743C95.3273 24.2743 95.5908 24.2179 95.8349 24.105C96.0789 23.9922 96.2912 23.8327 96.4718 23.6266C96.6524 23.4205 96.794 23.1751 96.8965 22.8905C96.999 22.6059 97.0502 22.2919 97.0502 21.9484C97.0502 21.6147 96.999 21.3056 96.8965 21.0209C96.794 20.7363 96.6524 20.491 96.4718 20.2849C96.2912 20.0788 96.0789 19.9193 95.8349 19.8064C95.5908 19.6936 95.3273 19.6371 95.0442 19.6371C94.7611 19.6371 94.4975 19.696 94.2534 19.8138C94.0094 19.9316 93.7971 20.0935 93.6165 20.2996C93.4359 20.5057 93.2943 20.751 93.1918 21.0357C93.0893 21.3203 93.0381 21.6294 93.0381 21.9631ZM103.521 20.145C103.989 19.9242 104.521 19.8089 105.117 19.7991V18.0031C105.068 17.9933 105.017 17.9884 104.963 17.9884H104.721C104.516 17.9884 104.304 18.0301 104.084 18.1135C103.865 18.1969 103.647 18.3171 103.433 18.4742C103.218 18.6312 103.018 18.8152 102.832 19.0262C102.647 19.2372 102.486 19.4752 102.349 19.7402V18.0914H100.548V25.8053H102.51V21.1387C102.715 20.6971 103.052 20.3658 103.521 20.145ZM109.567 25.9525C108.952 25.9525 108.395 25.847 107.897 25.636C107.4 25.425 106.975 25.138 106.623 24.7748C106.272 24.4117 106.001 23.9897 105.811 23.5088C105.62 23.0279 105.525 22.5225 105.525 21.9925C105.525 21.4429 105.618 20.9252 105.803 20.4394C105.989 19.9536 106.257 19.5267 106.609 19.1587C106.96 18.7907 107.387 18.4987 107.89 18.2828C108.393 18.0669 108.957 17.9589 109.581 17.9589C110.206 17.9589 110.765 18.0669 111.258 18.2828C111.751 18.4987 112.171 18.7882 112.517 19.1513C112.864 19.5145 113.127 19.9365 113.308 20.4174C113.489 20.8983 113.579 21.3988 113.579 21.9189C113.579 22.0465 113.576 22.1692 113.571 22.287C113.567 22.4047 113.554 22.5029 113.535 22.5814H107.605C107.634 22.8856 107.707 23.1555 107.824 23.391C107.941 23.6266 108.093 23.8278 108.278 23.9946C108.464 24.1615 108.673 24.289 108.908 24.3774C109.142 24.4657 109.386 24.5099 109.64 24.5099C110.03 24.5099 110.399 24.4142 110.745 24.2228C111.092 24.0314 111.329 23.7787 111.456 23.4647L113.14 23.9357C112.856 24.5246 112.405 25.0079 111.785 25.3858C111.165 25.7636 110.426 25.9525 109.567 25.9525ZM110.921 19.9095C111.297 20.2579 111.509 20.7216 111.558 21.3006H107.575C107.595 21.016 107.661 20.7559 107.773 20.5204C107.885 20.2849 108.029 20.0837 108.205 19.9168C108.381 19.75 108.583 19.62 108.813 19.5267C109.042 19.4335 109.288 19.3869 109.552 19.3869C110.089 19.3869 110.545 19.5611 110.921 19.9095Z" fill="#6E7883"/>
</svg>
