<svg width="132" height="42" viewBox="0 0 132 42" fill="none" xmlns="http://www.w3.org/2000/svg">
<rect x="1" y="1" width="129.578" height="39.348" rx="11" stroke="white" stroke-width="2"/>
<path d="M26.6588 18.9371L30.3635 15.1981L18.6306 8.66207C17.6973 8.13859 16.5616 8.14148 15.6309 8.6697L26.6588 18.9371Z" fill="white"/>
<path d="M14.5281 9.71997C14.2588 10.1643 14.1045 10.6727 14.1045 11.2116V29.7556C14.1045 30.2777 14.2452 30.7754 14.4993 31.2106L25.5893 20.0179L14.5281 9.71997Z" fill="white"/>
<path d="M35.2752 17.9341L31.7415 15.9661L27.7705 19.9723L32.637 24.5022L35.2768 23.0319C36.2268 22.5006 36.7956 21.5479 36.7956 20.4822C36.7937 19.4147 36.2092 18.4351 35.2752 17.9341Z" fill="white"/>
<path d="M26.7013 21.0532L15.5811 32.2764C16.0505 32.5512 16.5829 32.6975 17.1256 32.7008C17.6399 32.7008 18.1573 32.5695 18.6308 32.3054L31.2425 25.2808L26.7013 21.0532Z" fill="white"/>
<path fill-rule="evenodd" clip-rule="evenodd" d="M48.0999 9.51785H47.1522C46.9888 9.35144 46.7944 9.22258 46.5687 9.13125C46.343 9.03993 46.1034 8.99427 45.8498 8.99427C45.3512 8.99427 44.9257 9.16068 44.5733 9.4935C44.2208 9.82632 44.0446 10.2261 44.0446 10.6929C44.0446 11.1637 44.2208 11.5655 44.5733 11.8983C44.9257 12.2312 45.3512 12.3976 45.8498 12.3976C46.2109 12.3976 46.5397 12.3052 46.8363 12.1206C47.1328 11.9359 47.3542 11.6893 47.5003 11.3808H45.2502V10.6685L48.4223 10.6746V10.7598C48.4223 11.4133 48.1687 11.9714 47.6615 12.4341C47.1543 12.8968 46.5504 13.1282 45.8498 13.1282C45.1406 13.1282 44.5346 12.8907 44.0317 12.4158C43.5288 11.941 43.2773 11.3666 43.2773 10.6929C43.2773 10.0272 43.5288 9.45698 44.0317 8.98209C44.5346 8.50721 45.1406 8.26978 45.8498 8.26978C46.3312 8.26978 46.7707 8.38139 47.1683 8.60463C47.5659 8.82786 47.8764 9.13227 48.0999 9.51785ZM50.8223 12.4828C51.0458 12.4828 51.25 12.4331 51.4348 12.3336C51.6196 12.2342 51.77 12.0952 51.8861 11.9166H52.6598C52.5222 12.2697 52.2837 12.5609 51.9441 12.7902C51.6046 13.0196 51.2306 13.1342 50.8223 13.1342C50.2893 13.1342 49.8316 12.9536 49.449 12.5924C49.0665 12.2311 48.8752 11.7968 48.8752 11.2895C48.8752 10.7781 49.0643 10.3438 49.4426 9.98662C49.8208 9.62944 50.2807 9.45086 50.8223 9.45086C51.3596 9.45086 51.8195 9.62944 52.202 9.98662C52.5846 10.3438 52.7758 10.7781 52.7758 11.2895L52.7694 11.46H49.578C49.6209 11.74 49.7628 11.9805 50.0035 12.1814C50.2442 12.3823 50.5171 12.4828 50.8223 12.4828ZM51.9962 10.8572H49.6494C49.7526 10.634 49.9105 10.4524 50.1233 10.3123C50.3361 10.1723 50.5692 10.1023 50.8228 10.1023C51.0764 10.1023 51.3107 10.1743 51.5256 10.3184C51.7405 10.4625 51.8974 10.6421 51.9962 10.8572ZM54.3449 10.1571V13.0186H53.6035V10.1571H53.049V9.56656H53.6035V8.36719H54.3449V9.56656H54.8994V10.1571H54.3449ZM57.0435 13.0185H57.7849V8.37325H57.0435V13.0185ZM59.6826 10.1571V13.0186H58.9412V10.1571H58.3867V9.56656H58.9412V8.36719H59.6826V9.56656H60.2371V10.1571H59.6826ZM65.5015 9.98662C65.1189 9.62944 64.659 9.45086 64.1217 9.45086C63.5802 9.45086 63.1203 9.62944 62.742 9.98662C62.3638 10.3438 62.1747 10.7781 62.1747 11.2895C62.1747 11.7968 62.3659 12.2311 62.7485 12.5924C63.131 12.9536 63.5888 13.1342 64.1217 13.1342C64.659 13.1342 65.1189 12.9536 65.5015 12.5924C65.884 12.2311 66.0753 11.7968 66.0753 11.2895C66.0753 10.7781 65.884 10.3438 65.5015 9.98662ZM62.8574 11.2895C62.8574 11.6183 62.981 11.8993 63.2281 12.1327C63.4753 12.3661 63.7729 12.4828 64.1211 12.4828C64.4693 12.4828 64.7669 12.3661 65.014 12.1327C65.2612 11.8993 65.3848 11.6183 65.3848 11.2895C65.3848 10.9607 65.2623 10.6807 65.0173 10.4493C64.7723 10.218 64.4735 10.1023 64.1211 10.1023C63.7729 10.1023 63.4753 10.219 63.2281 10.4524C62.981 10.6857 62.8574 10.9648 62.8574 11.2895ZM69.2879 11.2165V13.0186H70.0293V11.1678C70.0293 10.7944 69.9745 10.4758 69.8649 10.212C69.7553 9.94813 69.5662 9.75534 69.2976 9.63357C69.0289 9.51181 68.7743 9.45093 68.5336 9.45093C68.3444 9.45093 68.1596 9.48238 67.9791 9.54529C67.7986 9.60821 67.6417 9.70257 67.5084 9.8284V9.5666H66.7734V13.0186H67.5084V11.2774C67.5084 11.046 67.5374 10.835 67.5955 10.6442C67.6535 10.4534 67.747 10.3215 67.8759 10.2485C68.0049 10.1754 68.108 10.1308 68.1854 10.1145C68.2628 10.0983 68.3423 10.0902 68.4239 10.0902C68.5959 10.0902 68.7571 10.1308 68.9075 10.212C69.0579 10.2931 69.1589 10.422 69.2105 10.5986C69.2621 10.7751 69.2879 10.9811 69.2879 11.2165Z" fill="white"/>
<path fill-rule="evenodd" clip-rule="evenodd" d="M55.9208 15.5664H53.8926V24.8337C53.8926 25.4627 54.0666 25.9471 54.4148 26.287C54.7629 26.6269 55.2548 26.7968 55.8906 26.7968C56.1832 26.7968 56.5112 26.7613 56.8744 26.6903C57.2377 26.6192 57.5556 26.5178 57.828 26.3859L57.5556 24.8337C57.4244 24.8946 57.2856 24.9453 57.1393 24.9859C56.993 25.0265 56.8593 25.0468 56.7382 25.0468C56.4758 25.0468 56.274 24.9656 56.1327 24.8033C55.9915 24.641 55.9208 24.4127 55.9208 24.1185V15.5664ZM44.4941 26.6751V15.8708H49.0502C49.5446 15.8708 50.0012 15.9748 50.42 16.1828C50.8388 16.3907 51.1995 16.6647 51.5023 17.0045C51.805 17.3444 52.0421 17.7299 52.2137 18.161C52.3852 18.5922 52.471 19.0259 52.471 19.4621C52.471 19.9186 52.3903 20.3625 52.2288 20.7936C52.0673 21.2248 51.8403 21.6077 51.5477 21.9425C51.255 22.2773 50.9019 22.5461 50.4881 22.749C50.0744 22.9519 49.6203 23.0534 49.1259 23.0534H46.583V26.6751H44.4941ZM46.5831 21.2121H49.0049C49.3883 21.2121 49.7087 21.0548 49.966 20.7403C50.2234 20.4258 50.352 19.9998 50.352 19.4621C50.352 19.1882 50.3117 18.9422 50.2309 18.724C50.1502 18.5059 50.0442 18.3208 49.9131 18.1686C49.7819 18.0164 49.628 17.9023 49.4514 17.8262C49.2748 17.7501 49.0957 17.7121 48.9141 17.7121H46.5831V21.2121ZM61.0501 26.8273C60.6667 26.8273 60.3085 26.7639 59.9755 26.637C59.6425 26.5102 59.3549 26.3327 59.1127 26.1044C58.8705 25.8762 58.6813 25.6099 58.5451 25.3055C58.4088 25.0012 58.3407 24.6664 58.3407 24.3012C58.3407 23.9258 58.424 23.5784 58.5905 23.2588C58.757 22.9392 58.9891 22.6679 59.2867 22.4447C59.5844 22.2215 59.9401 22.0465 60.3539 21.9197C60.7676 21.7929 61.2217 21.7295 61.7161 21.7295C62.0693 21.7295 62.4149 21.7599 62.753 21.8208C63.091 21.8816 63.3912 21.9679 63.6536 22.0795V21.6229C63.6536 21.0954 63.5047 20.6896 63.2071 20.4056C62.9094 20.1215 62.4679 19.9795 61.8826 19.9795C61.4588 19.9795 61.0451 20.0556 60.6414 20.2077C60.2378 20.3599 59.8241 20.5831 59.4003 20.8773L58.7797 19.5838C59.7989 18.9041 60.8988 18.5643 62.0794 18.5643C63.2197 18.5643 64.1051 18.8458 64.7358 19.4088C65.3665 19.9719 65.6818 20.786 65.6818 21.8512V24.3316C65.6818 24.5447 65.7197 24.6968 65.7954 24.7881C65.8711 24.8794 65.9947 24.9302 66.1662 24.9403V26.6751C65.8231 26.7461 65.5254 26.7816 65.2732 26.7816C64.8897 26.7816 64.5946 26.6954 64.3877 26.5229C64.1808 26.3504 64.0522 26.1222 64.0017 25.8381L63.9563 25.3968C63.6031 25.8635 63.1743 26.2186 62.6697 26.462C62.1652 26.7055 61.6253 26.8273 61.0501 26.8273ZM62.602 25.1534C62.2942 25.2752 61.9688 25.336 61.6257 25.336C61.2422 25.336 60.9193 25.2219 60.657 24.9936C60.3946 24.7654 60.2634 24.4788 60.2634 24.1339C60.2634 23.7687 60.4299 23.4668 60.7629 23.2284C61.0959 22.99 61.5248 22.8708 62.0495 22.8708C62.3119 22.8708 62.5843 22.8987 62.8669 22.9545C63.1494 23.0103 63.4118 23.0839 63.654 23.1752V24.0882C63.654 24.3013 63.543 24.494 63.321 24.6665C63.1494 24.8694 62.9098 25.0317 62.602 25.1534ZM67.7244 28.2272C67.8959 28.278 68.0624 28.316 68.2239 28.3414C68.3854 28.3667 68.5216 28.3794 68.6326 28.3794C68.7638 28.3794 68.8848 28.3541 68.9958 28.3033C69.1068 28.2526 69.2078 28.1638 69.2986 28.037C69.3894 27.9102 69.4802 27.7352 69.571 27.512C69.6618 27.2888 69.7577 27.0099 69.8586 26.6751L66.7254 18.7012H68.8142L70.9636 24.9099L72.8707 18.7012H74.7779L71.4479 28.2577C71.2562 28.8157 70.9283 29.2722 70.4641 29.6272C69.9999 29.9823 69.4247 30.1598 68.7385 30.1598C68.5771 30.1598 68.4131 30.1472 68.2466 30.1218C68.0801 30.0964 67.906 30.0533 67.7244 29.9925V28.2272ZM85.6805 18.4122C85.8672 18.5339 85.9959 18.6303 86.0665 18.7013L86.9898 16.9969C86.5155 16.6723 85.9605 16.3908 85.3248 16.1524C84.6891 15.914 83.9928 15.7948 83.236 15.7948C82.6911 15.7948 82.1815 15.8683 81.7072 16.0154C81.233 16.1625 80.8167 16.3781 80.4585 16.6622C80.1003 16.9462 79.8202 17.3013 79.6184 17.7274C79.4166 18.1535 79.3157 18.6404 79.3157 19.1882C79.3157 19.6042 79.3788 19.9618 79.5049 20.2611C79.631 20.5603 79.8202 20.8241 80.0725 21.0524C80.3248 21.2806 80.6401 21.4784 81.0185 21.6458C81.3969 21.8132 81.8435 21.9679 82.3581 22.11C82.7819 22.2317 83.1654 22.3433 83.5085 22.4447C83.8516 22.5462 84.1442 22.6578 84.3864 22.7795C84.6285 22.9013 84.8152 23.0433 84.9464 23.2056C85.0776 23.3679 85.1432 23.5657 85.1432 23.7991C85.1432 24.5397 84.568 24.9099 83.4176 24.9099C83.0039 24.9099 82.6003 24.8592 82.2067 24.7578C81.8132 24.6563 81.455 24.532 81.1321 24.3849C80.8091 24.2378 80.5291 24.0907 80.292 23.9436C80.0549 23.7965 79.8909 23.6773 79.8001 23.586L78.8767 25.3969C79.5024 25.8433 80.2087 26.1882 80.9958 26.4317C81.7829 26.6752 82.5801 26.7969 83.3874 26.7969C83.9121 26.7969 84.4141 26.7386 84.8934 26.6219C85.3728 26.5052 85.7966 26.3201 86.1649 26.0665C86.5332 25.8128 86.8258 25.4806 87.0428 25.0697C87.2597 24.6589 87.3682 24.1643 87.3682 23.586C87.3682 23.0889 87.2875 22.6705 87.126 22.3306C86.9646 21.9908 86.735 21.6991 86.4373 21.4556C86.1397 21.2121 85.7764 21.0092 85.3475 20.8469C84.9187 20.6846 84.4419 20.5324 83.9171 20.3904C83.5135 20.289 83.1578 20.1926 82.85 20.1013C82.5423 20.01 82.2875 19.9085 82.0856 19.7969C81.8838 19.6853 81.7299 19.556 81.624 19.4089C81.518 19.2618 81.4651 19.0766 81.4651 18.8535C81.4651 18.4679 81.6063 18.1687 81.8889 17.9556C82.1714 17.7426 82.6003 17.6361 83.1755 17.6361C83.4984 17.6361 83.8162 17.6766 84.129 17.7578C84.4419 17.839 84.732 17.9379 84.9994 18.0545C85.2668 18.1712 85.4938 18.2904 85.6805 18.4122ZM93.5882 26.2642C93.3158 26.3859 92.9828 26.5077 92.5892 26.6294C92.1957 26.7512 91.782 26.812 91.3481 26.812C91.0655 26.812 90.8006 26.7765 90.5534 26.7055C90.3062 26.6345 90.0892 26.5204 89.9025 26.3631C89.7159 26.2059 89.567 26.003 89.456 25.7544C89.345 25.5059 89.2895 25.2041 89.2895 24.849V20.2686H88.2451V18.7012H89.2895V16.1143H91.3178V18.7012H92.9828V20.2686H91.3178V24.1642C91.3178 24.4483 91.3909 24.6486 91.5373 24.7653C91.6836 24.882 91.8627 24.9403 92.0746 24.9403C92.2865 24.9403 92.4934 24.9048 92.6952 24.8338C92.897 24.7628 93.0585 24.7019 93.1796 24.6512L93.5882 26.2642ZM96.5527 26.4924C97.0673 26.7156 97.6475 26.8272 98.2933 26.8272C98.9392 26.8272 99.5194 26.7156 100.034 26.4924C100.549 26.2692 100.983 25.9674 101.336 25.587C101.689 25.2066 101.961 24.7678 102.153 24.2707C102.345 23.7736 102.441 23.2511 102.441 22.7033C102.441 22.1453 102.345 21.6178 102.153 21.1207C101.961 20.6236 101.686 20.1849 101.328 19.8044C100.97 19.424 100.536 19.1222 100.026 18.899C99.5169 18.6758 98.9392 18.5642 98.2933 18.5642C97.6475 18.5642 97.0673 18.6758 96.5527 18.899C96.038 19.1222 95.6016 19.424 95.2434 19.8044C94.8851 20.1849 94.6102 20.6236 94.4184 21.1207C94.2267 21.6178 94.1309 22.1453 94.1309 22.7033C94.1309 23.2511 94.2267 23.7736 94.4184 24.2707C94.6102 24.7678 94.8851 25.2066 95.2434 25.587C95.6016 25.9674 96.038 26.2692 96.5527 26.4924ZM96.2197 22.7034C96.2197 23.0585 96.2727 23.3806 96.3787 23.6697C96.4846 23.9588 96.6309 24.2099 96.8176 24.423C97.0043 24.636 97.2238 24.8009 97.476 24.9175C97.7283 25.0342 98.0008 25.0925 98.2934 25.0925C98.586 25.0925 98.8585 25.0342 99.1108 24.9175C99.363 24.8009 99.5825 24.636 99.7692 24.423C99.9559 24.2099 100.102 23.9563 100.208 23.6621C100.314 23.3679 100.367 23.0433 100.367 22.6882C100.367 22.3433 100.314 22.0237 100.208 21.7295C100.102 21.4353 99.9559 21.1817 99.7692 20.9686C99.5825 20.7556 99.363 20.5907 99.1108 20.4741C98.8585 20.3574 98.586 20.2991 98.2934 20.2991C98.0008 20.2991 97.7283 20.3599 97.476 20.4817C97.2238 20.6034 97.0043 20.7708 96.8176 20.9839C96.6309 21.1969 96.4846 21.4505 96.3787 21.7447C96.2727 22.0389 96.2197 22.3585 96.2197 22.7034ZM107.056 20.8241C107.54 20.5958 108.09 20.4766 108.706 20.4665V18.6099C108.655 18.5998 108.602 18.5947 108.547 18.5947H108.297C108.085 18.5947 107.866 18.6378 107.639 18.7241C107.412 18.8103 107.187 18.9346 106.965 19.0969C106.743 19.2592 106.536 19.4494 106.345 19.6675C106.153 19.8857 105.986 20.1317 105.845 20.4056V18.7012H103.983V26.6751H106.012V21.8512C106.224 21.3947 106.572 21.0523 107.056 20.8241ZM113.307 26.8272C112.671 26.8272 112.096 26.7182 111.581 26.5C111.066 26.2819 110.627 25.9852 110.264 25.6098C109.901 25.2345 109.621 24.7982 109.424 24.3011C109.227 23.804 109.129 23.2816 109.129 22.7338C109.129 22.1656 109.225 21.6305 109.416 21.1283C109.608 20.6262 109.886 20.1849 110.249 19.8044C110.612 19.424 111.054 19.1222 111.573 18.899C112.093 18.6758 112.676 18.5642 113.322 18.5642C113.967 18.5642 114.545 18.6758 115.055 18.899C115.564 19.1222 115.998 19.4214 116.356 19.7968C116.715 20.1722 116.987 20.6084 117.174 21.1055C117.361 21.6026 117.454 22.12 117.454 22.6577C117.454 22.7895 117.451 22.9164 117.446 23.0381C117.441 23.1598 117.429 23.2613 117.408 23.3424H111.278C111.309 23.6569 111.384 23.9359 111.505 24.1794C111.626 24.4229 111.783 24.6308 111.975 24.8033C112.166 24.9758 112.383 25.1077 112.625 25.199C112.868 25.2903 113.12 25.3359 113.382 25.3359C113.786 25.3359 114.167 25.237 114.525 25.0392C114.883 24.8413 115.128 24.5801 115.259 24.2555L117 24.7424C116.707 25.3511 116.24 25.8508 115.6 26.2413C114.959 26.6319 114.195 26.8272 113.307 26.8272ZM114.706 20.5805C115.095 20.9406 115.314 21.42 115.365 22.0185H111.248C111.268 21.7243 111.336 21.4555 111.452 21.212C111.568 20.9685 111.717 20.7606 111.899 20.5881C112.08 20.4156 112.29 20.2812 112.527 20.1848C112.764 20.0885 113.019 20.0403 113.291 20.0403C113.846 20.0403 114.318 20.2203 114.706 20.5805Z" fill="white"/>
</svg>
