<svg width="18" height="19" viewBox="0 0 18 19" fill="none" xmlns="http://www.w3.org/2000/svg">
<path fill-rule="evenodd" clip-rule="evenodd" d="M3.10505 1.40418C3.67683 1.1817 4.33155 1.02978 5.28969 0.986145C6.24985 0.941793 6.55687 0.931641 9.00108 0.931641C11.4453 0.931641 11.7521 0.942513 12.7117 0.986145C13.6692 1.02906 14.3235 1.1817 14.8964 1.40418C15.4875 1.63393 15.9899 1.94137 16.49 2.44227C16.9902 2.94318 17.2978 3.4448 17.5282 4.03657C17.7507 4.60832 17.9026 5.26294 17.9462 6.22112C17.9898 7.18074 18 7.48753 18 9.93164C18 12.3758 17.9898 12.6818 17.9462 13.6422C17.9033 14.6003 17.7507 15.2546 17.5282 15.8267C17.2978 16.4185 16.991 16.9209 16.49 17.421C15.9891 17.9211 15.4875 18.2287 14.8957 18.4591C14.3235 18.6816 13.6692 18.8335 12.711 18.8771C11.7514 18.9215 11.4446 18.9316 9.00036 18.9316C6.55615 18.9316 6.24985 18.9208 5.28969 18.8771C4.33155 18.8335 3.67791 18.6816 3.10505 18.4591C2.5129 18.2287 2.01154 17.9209 1.51069 17.421C1.00984 16.9211 0.702316 16.4185 0.472555 15.8267C0.250066 15.2546 0.0981402 14.6003 0.0545065 13.6422C0.0101527 12.6825 0 12.3758 0 9.93164C0 7.48753 0.0101527 7.18074 0.0545065 6.22112C0.0981402 5.26302 0.250066 4.60868 0.472555 4.03657C0.702316 3.44444 1.00977 2.94238 1.51069 2.44227C2.01162 1.94216 2.5129 1.63393 3.10505 1.40418ZM8.99946 6.43164C7.06665 6.43164 5.5 7.99874 5.5 9.93164C5.5 11.8645 7.06665 13.4316 8.99946 13.4316C10.9326 13.4316 12.5 11.8642 12.5 9.93164C12.5 7.99905 10.9326 6.43164 8.99946 6.43164ZM3.5 9.93164C3.5 6.89457 5.96168 4.43164 8.99946 4.43164C12.0369 4.43164 14.5 6.89425 14.5 9.93164C14.5 12.969 12.0369 15.4316 8.99946 15.4316C5.96168 15.4316 3.5 12.9687 3.5 9.93164Z" fill="#89163B"/>
</svg>
