<svg width="104" height="44" viewBox="0 0 104 44" fill="none" xmlns="http://www.w3.org/2000/svg">
<path d="M1.51055 17.6254L9.8382 31.4123C9.8382 31.4123 14.8591 26.1041 12.3462 17.0512C9.83333 7.99832 4.58837 8.45676 4.58837 8.45676C4.58837 8.45676 0.419671 8.69804 0.0252032 12.4186C-0.228035 14.8507 1.51055 17.6254 1.51055 17.6254Z" fill="url(#paint0_linear_1037_2069)"/>
<path d="M22.8533 35.2088L30.2577 21.3406C30.2577 21.3406 22.7702 19.843 16.4326 26.4933C10.095 33.1436 13.2025 37.2146 13.2025 37.2146C13.2025 37.2146 15.3715 40.8744 19.2282 39.067C21.3944 38.0519 22.8533 35.2088 22.8533 35.2088Z" fill="url(#paint1_linear_1037_2069)"/>
<path d="M26.9145 8.29051L10.9402 8.3278C10.9402 8.3278 13.1984 15.7507 22.1983 18.2279C31.1981 20.705 33.349 15.9661 33.349 15.9661C33.349 15.9661 35.5828 12.2653 32.111 9.68137C30.161 8.23005 26.9145 8.29051 26.9145 8.29051Z" fill="url(#paint2_linear_1037_2069)"/>
<path fill-rule="evenodd" clip-rule="evenodd" d="M82.9524 22.5408H85.2418V11.4756H82.9524V22.5408ZM84.1172 11.0665C84.9205 11.0665 85.5631 10.4239 85.5631 9.60052C85.5631 8.77715 84.9205 8.13452 84.1172 8.13452C83.2938 8.13452 82.6512 8.77715 82.6512 9.60052C82.6512 10.4239 83.2938 11.0665 84.1172 11.0665ZM44.4438 18.6449C44.4438 19.8096 43.8614 20.6531 42.6364 20.6531C41.4114 20.6531 40.8491 19.8096 40.829 18.6449H38.5195C38.5195 21.1752 40.2265 22.6814 42.6364 22.6814C45.0462 22.6814 46.7532 21.1752 46.7532 18.6449V8.58373H44.4438V18.6449ZM49.3127 16.958C49.3127 20.3719 51.6222 22.7215 54.4939 22.7215C56.3415 22.7215 57.6669 21.8379 58.3698 20.8941V22.5408H60.6792V11.4756H58.3698V13.0821C57.687 12.1784 56.4017 11.2948 54.5341 11.2948C51.6222 11.2948 49.3127 13.544 49.3127 16.958ZM58.3698 16.9981C58.3698 19.3879 56.7431 20.7334 55.0161 20.7334C53.3091 20.7334 51.6623 19.3477 51.6623 16.958C51.6623 14.5682 53.3091 13.2829 55.0161 13.2829C56.7431 13.2829 58.3698 14.6284 58.3698 16.9981ZM65.5739 11.4756V13.1022C66.2768 12.1784 67.6223 11.2948 69.4297 11.2948C72.3416 11.2948 74.631 13.544 74.631 16.958C74.631 20.3719 72.3416 22.7215 69.4297 22.7215C67.6022 22.7215 66.2969 21.7978 65.5739 20.9342V26.2169H63.2846V11.4756H65.5739ZM68.9276 20.7334C70.6547 20.7334 72.3014 19.3477 72.3014 16.958C72.3014 14.5682 70.6547 13.2829 68.9276 13.2829C67.2207 13.2829 65.5739 14.6284 65.5739 16.9981C65.5739 19.3879 67.2207 20.7334 68.9276 20.7334ZM97.9673 22.5408H95.698V16.3555C95.698 14.3272 94.5935 13.2829 92.9266 13.2829C91.2397 13.2829 90.1352 14.3272 90.1352 16.3555V22.5408H87.8459V11.4756H90.1352V12.7407C90.8783 11.837 92.1033 11.2948 93.4287 11.2948C96.0193 11.2948 97.9673 12.9215 97.9673 16.0141V22.5408ZM100.486 22.5408H102.775V11.4756H100.486V22.5408ZM101.651 11.0665C102.454 11.0665 103.097 10.4239 103.097 9.60052C103.097 8.77715 102.454 8.13452 101.651 8.13452C100.827 8.13452 100.185 8.77715 100.185 9.60052C100.185 10.4239 100.827 11.0665 101.651 11.0665ZM76.891 11.8276V9.14816H79.2727V11.8276H81.2575V13.7793H79.2727V22.1152H76.891V13.9447H74.9062V11.8276H76.891ZM60.5128 38.8433H59.1636V32.7425C59.1636 30.3765 57.8731 29.1642 55.9177 29.1642C53.9233 29.1642 52.5349 30.4156 52.5349 33.0163V38.8433H51.1662V28.167H52.5349V29.9855C53.2193 28.6558 54.5881 27.9714 56.1719 27.9714C58.5966 27.9714 60.5128 29.4575 60.5128 32.5861V38.8433ZM47.4692 32.9185C47.5278 30.4352 45.7289 29.1838 43.754 29.1838C41.8182 29.1838 40.117 30.4352 39.9606 32.9185H47.4692ZM47.2541 35.4605H48.7011C48.2122 37.4745 46.4915 38.9997 43.8126 38.9997C40.7818 38.9997 38.5723 36.8879 38.5723 33.5051C38.5723 30.1028 40.7427 28.0105 43.8126 28.0105C46.9412 28.0105 48.8575 30.2397 48.8575 32.9576C48.8575 33.3878 48.8575 33.6615 48.8184 34.0331H39.9606C40.0779 36.5359 41.8182 37.846 43.8126 37.846C45.6311 37.846 46.863 36.8879 47.2541 35.4605ZM67.9004 29.1838C69.8754 29.1838 71.6743 30.4352 71.6156 32.9185H64.107C64.2635 30.4352 65.9646 29.1838 67.9004 29.1838ZM72.8475 35.4605H71.4006C71.0095 36.8879 69.7776 37.846 67.9591 37.846C65.9646 37.846 64.2244 36.5359 64.107 34.0331H72.9648C73.0039 33.6615 73.004 33.3878 73.004 32.9576C73.004 30.2397 71.0877 28.0105 67.9591 28.0105C64.8892 28.0105 62.7187 30.1028 62.7187 33.5051C62.7187 36.8879 64.9283 38.9997 67.9591 38.9997C70.638 38.9997 72.3587 37.4745 72.8475 35.4605ZM79.9664 29.3989C78.187 29.3989 76.6814 30.2006 76.6814 32.8794V38.8433H75.3127V28.167H76.6814V30.0637C77.268 28.7536 78.4999 27.9714 80.3379 27.9714V29.3989H79.9664ZM81.5758 33.4856C81.5758 36.8292 83.7462 38.9997 86.6793 38.9997C88.7911 38.9997 90.2772 37.846 90.9029 36.4773V38.0601C90.9029 40.4847 89.319 41.8339 87.2854 41.8339C85.3301 41.8339 83.9809 40.8367 83.5311 39.3897H82.1819C82.6121 41.6188 84.5284 43.0267 87.2854 43.0267C90.2185 43.0267 92.2716 41.0518 92.2716 38.0601V28.167H90.9029V30.4939C90.2967 29.1447 88.7911 28.0105 86.6793 28.0105C83.7462 28.0105 81.5758 30.1419 81.5758 33.4856ZM90.9029 33.5051C90.9029 36.1644 89.1235 37.8069 86.9335 37.8069C84.6848 37.8069 82.9641 36.184 82.9641 33.4856C82.9641 30.7676 84.6848 29.2033 86.9335 29.2033C89.1235 29.2033 90.9029 30.8458 90.9029 33.5051ZM95.4355 28.167L99.0725 37.279L102.592 28.167H104L98.1931 42.2831H96.7657L98.3099 38.7846L93.9299 28.167H95.4355Z" fill="#58595B"/>
<defs>
<linearGradient id="paint0_linear_1037_2069" x1="2.42083" y1="26.7114" x2="14.5612" y2="10.3011" gradientUnits="userSpaceOnUse">
<stop offset="0.645833" stop-color="#00B0F0"/>
<stop offset="1" stop-color="#B2D235"/>
</linearGradient>
<linearGradient id="paint1_linear_1037_2069" x1="16.4664" y1="37.5679" x2="32.764" y2="19.2778" gradientUnits="userSpaceOnUse">
<stop offset="0.432166" stop-color="#00B0F0"/>
<stop offset="0.879419" stop-color="#B2D235"/>
</linearGradient>
<linearGradient id="paint2_linear_1037_2069" x1="5.95677" y1="18.0477" x2="33.968" y2="13.6106" gradientUnits="userSpaceOnUse">
<stop stop-color="#00B0F0"/>
<stop offset="0.553545" stop-color="#B2D235"/>
</linearGradient>
</defs>
</svg>
