<svg width="149" height="49" viewBox="0 0 149 49" fill="none" xmlns="http://www.w3.org/2000/svg">
<g clip-path="url(#clip0_1032_1744)">
<path d="M106.47 16.3979V18.9513H109.795V21.0926H106.47V25.6231H104.188V14.2566H110.455V16.3979H106.47Z" fill="#9ACA46"/>
<path d="M111.115 19.9395C111.115 16.5955 113.695 14.0589 117.134 14.0589C120.558 14.0589 123.155 16.5955 123.155 19.9395C123.155 23.2834 120.559 25.8207 117.134 25.8207C113.695 25.8207 111.115 23.2834 111.115 19.9395ZM120.807 19.9395C120.807 17.8303 119.219 16.2491 117.135 16.2491C115.035 16.2491 113.447 17.8303 113.447 19.9395C113.447 22.0479 115.035 23.6298 117.135 23.6298C119.219 23.6298 120.807 22.0479 120.807 19.9395Z" fill="#9ACA46"/>
<path d="M124.078 19.9395C124.078 16.5955 126.658 14.0589 130.097 14.0589C133.521 14.0589 136.117 16.5955 136.117 19.9395C136.117 23.2834 133.521 25.8207 130.097 25.8207C126.658 25.8207 124.078 23.2834 124.078 19.9395ZM133.769 19.9395C133.769 17.8303 132.182 16.2491 130.097 16.2491C127.998 16.2491 126.41 17.8303 126.41 19.9395C126.41 22.0479 127.998 23.6298 130.097 23.6298C132.182 23.6298 133.769 22.0479 133.769 19.9395Z" fill="#9ACA46"/>
<path d="M147.89 19.9395C147.89 23.185 145.393 25.6231 142.069 25.6231H137.604V14.2566H142.069C145.393 14.2566 147.89 16.694 147.89 19.9395ZM145.541 19.9395C145.541 17.9134 144.037 16.3979 142.019 16.3979H139.884V23.4811H142.019C144.037 23.4811 145.541 21.9663 145.541 19.9395Z" fill="#9ACA46"/>
<path d="M147.127 39.9431H115.888C115.327 39.9431 114.871 39.4899 114.871 38.9291V29.1982C114.871 28.6381 115.327 28.1841 115.888 28.1841H147.127C147.689 28.1841 148.145 28.6374 148.145 29.1982V38.9291C148.145 39.4899 147.689 39.9431 147.127 39.9431Z" fill="#9ACA46"/>
<path d="M119.429 35.2059H119.298V37.7823H118.1V30.8646H120.446C121.744 30.8646 122.731 31.8068 122.731 33.0597C122.731 34.1632 121.945 35.0054 120.868 35.1751L122.891 37.7823H121.392L119.429 35.2059ZM119.298 34.1632H120.425C121.04 34.1632 121.492 33.6917 121.492 33.0702C121.492 32.4486 121.04 31.987 120.425 31.987H119.298V34.1632Z" fill="white"/>
<path d="M129.13 35.657H124.883C125.044 36.3987 125.647 36.8904 126.424 36.8904C127.077 36.8904 127.611 36.5894 127.832 36.1585H129.061C128.688 37.1907 127.682 37.9024 126.413 37.9024C124.854 37.9024 123.676 36.7493 123.676 35.2254C123.676 33.7008 124.854 32.5485 126.413 32.5485C127.984 32.5485 129.162 33.7008 129.162 35.2352C129.161 35.3463 129.151 35.5362 129.13 35.657ZM124.893 34.7338H127.943C127.762 34.0319 127.157 33.5604 126.412 33.5604C125.668 33.5604 125.084 34.0326 124.893 34.7338Z" fill="white"/>
<path d="M133.126 33.6917H132.029V37.7816H130.902V33.6917H129.865V32.6686H130.902V31.4059L132.029 31.1649V32.6686H133.126V33.6917Z" fill="white"/>
<path d="M139.287 32.6686V37.7823H138.16V36.9903C137.747 37.5518 137.113 37.9031 136.358 37.9031C134.908 37.9031 133.832 36.7507 133.832 35.2261C133.832 33.7022 134.908 32.5491 136.358 32.5491C137.113 32.5491 137.747 32.9004 138.16 33.4619V32.67H139.287V32.6686ZM138.16 35.2254C138.16 34.3231 137.485 33.6317 136.579 33.6317C135.663 33.6317 134.989 34.3231 134.989 35.2254C134.989 36.1278 135.663 36.8199 136.579 36.8199C137.485 36.8199 138.16 36.1278 138.16 35.2254Z" fill="white"/>
<path d="M140.816 31.0951C140.816 30.6837 141.128 30.3827 141.532 30.3827C141.944 30.3827 142.255 30.6837 142.255 31.0951C142.255 31.4966 141.944 31.8067 141.532 31.8067C141.128 31.8067 140.816 31.4966 140.816 31.0951ZM140.967 32.6685H142.095V37.7822H140.967V32.6685Z" fill="white"/>
<path d="M144.901 30.5637H143.773V37.7817H144.901V30.5637Z" fill="white"/>
<path d="M110.124 37.7816L109.685 37.262C109.094 37.7411 108.367 37.9451 107.585 37.9451C105.527 37.9451 104.168 36.7019 104.168 34.856C104.168 33.6254 104.84 32.8739 105.636 32.3271C105.225 31.6846 104.964 31.0288 104.964 30.3862C104.964 29.1151 106.034 28.1855 107.42 28.1855C108.82 28.1855 109.904 29.1012 109.904 30.3723C109.904 31.4527 109.122 32.0952 108.216 32.6553L109.753 34.4733C109.781 34.3364 109.795 34.1995 109.795 34.0494V33.0925H111.633V34.0494C111.633 34.8148 111.414 35.4986 111.071 36.0587L112.525 37.7809H110.124V37.7816ZM108.573 35.9497L106.666 33.6813C106.336 33.9816 106.117 34.3371 106.117 34.8015C106.117 35.567 106.762 36.1411 107.681 36.1411C107.996 36.1418 108.313 36.0726 108.573 35.9497ZM106.789 30.3869C106.789 30.6879 106.94 31.0295 107.215 31.4122C107.709 31.1112 108.065 30.7829 108.065 30.3597C108.065 30.0035 107.777 29.7444 107.42 29.7444C107.077 29.7451 106.789 29.977 106.789 30.3869Z" fill="#9ACA46"/>
<path d="M1.32031 32.4479H4.64526C4.64526 35.0899 6.62606 37.0636 9.27859 37.0636C11.9311 37.0636 13.9126 35.0899 13.9126 32.4479V15.4313H17.1667V32.4479C17.1667 36.852 13.7359 40.1645 9.24353 40.1645C4.71608 40.1638 1.32031 36.852 1.32031 32.4479Z" fill="#25A9E0"/>
<path d="M37.3624 21.7728V39.7413H34.32V36.324C32.8349 38.6846 30.3233 40.1638 27.3167 40.1638C22.1519 40.1638 18.2969 36.1124 18.2969 30.757C18.2969 25.4017 22.1519 21.3502 27.3167 21.3502C30.3226 21.3502 32.8342 22.8301 34.32 25.19V21.7728H37.3624ZM34.32 30.757C34.32 27.0576 31.5616 24.2737 27.8826 24.2737C24.1685 24.2737 21.4094 27.0569 21.4094 30.757C21.4094 34.4558 24.1678 37.2396 27.8826 37.2396C31.5616 37.2396 34.32 34.4558 34.32 30.757Z" fill="#25A9E0"/>
<path d="M58.9743 30.757C58.9743 36.1123 55.0835 40.1638 49.9194 40.1638C46.9121 40.1638 44.4012 38.6846 42.9154 36.3233V46.4354H39.873V21.7728H42.9154V25.19C44.4012 22.8294 46.9121 21.3502 49.9194 21.3502C55.0835 21.3502 58.9743 25.4017 58.9743 30.757ZM55.826 30.757C55.826 27.0576 53.0676 24.2737 49.3535 24.2737C45.6745 24.2737 42.9161 27.0569 42.9161 30.757C42.9161 34.4557 45.6745 37.2396 49.3535 37.2396C53.0669 37.2396 55.826 34.4557 55.826 30.757Z" fill="#25A9E0"/>
<path d="M68.9485 24.5203H64.8101V39.7406H61.7678V24.5203H57.877V21.7728H61.7678V17.0865H64.8101V21.7728H68.9485V24.5203Z" fill="#25A9E0"/>
<path d="M69.7051 16.1709C69.7051 15.0081 70.5893 14.1623 71.7574 14.1623C72.8891 14.1623 73.7726 15.0081 73.7726 16.1709C73.7726 17.2988 72.8884 18.1795 71.7574 18.1795C70.59 18.1788 69.7051 17.2981 69.7051 16.1709ZM70.2359 21.7728H73.2782V39.7413H70.2359V21.7728Z" fill="#25A9E0"/>
<path d="M92.6281 28.643V39.7406H89.5857V29.5942C89.5857 26.3885 87.5341 24.2738 84.3157 24.2738C80.9908 24.2738 78.7975 26.4235 78.7975 29.6647V39.7406H75.7559V21.7728H78.7975V24.6614C80.1774 22.548 82.4766 21.3495 85.3058 21.3495C89.693 21.3495 92.6281 24.2388 92.6281 28.643Z" fill="#25A9E0"/>
<path d="M94.3594 16.1709C94.3594 15.0081 95.2443 14.1623 96.4117 14.1623C97.5434 14.1623 98.4276 15.0081 98.4276 16.1709C98.4276 17.2988 97.5434 18.1795 96.4117 18.1795C95.2443 18.1788 94.3594 17.2981 94.3594 16.1709ZM94.8902 21.7728H97.9326V39.7413H94.8902V21.7728Z" fill="#25A9E0"/>
<path d="M40.1853 10.3839C39.3636 8.56667 38.1281 7.47925 38.1281 7.47925C33.2677 14.1113 37.61 19.4534 38.0286 19.9395C37.957 18.8751 37.8582 14.684 40.1853 10.3839Z" fill="#9ACA46"/>
<path d="M51.171 2.53931C45.516 4.56607 41.7402 8.08881 39.9438 13.0153C38.878 15.9389 38.8549 18.5432 38.9019 19.5985C43.7245 18.4252 47.21 16.1735 49.2659 12.898C51.8833 8.72855 51.4129 4.03808 51.171 2.53931Z" fill="#9ACA46"/>
</g>
<defs>
<clipPath id="clip0_1032_1744">
<rect width="148.508" height="47.5613" fill="white" transform="translate(0.337891 0.913574)"/>
</clipPath>
</defs>
</svg>
