<svg width="18" height="19" viewBox="0 0 18 19" fill="none" xmlns="http://www.w3.org/2000/svg">
<g clip-path="url(#clip0_1154_737)">
<mask id="path-1-inside-1_1154_737" fill="white">
<path d="M17.9959 18.9316V18.9308H18.0004V12.3293C18.0004 9.09981 17.3052 6.61206 13.5297 6.61206C11.7147 6.61206 10.4967 7.60806 9.99944 8.55231H9.94694V6.91356H6.36719V18.9308H10.0947V12.9803C10.0947 11.4136 10.3917 9.89856 12.3319 9.89856C14.2437 9.89856 14.2722 11.6866 14.2722 13.0808V18.9316H17.9959Z"/>
</mask>
<path d="M17.9959 18.9316V18.9308H18.0004V12.3293C18.0004 9.09981 17.3052 6.61206 13.5297 6.61206C11.7147 6.61206 10.4967 7.60806 9.99944 8.55231H9.94694V6.91356H6.36719V18.9308H10.0947V12.9803C10.0947 11.4136 10.3917 9.89856 12.3319 9.89856C14.2437 9.89856 14.2722 11.6866 14.2722 13.0808V18.9316H17.9959Z" fill="#89163B"/>
<path d="M17.9959 18.9316V40.2649H39.3293V18.9316H17.9959ZM17.9959 18.9308V-2.40251H-3.3374V18.9308H17.9959ZM18.0004 18.9308V40.2642H39.3338V18.9308H18.0004ZM9.99944 8.55231V29.8856H22.8757L28.8754 18.4926L9.99944 8.55231ZM9.94694 8.55231H-11.3864V29.8856H9.94694V8.55231ZM9.94694 6.91356H31.2803V-14.4198H9.94694V6.91356ZM6.36719 6.91356V-14.4198H-14.9661V6.91356H6.36719ZM6.36719 18.9308H-14.9661V40.2642H6.36719V18.9308ZM10.0947 18.9308V40.2642H31.428V18.9308H10.0947ZM14.2722 18.9316H-7.06115V40.2649H14.2722V18.9316ZM39.3293 18.9316V18.9308H-3.3374V18.9316H39.3293ZM17.9959 40.2642H18.0004V-2.40251H17.9959V40.2642ZM39.3338 18.9308V12.3293H-3.3329V18.9308H39.3338ZM39.3338 12.3293C39.3338 10.2494 39.3473 3.42616 35.234 -3.10688C29.6969 -11.9013 20.6842 -14.7213 13.5297 -14.7213V27.9454C12.2046 27.9454 9.63793 27.7346 6.6537 26.3144C3.43616 24.7832 0.860343 22.3779 -0.872207 19.6261C-2.44616 17.1263 -2.97153 14.9133 -3.16073 13.866C-3.35087 12.8134 -3.3329 12.176 -3.3329 12.3293H39.3338ZM13.5297 -14.7213C3.44072 -14.7213 -4.85795 -9.01903 -8.87654 -1.38793L28.8754 18.4926C25.8513 24.2352 19.9887 27.9454 13.5297 27.9454V-14.7213ZM9.99944 -12.781H9.94694V29.8856H9.99944V-12.781ZM31.2803 8.55231V6.91356H-11.3864V8.55231H31.2803ZM9.94694 -14.4198H6.36719V28.2469H9.94694V-14.4198ZM-14.9661 6.91356V18.9308H27.7005V6.91356H-14.9661ZM6.36719 40.2642H10.0947V-2.40251H6.36719V40.2642ZM31.428 18.9308V12.9803H-11.2386V18.9308H31.428ZM31.428 12.9803C31.428 13.1698 31.4266 14.026 31.2351 15.2187C31.0496 16.3744 30.5709 18.607 29.168 21.1517C27.6416 23.9203 25.1471 26.8022 21.4986 28.8226C17.9733 30.7748 14.6202 31.2319 12.3319 31.2319V-11.4348C9.07358 -11.4348 4.95574 -10.7883 0.829009 -8.50311C-3.42084 -6.1497 -6.35338 -2.79105 -8.19652 0.552148C-11.3292 6.23431 -11.2386 11.8068 -11.2386 12.9803H31.428ZM12.3319 31.2319C9.40484 31.2319 5.25874 30.5027 1.23579 27.6963C-2.74149 24.9217 -4.80842 21.3645 -5.81505 18.8232C-6.7475 16.4692 -6.95095 14.5631 -7.01058 13.8967C-7.07381 13.1901 -7.06115 12.6753 -7.06115 13.0808H35.6055C35.6055 12.7892 35.6146 11.5281 35.4863 10.0941C35.3616 8.70031 35.0315 6.08576 33.853 3.11046C32.6003 -0.0521393 30.1678 -4.14339 25.6474 -7.29682C21.0815 -10.4821 16.2149 -11.4348 12.3319 -11.4348V31.2319ZM-7.06115 13.0808V18.9316H35.6055V13.0808H-7.06115ZM14.2722 40.2649H17.9959V-2.40176H14.2722V40.2649Z" fill="#89163B" mask="url(#path-1-inside-1_1154_737)"/>
<path d="M0.296875 6.91431H4.02888V18.9316H0.296875V6.91431Z" fill="#89163B"/>
<path d="M2.1615 0.931641C0.96825 0.931641 0 1.89989 0 3.09314C0 4.28639 0.96825 5.27489 2.1615 5.27489C3.35475 5.27489 4.323 4.28639 4.323 3.09314C4.32225 1.89989 3.354 0.931641 2.1615 0.931641V0.931641Z" fill="#89163B"/>
</g>
<defs>
<clipPath id="clip0_1154_737">
<rect width="18" height="18" fill="white" transform="translate(0 0.931641)"/>
</clipPath>
</defs>
</svg>
