<svg width="17" height="18" viewBox="0 0 17 18" fill="none" xmlns="http://www.w3.org/2000/svg">
<path d="M15.6539 3.08241C14.2431 1.19719 11.7372 0.0454395 8.95058 0.00142383C8.83163 -0.000474609 8.7119 -0.000474609 8.5929 0.00142383C5.80632 0.0454395 3.30042 1.19719 1.88956 3.08241C0.447463 5.0094 0.408008 7.32408 1.784 9.27424L7.54853 17.4441C7.55112 17.4477 7.55371 17.4513 7.55638 17.4549C7.81001 17.7963 8.26436 18 8.77183 18C9.27926 18 9.73361 17.7962 9.98718 17.4549C9.98986 17.4513 9.99245 17.4477 9.99504 17.4441L15.7596 9.27424C17.1355 7.32408 17.096 5.0094 15.6539 3.08241V3.08241ZM8.77174 8.15627C6.96918 8.15627 5.50271 7.02076 5.50271 5.62502C5.50271 4.22928 6.96918 3.09377 8.77174 3.09377C10.5743 3.09377 12.0408 4.22928 12.0408 5.62502C12.0408 7.02076 10.5743 8.15627 8.77174 8.15627Z" fill="#8DC63F"/>
</svg>
