<svg width="16" height="16" viewBox="0 0 16 16" fill="none" xmlns="http://www.w3.org/2000/svg">
<path fill-rule="evenodd" clip-rule="evenodd" d="M7.85116 8.9765C7.40516 8.9765 6.96049 8.82916 6.58849 8.5345L3.59849 6.12383C3.38316 5.9505 3.34982 5.63516 3.52249 5.4205C3.69649 5.2065 4.01116 5.1725 4.22582 5.34516L7.21316 7.75316C7.58849 8.0505 8.11716 8.0505 8.49516 7.7505L11.4525 5.3465C11.6672 5.17116 11.9818 5.2045 12.1565 5.41916C12.3305 5.63316 12.2978 5.94783 12.0838 6.1225L9.12116 8.5305C8.74649 8.82783 8.29849 8.9765 7.85116 8.9765Z" fill="#89163B"/>
<mask id="mask0_1154_698" style="mask-type:alpha" maskUnits="userSpaceOnUse" x="0" y="1" width="15" height="14">
<path d="M0.666016 1.33325H14.9993V14.3333H0.666016V1.33325Z" fill="white"/>
</mask>
<g mask="url(#mask0_1154_698)">
<path fill-rule="evenodd" clip-rule="evenodd" d="M4.55868 13.3333H11.1053C11.1067 13.3319 11.112 13.3333 11.116 13.3333C11.8767 13.3333 12.5513 13.0613 13.0687 12.5446C13.6693 11.9466 13.9993 11.0873 13.9993 10.1253V5.54659C13.9993 3.68459 12.782 2.33325 11.1053 2.33325H4.56002C2.88335 2.33325 1.66602 3.68459 1.66602 5.54659V10.1253C1.66602 11.0873 1.99668 11.9466 2.59668 12.5446C3.11402 13.0613 3.78935 13.3333 4.54935 13.3333H4.55868ZM4.54735 14.3333C3.51868 14.3333 2.60002 13.9599 1.89068 13.2533C1.10068 12.4653 0.666016 11.3546 0.666016 10.1253V5.54659C0.666016 3.14459 2.34002 1.33325 4.56002 1.33325H11.1053C13.3253 1.33325 14.9993 3.14459 14.9993 5.54659V10.1253C14.9993 11.3546 14.5647 12.4653 13.7747 13.2533C13.066 13.9593 12.1467 14.3333 11.116 14.3333H11.1053H4.56002H4.54735Z" fill="#89163B"/>
</g>
</svg>
