<svg width="24" height="18" viewBox="0 0 24 18" fill="none" xmlns="http://www.w3.org/2000/svg">
<g clip-path="url(#clip0_313_1319)">
<path d="M23.1898 3.57617L16.1396 9.00004L23.1898 14.4239C23.3173 14.2177 23.3946 13.9896 23.3946 13.7461V4.25395C23.3946 4.01042 23.3173 3.78243 23.1898 3.57617Z" fill="#8DC63F"/>
<path d="M21.3519 2.67188H2.19174C1.87723 2.67188 1.58279 2.73175 1.31641 2.83043L10.3273 9.7725C11.124 10.3894 12.4196 10.3894 13.2164 9.7725L22.2272 2.83043C21.9608 2.73175 21.6664 2.67188 21.3519 2.67188Z" fill="#8DC63F"/>
<path d="M0.353206 3.57617C0.225759 3.78243 0.148438 4.01042 0.148438 4.25395V13.7461C0.148438 13.9897 0.225759 14.2177 0.353206 14.4239L7.40338 9.00004L0.353206 3.57617Z" fill="#8DC63F"/>
<path d="M15.1771 9.74609L14.1794 10.5186C12.8519 11.5465 10.6917 11.5465 9.36417 10.5186L8.36657 9.74609L1.31641 15.17C1.58279 15.2686 1.87723 15.3285 2.19174 15.3285H21.3519C21.6664 15.3285 21.9608 15.2686 22.2272 15.17L15.1771 9.74609Z" fill="#8DC63F"/>
</g>
<defs>
<clipPath id="clip0_313_1319">
<rect width="23.2465" height="18" fill="white" transform="translate(0.148438)"/>
</clipPath>
</defs>
</svg>
