<svg width="306" height="104" viewBox="0 0 306 104" fill="none" xmlns="http://www.w3.org/2000/svg">
<path d="M229.31 99.441L230.584 96.0381H237.326L238.6 99.441H241.96L235.745 83.9534H232.275L226.082 99.441H229.31ZM236.294 93.2896H231.616L233.944 87.1163L236.294 93.2896ZM248.549 104C249.427 104 250.229 103.858 250.953 103.575C251.678 103.291 252.304 102.888 252.831 102.364C253.358 101.84 253.764 101.215 254.05 100.488C254.335 99.7609 254.478 98.9538 254.478 98.0667V87.9234H251.645L251.579 89.3413C251.184 88.7742 250.686 88.3415 250.086 88.0434C249.486 87.7453 248.812 87.5962 248.066 87.5962C247.304 87.5962 246.598 87.7453 245.946 88.0434C245.295 88.3415 244.724 88.7523 244.233 89.2759C243.743 89.7994 243.362 90.4138 243.091 91.1191C242.82 91.8244 242.685 92.5915 242.685 93.4204C242.685 94.2203 242.817 94.9656 243.08 95.6563C243.344 96.3471 243.71 96.9506 244.178 97.4669C244.647 97.9831 245.2 98.3867 245.836 98.6775C246.473 98.9683 247.158 99.1138 247.89 99.1138C248.622 99.1138 249.292 98.9647 249.899 98.6666C250.507 98.3685 251.008 97.9577 251.404 97.4341V98.3721C251.404 98.9829 251.287 99.5173 251.052 99.9754C250.818 100.433 250.492 100.79 250.075 101.044C249.658 101.299 249.164 101.426 248.593 101.426C248.066 101.426 247.593 101.306 247.176 101.066C246.759 100.826 246.418 100.495 246.155 100.074L243.212 100.793C243.505 101.433 243.907 101.993 244.42 102.473C244.932 102.953 245.533 103.327 246.221 103.596C246.909 103.865 247.685 104 248.549 104ZM248.637 96.4089C248.095 96.4089 247.615 96.2744 247.198 96.0053C246.781 95.7363 246.448 95.3728 246.199 94.9147C245.95 94.4566 245.825 93.9367 245.825 93.355C245.825 92.7733 245.95 92.2534 246.199 91.7953C246.448 91.3372 246.781 90.9737 247.198 90.7047C247.615 90.4356 248.095 90.3011 248.637 90.3011C249.178 90.3011 249.658 90.4356 250.075 90.7047C250.492 90.9737 250.825 91.3372 251.074 91.7953C251.323 92.2534 251.448 92.7733 251.448 93.355C251.448 93.9367 251.323 94.4566 251.074 94.9147C250.825 95.3728 250.492 95.7363 250.075 96.0053C249.658 96.2744 249.178 96.4089 248.637 96.4089ZM262.428 99.7682C263.219 99.7682 263.966 99.6409 264.668 99.3864C265.371 99.1319 265.986 98.772 266.513 98.3067C267.04 97.8413 267.436 97.2814 267.699 96.627L264.954 95.7545C264.676 96.2198 264.321 96.5761 263.889 96.8233C263.457 97.0706 262.977 97.1942 262.45 97.1942C261.689 97.1942 261.059 96.9506 260.562 96.4634C260.064 95.9763 259.749 95.3037 259.617 94.4457H267.941V93.6822C267.941 92.766 267.805 91.9371 267.534 91.1955C267.264 90.4538 266.879 89.8139 266.381 89.2759C265.884 88.7378 265.287 88.3233 264.592 88.0325C263.896 87.7417 263.124 87.5962 262.275 87.5962C261.455 87.5962 260.693 87.7489 259.991 88.0543C259.288 88.3597 258.677 88.7851 258.157 89.3304C257.637 89.8757 257.231 90.5192 256.938 91.2609C256.645 92.0026 256.499 92.8024 256.499 93.6604C256.499 94.5475 256.645 95.3655 256.938 96.1144C257.231 96.8633 257.641 97.5105 258.168 98.0558C258.695 98.6011 259.321 99.0229 260.045 99.321C260.77 99.6191 261.565 99.7682 262.428 99.7682ZM264.778 92.3952H259.661C259.808 91.639 260.111 91.0428 260.573 90.6065C261.034 90.1702 261.601 89.9521 262.275 89.9521C262.933 89.9521 263.486 90.1702 263.933 90.6065C264.379 91.0428 264.661 91.639 264.778 92.3952ZM272.926 99.441V92.8315C272.926 92.3516 273.028 91.9226 273.233 91.5445C273.438 91.1664 273.717 90.8719 274.068 90.661C274.419 90.4502 274.829 90.3447 275.298 90.3447C275.942 90.3447 276.447 90.5738 276.813 91.0319C277.179 91.4899 277.362 92.1189 277.362 92.9187V99.441H280.437V92.5261C280.437 91.5227 280.261 90.6501 279.91 89.9085C279.558 89.1668 279.064 88.596 278.427 88.1961C277.79 87.7962 277.047 87.5962 276.198 87.5962C275.437 87.5962 274.76 87.7598 274.167 88.087C273.574 88.4142 273.109 88.8541 272.772 89.4067L272.684 87.9234H269.851V99.441H272.926ZM288.277 99.7682C289.126 99.7682 289.917 99.6155 290.649 99.3101C291.381 99.0047 292.007 98.5684 292.527 98.0013C293.046 97.4341 293.401 96.7652 293.592 95.9944L290.671 95.4273C290.466 95.9363 290.151 96.3289 289.726 96.6052C289.302 96.8815 288.826 97.0197 288.299 97.0197C287.772 97.0197 287.303 96.8779 286.893 96.5943C286.483 96.3107 286.165 95.9217 285.938 95.4273C285.711 94.9328 285.598 94.3657 285.598 93.7258C285.598 93.086 285.715 92.5079 285.949 91.9917C286.183 91.4754 286.502 91.0718 286.904 90.781C287.307 90.4902 287.772 90.3447 288.299 90.3447C288.797 90.3447 289.243 90.4865 289.639 90.7701C290.034 91.0537 290.341 91.4427 290.561 91.9371L293.482 91.37C293.292 90.6138 292.951 89.9521 292.461 89.3849C291.97 88.8178 291.374 88.3779 290.671 88.0652C289.968 87.7526 289.199 87.5962 288.365 87.5962C287.53 87.5962 286.754 87.7526 286.037 88.0652C285.32 88.3779 284.694 88.8142 284.159 89.374C283.625 89.9339 283.208 90.5883 282.907 91.3372C282.607 92.0862 282.457 92.8969 282.457 93.7695C282.457 94.6275 282.604 95.4236 282.896 96.158C283.189 96.8924 283.596 97.5286 284.115 98.0667C284.635 98.6048 285.25 99.0229 285.96 99.321C286.67 99.6191 287.442 99.7682 288.277 99.7682ZM297.084 103.891C298.05 103.891 298.873 103.622 299.554 103.084C300.235 102.546 300.795 101.695 301.234 100.532L306 87.9234H302.75L300.268 96.0817L297.523 87.9234H294.163L298.84 99.3319L298.643 99.8336C298.438 100.328 298.178 100.688 297.863 100.913C297.548 101.139 297.179 101.251 296.754 101.251C296.564 101.251 296.359 101.226 296.139 101.175C295.92 101.124 295.729 101.062 295.568 100.99L294.975 103.389C295.283 103.564 295.612 103.691 295.964 103.771C296.315 103.851 296.688 103.891 297.084 103.891Z" fill="white"/>
<path d="M129.311 37.3612C129.235 42.6339 124.95 46.89 119.641 46.9657H108.364V27.7566H119.665C124.996 27.7696 129.311 32.0659 129.311 37.3612ZM119.665 21.1344H105.007C103.215 21.1597 101.77 22.5959 101.744 24.3751V72.3038C101.744 74.1195 103.226 75.5914 105.054 75.5914C106.882 75.5914 108.364 74.1195 108.364 72.3038V53.5174L119.665 53.3766C128.388 53.0458 135.288 45.926 135.288 37.2555C135.288 28.585 128.388 21.4652 119.665 21.1344ZM165.436 56.0771C165.842 60.6263 163.627 65.0131 159.715 67.412C155.802 69.8108 150.861 69.8108 146.949 67.412C143.036 65.0131 140.822 60.6263 141.227 56.0771C140.822 51.5279 143.036 47.1411 146.949 44.7422C150.861 42.3434 155.802 42.3434 159.715 44.7422C163.627 47.1411 165.842 51.5279 165.436 56.0771ZM168.723 36.6094C167.839 36.5965 166.988 36.9427 166.367 37.5679C165.747 38.1932 165.411 39.0432 165.436 39.9208V41.3533C162.121 38.3618 157.811 36.6897 153.332 36.6567C142.801 36.9385 134.477 45.6158 134.701 56.0771C134.45 66.5606 142.778 75.2735 153.332 75.568C157.812 75.5416 162.124 73.8685 165.436 70.8714V72.3508C165.331 73.5787 165.931 74.7608 166.988 75.4069C168.044 76.0531 169.377 76.0531 170.434 75.4069C171.49 74.7608 172.091 73.5787 171.985 72.3508V39.9208C171.992 39.0594 171.65 38.2315 171.037 37.6224C170.424 37.0133 169.59 36.6739 168.723 36.6802V36.6094ZM209.269 37.4081L208.891 37.1263C208.508 36.9259 208.103 36.7683 207.685 36.6567H206.881C206.702 36.6251 206.517 36.6251 206.338 36.6567H206.054C204.745 37.1013 203.857 38.3123 203.832 39.686V59.2003C204.008 62.7407 202.207 66.0898 199.146 67.9126C196.085 69.7353 192.262 69.7353 189.201 67.9126C186.141 66.0898 184.339 62.7407 184.516 59.2003V39.7799C184.371 38.0905 182.948 36.7924 181.241 36.7924C179.534 36.7924 178.112 38.0905 177.967 39.7799V59.3177C177.922 65.4097 181.356 71.0011 186.829 73.7495C192.303 76.4979 198.872 75.9287 203.784 72.2803C203.38 76.208 201.06 79.6881 197.577 81.5912C194.094 83.4942 189.893 83.5777 186.336 81.8144H186.1C184.494 81.2871 182.748 82.0562 182.063 83.5922C181.379 85.1282 181.979 86.9295 183.452 87.7556C185.983 88.9376 188.741 89.5624 191.538 89.5873C196.491 89.6373 201.26 87.726 204.792 84.2757C208.323 80.8253 210.326 76.1202 210.357 71.2001V39.7799C210.349 39.2865 210.219 38.8026 209.979 38.3709C209.808 38.0004 209.558 37.6717 209.246 37.4081H209.269ZM242.25 39.9208C242.257 39.0553 241.912 38.2237 241.293 37.6139C240.675 37.0041 239.835 36.6675 238.964 36.6798C233.716 36.776 228.777 39.1643 225.464 43.2084V39.9208C225.32 38.2314 223.897 36.9333 222.19 36.9333C220.483 36.9333 219.06 38.2314 218.915 39.9208V72.3038C218.81 73.5318 219.41 74.7138 220.467 75.36C221.523 76.0061 222.856 76.0061 223.913 75.36C224.969 74.7138 225.569 73.5318 225.464 72.3038V56.5702V56.4293C226.448 53.5908 227.842 50.9092 229.602 48.4686C231.627 45.2881 235.106 43.3097 238.893 43.1849C240.725 43.198 242.224 41.7403 242.25 39.9208ZM270.834 56.0771C271.182 60.5966 268.952 64.929 265.059 67.2946C261.167 69.6602 256.268 69.6602 252.375 67.2946C248.482 64.929 246.252 60.5966 246.6 56.0771C246.252 51.5576 248.482 47.2252 252.375 44.8596C256.268 42.494 261.167 42.494 265.059 44.8596C268.952 47.2252 271.182 51.5576 270.834 56.0771ZM274.191 36.6097C273.293 36.5697 272.419 36.9049 271.781 37.5339C271.143 38.163 270.8 39.0286 270.834 39.9208V41.3533C267.506 38.366 263.191 36.6949 258.705 36.6567C248.161 36.9511 239.837 45.6497 240.075 56.1241C239.824 66.6075 248.152 75.3205 258.705 75.6149C263.193 75.5877 267.512 73.9151 270.834 70.9183V72.3978C270.834 74.1875 272.295 75.6384 274.096 75.6384C275.898 75.6384 277.359 74.1875 277.359 72.3978V39.9208C277.384 39.0635 277.064 38.2316 276.469 37.6099C275.874 36.9882 275.054 36.6281 274.191 36.6097ZM287.549 24.8682C285.73 24.894 284.273 26.3727 284.286 28.1793V29.8701C284.181 31.1067 284.785 32.2969 285.849 32.9474C286.913 33.598 288.255 33.598 289.319 32.9474C290.383 32.2969 290.988 31.1067 290.882 29.8701V28.1793C290.857 26.3728 289.368 24.9256 287.549 24.9387V24.8682ZM287.549 36.6093C286.667 36.5962 285.818 36.9431 285.201 37.5692C284.585 38.1952 284.254 39.0454 284.286 39.9208V72.3038C284.431 74.0058 285.865 75.3138 287.584 75.3138C289.304 75.3138 290.737 74.0058 290.882 72.3038V39.9208C290.896 39.0449 290.547 38.202 289.916 37.5892C289.286 36.9765 288.43 36.6479 287.549 36.6802V36.6093ZM301.663 21.1341C299.872 21.1597 298.426 22.5959 298.401 24.3751V72.3038C298.401 74.1195 299.883 75.5914 301.711 75.5914C303.539 75.5914 305.021 74.1195 305.021 72.3038V24.4221C305.021 23.5419 304.665 22.6985 304.034 22.0806C303.403 21.4627 302.549 21.1219 301.663 21.1341Z" fill="#F5BD00"/>
<path d="M50.2752 27.5687C50.4885 29.2057 50.4885 30.8631 50.2752 32.5001C48.9554 43.4672 38.9561 51.3098 27.9096 50.0419C25.1088 49.7112 22.5684 51.6983 22.2354 54.4802C21.9025 57.2621 23.903 59.7854 26.7038 60.1161C34.7144 61.0751 42.7796 58.8247 49.1155 53.8624C55.4513 48.9002 59.5357 41.6351 60.465 33.6743C60.6105 32.4116 60.6737 31.1408 60.6542 29.87C58.0596 28.3114 55.0805 27.4984 52.0484 27.5217C51.4555 27.5258 50.8634 27.565 50.2752 27.6391" fill="url(#paint0_linear_950_1689)"/>
<path d="M74.5087 23.6239C74.2848 23.2612 74.0233 22.9228 73.7285 22.6141C68.0491 16.9357 60.3198 13.7481 52.2613 13.761H51.954C35.227 13.8385 21.7047 27.3222 21.6918 43.9366C21.6816 44.0695 21.6816 44.203 21.6918 44.3358V81.7207C21.6918 84.8982 19.0985 87.474 15.8995 87.474C12.7005 87.474 10.1071 84.8982 10.1071 81.7207V62.4882C10.1071 62.3707 10.1071 62.2298 10.1071 62.1124V30.6453C10.0399 19.5143 18.9754 10.3881 30.1794 10.1446H30.7468C31.3615 10.1446 31.9762 10.1446 32.5909 10.1446C35.0824 10.4793 37.4883 11.2759 39.6836 12.4929C43.5836 10.9615 47.7367 10.1651 51.9303 10.1446H52.9706L52.6396 9.79239C47.7338 4.38437 41.0073 0.943561 33.7258 0.117415C32.851 0 31.8344 0 30.8414 0H30.0139C14.7427 0.175427 1.96829 11.5678 0.153722 26.6297C0.118588 26.9418 0.118588 27.2569 0.153722 27.569C0.153722 28.5788 0.0118685 29.612 0.0118685 30.6453V57.0871C-0.00109823 57.212 -0.00109823 57.3379 0.0118685 57.4628V81.7207C-0.213504 87.542 2.78468 93.0195 7.82603 95.9967C12.8674 98.9739 19.1444 98.9739 24.1857 95.9967C29.2271 93.0195 32.2253 87.542 31.9999 81.7207V44.4063C31.9339 33.2124 40.9687 24.0602 52.2377 23.9057C60.1113 23.9244 67.2539 28.4928 70.5289 35.6047C73.8039 42.7167 72.6124 51.0714 67.4775 57C62.3426 62.9286 54.2035 65.3468 46.6345 63.1926C43.9185 62.4339 41.0976 64.0057 40.3338 66.7034C39.5699 69.401 41.1524 72.2029 43.8683 72.9616C56.9153 76.6445 70.8389 71.2836 77.9781 59.8287C85.1174 48.3737 83.7398 33.6046 74.6033 23.6473" fill="url(#paint1_linear_950_1689)"/>
<defs>
<linearGradient id="paint0_linear_950_1689" x1="65.8503" y1="42.8731" x2="32.7518" y2="42.8731" gradientUnits="userSpaceOnUse">
<stop stop-color="#F5BD00"/>
<stop offset="1" stop-color="#F5BD00"/>
</linearGradient>
<linearGradient id="paint1_linear_950_1689" x1="42.4578" y1="4.71993" x2="42.4578" y2="74.628" gradientUnits="userSpaceOnUse">
<stop stop-color="#F5BD00"/>
<stop offset="1" stop-color="#F5BD00"/>
</linearGradient>
</defs>
</svg>
