<svg width="306" height="105" viewBox="0 0 306 105" fill="none" xmlns="http://www.w3.org/2000/svg">
<path fill-rule="evenodd" clip-rule="evenodd" d="M257.075 90.7302C256.804 90.8907 256.507 90.9709 256.185 90.9709C255.862 90.9709 255.565 90.8907 255.294 90.7302C255.023 90.5697 254.81 90.3519 254.656 90.0768C254.502 89.8016 254.425 89.4883 254.425 89.1367C254.425 88.7852 254.502 88.4718 254.656 88.1967C254.81 87.9215 255.023 87.7037 255.294 87.5432C255.565 87.3827 255.862 87.3025 256.185 87.3025C256.507 87.3025 256.804 87.3827 257.075 87.5432C257.347 87.7037 257.559 87.9215 257.713 88.1967C257.867 88.4718 257.944 88.7852 257.944 89.1367C257.944 89.4883 257.867 89.8016 257.713 90.0768C257.559 90.3519 257.347 90.5697 257.075 90.7302ZM226.186 103.948C225.336 104.33 224.331 104.521 223.173 104.521H217.389V88.2427H223.063C224.119 88.2427 225.031 88.4146 225.801 88.7585C226.571 89.1025 227.165 89.5916 227.582 90.2259C228 90.8603 228.209 91.6054 228.209 92.4614C228.209 93.2409 228.048 93.9249 227.725 94.5134C227.403 95.1019 226.948 95.5643 226.362 95.9006C227.154 96.2215 227.769 96.7298 228.209 97.4253C228.649 98.1207 228.869 98.9423 228.869 99.89C228.869 100.838 228.634 101.655 228.165 102.343C227.696 103.031 227.036 103.566 226.186 103.948ZM220.555 94.7999H222.711C223.429 94.7999 223.983 94.6433 224.371 94.3299C224.76 94.0166 224.954 93.5542 224.954 92.9428C224.954 92.3314 224.76 91.8652 224.371 91.5442C223.983 91.2232 223.429 91.0627 222.711 91.0627H220.555V94.7999ZM223.019 101.701H220.555V97.4369H223.019C223.84 97.4369 224.474 97.6203 224.921 97.9871C225.368 98.354 225.592 98.8813 225.592 99.5692C225.592 100.257 225.368 100.784 224.921 101.151C224.474 101.518 223.84 101.701 223.019 101.701ZM238.25 104.453C237.597 104.728 236.868 104.866 236.062 104.866C235.006 104.866 234.086 104.632 233.301 104.166C232.517 103.7 231.909 103.035 231.476 102.171C231.043 101.308 230.827 100.288 230.827 99.1106V92.4157H233.906V99.1794C233.906 100.051 234.104 100.735 234.5 101.231C234.896 101.728 235.431 101.977 236.106 101.977C236.78 101.977 237.315 101.728 237.711 101.231C238.107 100.735 238.305 100.051 238.305 99.1794V92.4157H241.384V99.1106C241.384 99.9819 241.259 100.769 241.01 101.472C240.761 102.175 240.402 102.779 239.932 103.283C239.463 103.788 238.902 104.178 238.25 104.453ZM248.026 104.866C248.715 104.866 249.345 104.766 249.917 104.568C250.489 104.369 250.987 104.086 251.413 103.719C251.838 103.352 252.164 102.924 252.391 102.435C252.619 101.946 252.732 101.404 252.732 100.807C252.732 99.8292 252.402 99.0229 251.742 98.3885C251.083 97.7542 250.13 97.3224 248.883 97.0931L248.268 96.9785C247.578 96.8562 247.091 96.6919 246.805 96.4855C246.519 96.2792 246.376 96.0231 246.376 95.7174C246.376 95.3659 246.523 95.0754 246.816 94.8462C247.109 94.6169 247.483 94.5023 247.938 94.5023C248.378 94.5023 248.762 94.6322 249.092 94.892C249.422 95.1519 249.66 95.5111 249.807 95.9696L252.556 95.3735C252.395 94.6857 252.102 94.0972 251.677 93.6081C251.251 93.1189 250.72 92.7406 250.082 92.4731C249.444 92.2056 248.737 92.0719 247.96 92.0719C247.08 92.0719 246.303 92.24 245.628 92.5763C244.954 92.9126 244.426 93.375 244.045 93.9634C243.664 94.5519 243.473 95.2283 243.473 95.9926C243.473 96.9555 243.799 97.7504 244.452 98.3771C245.104 99.0038 246.061 99.4317 247.322 99.661L247.938 99.7757C248.597 99.8979 249.07 100.07 249.356 100.292C249.642 100.513 249.785 100.792 249.785 101.128C249.785 101.526 249.624 101.839 249.301 102.068C248.979 102.298 248.568 102.412 248.07 102.412C247.542 102.412 247.087 102.275 246.706 102C246.325 101.725 246.061 101.35 245.914 100.876L243.143 101.495C243.319 102.183 243.638 102.779 244.1 103.284C244.562 103.788 245.126 104.178 245.793 104.453C246.46 104.728 247.205 104.866 248.026 104.866ZM257.725 104.522V92.4157H254.646V104.522H257.725ZM263.266 97.5746V104.522H260.187V92.4158H263.024L263.112 93.9749C263.449 93.3941 263.915 92.9317 264.509 92.5878C265.103 92.2439 265.781 92.0719 266.543 92.0719C267.393 92.0719 268.138 92.2821 268.775 92.7024C269.413 93.1228 269.908 93.7227 270.26 94.5023C270.612 95.2818 270.788 96.1989 270.788 97.2536V104.522H267.709V97.6663C267.709 96.8256 267.525 96.1645 267.159 95.683C266.792 95.2016 266.287 94.9608 265.641 94.9608C265.172 94.9608 264.762 95.0716 264.41 95.2933C264.058 95.5149 263.779 95.8244 263.574 96.2218C263.369 96.6193 263.266 97.0702 263.266 97.5746ZM278.749 104.866C279.541 104.866 280.289 104.732 280.993 104.464C281.696 104.197 282.312 103.819 282.84 103.329C283.368 102.84 283.764 102.252 284.028 101.564L281.278 100.647C281 101.136 280.644 101.511 280.212 101.77C279.779 102.03 279.299 102.16 278.771 102.16C278.009 102.16 277.378 101.904 276.88 101.392C276.381 100.88 276.066 100.173 275.934 99.2712H284.27V98.4688C284.27 97.5058 284.134 96.6345 283.863 95.855C283.591 95.0754 283.207 94.4029 282.708 93.8373C282.21 93.2718 281.612 92.8362 280.916 92.5305C280.219 92.2248 279.446 92.0719 278.595 92.0719C277.774 92.0719 277.012 92.2324 276.308 92.5534C275.604 92.8744 274.992 93.3215 274.472 93.8947C273.951 94.4679 273.544 95.1442 273.251 95.9238C272.958 96.7033 272.811 97.544 272.811 98.4458C272.811 99.3782 272.958 100.238 273.251 101.025C273.544 101.812 273.955 102.493 274.483 103.066C275.01 103.639 275.637 104.082 276.363 104.396C277.089 104.709 277.884 104.866 278.749 104.866ZM275.979 97.1157H281.104C280.986 96.3209 280.704 95.6942 280.257 95.2357C279.81 94.7771 279.256 94.5478 278.596 94.5478C277.922 94.5478 277.354 94.7771 276.892 95.2357C276.43 95.6942 276.126 96.3209 275.979 97.1157ZM290.494 104.866C291.183 104.866 291.813 104.766 292.385 104.568C292.957 104.369 293.456 104.086 293.881 103.719C294.306 103.352 294.632 102.924 294.859 102.435C295.087 101.946 295.2 101.404 295.2 100.807C295.2 99.8292 294.87 99.0229 294.211 98.3885C293.551 97.7542 292.598 97.3224 291.352 97.0931L290.736 96.9785C290.047 96.8562 289.559 96.6919 289.273 96.4855C288.987 96.2792 288.844 96.0231 288.844 95.7174C288.844 95.3659 288.991 95.0754 289.284 94.8462C289.577 94.6169 289.951 94.5023 290.406 94.5023C290.846 94.5023 291.231 94.6322 291.56 94.892C291.89 95.1519 292.129 95.5111 292.275 95.9696L295.024 95.3735C294.863 94.6857 294.57 94.0972 294.145 93.6081C293.719 93.1189 293.188 92.7406 292.55 92.4731C291.912 92.2056 291.205 92.0719 290.428 92.0719C289.548 92.0719 288.771 92.24 288.097 92.5763C287.422 92.9126 286.894 93.375 286.513 93.9634C286.132 94.5519 285.941 95.2283 285.941 95.9926C285.941 96.9555 286.267 97.7504 286.92 98.3771C287.572 99.0038 288.529 99.4317 289.79 99.661L290.406 99.7757C291.066 99.8979 291.538 100.07 291.824 100.292C292.11 100.513 292.253 100.792 292.253 101.128C292.253 101.526 292.092 101.839 291.769 102.068C291.447 102.298 291.036 102.412 290.538 102.412C290.01 102.412 289.555 102.275 289.174 102C288.793 101.725 288.529 101.35 288.382 100.876L285.611 101.495C285.787 102.183 286.106 102.779 286.568 103.284C287.03 103.788 287.594 104.178 288.262 104.453C288.929 104.728 289.673 104.866 290.494 104.866ZM303.184 104.568C302.613 104.766 301.982 104.866 301.293 104.866C300.472 104.866 299.728 104.728 299.061 104.453C298.394 104.178 297.829 103.788 297.367 103.284C296.905 102.779 296.586 102.183 296.41 101.495L299.182 100.876C299.328 101.35 299.592 101.725 299.973 102C300.355 102.275 300.809 102.412 301.337 102.412C301.835 102.412 302.246 102.298 302.569 102.068C302.891 101.839 303.052 101.526 303.052 101.128C303.052 100.792 302.909 100.513 302.624 100.292C302.338 100.07 301.865 99.8979 301.205 99.7757L300.589 99.661C299.328 99.4317 298.372 99.0038 297.719 98.3771C297.067 97.7504 296.74 96.9555 296.74 95.9926C296.74 95.2283 296.931 94.5519 297.312 93.9634C297.693 93.375 298.221 92.9126 298.896 92.5763C299.57 92.24 300.347 92.0719 301.227 92.0719C302.004 92.0719 302.712 92.2056 303.349 92.4731C303.987 92.7406 304.519 93.1189 304.944 93.6081C305.369 94.0972 305.662 94.6857 305.824 95.3735L303.074 95.9696C302.928 95.5111 302.69 95.1519 302.36 94.892C302.03 94.6322 301.645 94.5023 301.205 94.5023C300.75 94.5023 300.377 94.6169 300.083 94.8462C299.79 95.0754 299.643 95.3659 299.643 95.7174C299.643 96.0231 299.786 96.2792 300.072 96.4855C300.358 96.6919 300.846 96.8562 301.535 96.9785L302.151 97.0931C303.397 97.3224 304.35 97.7542 305.01 98.3885C305.67 99.0229 305.999 99.8292 305.999 100.807C305.999 101.404 305.886 101.946 305.659 102.435C305.431 102.924 305.105 103.352 304.68 103.719C304.255 104.086 303.756 104.369 303.184 104.568Z" fill="white"/>
<path fill-rule="evenodd" clip-rule="evenodd" d="M298.83 25.6205C298.855 23.7504 300.303 22.2408 302.097 22.214C302.984 22.2011 303.84 22.5593 304.471 23.2088C305.103 23.8583 305.459 24.7448 305.459 25.6699V75.9976C305.459 77.9061 303.975 79.4532 302.144 79.4532C300.314 79.4532 298.83 77.9061 298.83 75.9976V25.6205ZM119.837 22.2146H105.158C103.364 22.2411 101.916 23.7507 101.891 25.6208V75.9979C101.891 77.9063 103.375 79.4534 105.205 79.4534C107.036 79.4534 108.52 77.9063 108.52 75.9979V56.2519L119.837 56.1038C128.573 55.7561 135.482 48.2725 135.482 39.1592C135.482 30.0458 128.573 22.5622 119.837 22.2146ZM129.496 39.2696C129.42 44.8117 125.129 49.2852 119.813 49.3647H108.519V29.1744H119.836C125.175 29.188 129.496 33.7038 129.496 39.2696ZM159.945 70.856C163.863 68.3346 166.08 63.7237 165.675 58.9421C166.08 54.1605 163.863 49.5496 159.945 47.0282C156.026 44.5068 151.079 44.5068 147.16 47.0282C143.242 49.5496 141.024 54.1605 141.43 58.9421C141.024 63.7237 143.242 68.3346 147.16 70.856C151.079 73.3774 156.026 73.3774 159.945 70.856ZM168.966 38.4794C168.08 38.4659 167.228 38.8298 166.607 39.487C165.985 40.1442 165.649 41.0376 165.675 41.9601V43.4657C162.354 40.3214 158.038 38.5639 153.552 38.5292C143.006 38.8254 134.67 47.946 134.895 58.9417C134.643 69.9607 142.984 79.1187 153.552 79.4282C158.039 79.4005 162.358 77.6419 165.675 74.4917V76.0467C165.569 77.3373 166.17 78.5798 167.228 79.2589C168.286 79.9381 169.621 79.9381 170.679 79.2589C171.737 78.5798 172.338 77.3373 172.233 76.0467V41.9601C172.239 41.0547 171.897 40.1844 171.283 39.5442C170.669 38.904 169.834 38.5472 168.966 38.5539V38.4794ZM209.191 39.0229L209.57 39.3191H209.546C209.859 39.5961 210.11 39.9416 210.28 40.3311C210.521 40.7849 210.651 41.2935 210.659 41.8121V74.8373C210.628 80.0087 208.622 84.9542 205.086 88.5808C201.549 92.2074 196.773 94.2164 191.813 94.1638C189.012 94.1376 186.25 93.4809 183.715 92.2385C182.241 91.3702 181.639 89.4769 182.325 87.8624C183.01 86.248 184.759 85.4395 186.367 85.9938H186.604C190.166 87.8472 194.373 87.7594 197.861 85.7592C201.349 83.7589 203.672 80.101 204.077 75.9727C199.158 79.8074 192.58 80.4057 187.098 77.5169C181.616 74.6282 178.177 68.7511 178.223 62.3479V41.8121C178.367 40.0364 179.792 38.6719 181.502 38.6719C183.211 38.6719 184.636 40.0364 184.781 41.8121V62.2245C184.604 65.9458 186.408 69.466 189.473 71.3818C192.539 73.2977 196.367 73.2977 199.432 71.3818C202.497 69.466 204.301 65.9458 204.124 62.2245V41.7133C204.15 40.2695 205.039 38.9966 206.35 38.5293H206.634C206.814 38.4961 206.999 38.4961 207.179 38.5293H207.984C208.402 38.6466 208.807 38.8122 209.191 39.0229ZM242.598 41.9602C242.605 41.0505 242.259 40.1764 241.64 39.5355C241.021 38.8945 240.18 38.5407 239.307 38.5537C234.052 38.6547 229.106 41.1651 225.788 45.4158V41.9602C225.643 40.1845 224.218 38.8201 222.509 38.8201C220.799 38.8201 219.375 40.1845 219.23 41.9602V75.9975C219.124 77.2881 219.725 78.5306 220.783 79.2097C221.842 79.8889 223.176 79.8889 224.234 79.2097C225.292 78.5306 225.893 77.2881 225.788 75.9975V59.4601V59.312C226.773 56.3285 228.169 53.5099 229.931 50.9447C231.96 47.6017 235.444 45.5222 239.236 45.3911C241.071 45.4048 242.572 43.8726 242.598 41.9602ZM265.441 70.7325C269.339 68.2461 271.573 63.6924 271.224 58.942C271.573 54.1916 269.339 49.6379 265.441 47.1515C261.543 44.665 256.637 44.665 252.738 47.1515C248.84 49.6379 246.607 54.1916 246.956 58.942C246.607 63.6924 248.84 68.2461 252.738 70.7325C256.637 73.219 261.543 73.219 265.441 70.7325ZM274.586 38.48C273.687 38.4379 272.811 38.7902 272.173 39.4514C271.534 40.1127 271.19 41.0225 271.224 41.9602V43.4659C267.891 40.326 263.57 38.5695 259.078 38.5294C248.519 38.8389 240.182 47.9817 240.421 58.9912C240.169 70.0102 248.509 79.1683 259.078 79.4777C263.572 79.4491 267.897 77.6911 271.224 74.5412V76.0962C271.224 77.9774 272.687 79.5024 274.491 79.5024C276.296 79.5024 277.758 77.9774 277.758 76.0962V41.9602C277.784 41.0591 277.463 40.1847 276.867 39.5313C276.272 38.8778 275.45 38.4993 274.586 38.48ZM284.696 29.619C284.682 27.7201 286.141 26.1659 287.963 26.1388V26.2129C289.784 26.1991 291.275 27.7202 291.301 29.619V31.3962C291.407 32.6959 290.801 33.9469 289.736 34.6307C288.67 35.3145 287.326 35.3145 286.261 34.6307C285.195 33.9469 284.59 32.6959 284.696 31.3962V29.619ZM287.964 38.4794C287.081 38.4657 286.231 38.8303 285.613 39.4883C284.995 40.1463 284.664 41.04 284.696 41.9601V75.9973C284.842 77.7863 286.277 79.1611 287.999 79.1611C289.721 79.1611 291.157 77.7863 291.302 75.9973V41.9601C291.316 41.0395 290.966 40.1534 290.335 39.5094C289.703 38.8654 288.846 38.5199 287.964 38.5539V38.4794Z" fill="#EA6212"/>
<path fill-rule="evenodd" clip-rule="evenodd" d="M73.8346 23.7693C74.1298 24.0937 74.3917 24.4495 74.6159 24.8307L74.7106 24.8553C83.8603 35.3212 85.2399 50.8448 78.0904 62.8849C70.9408 74.9251 56.9972 80.5597 43.9314 76.6887C41.2116 75.8912 39.6269 72.9462 40.3918 70.1108C41.1568 67.2754 43.9817 65.6233 46.7016 66.4208C54.2815 68.685 62.4323 66.1432 67.5746 59.9118C72.7169 53.6803 73.9101 44.8988 70.6304 37.4236C67.3507 29.9483 60.1978 25.1465 52.3129 25.1268C41.0277 25.2893 31.9798 34.909 32.0459 46.6747V52.6605C41.3865 51.8127 49.1918 44.2427 50.3477 34.1605C50.5583 32.4642 50.5613 30.747 50.3567 29.0501C50.9427 28.9729 51.5327 28.9321 52.1235 28.9278C55.1599 28.9034 58.1433 29.7578 60.7416 31.3961C60.7612 32.7318 60.6979 34.0674 60.5522 35.3947C59.6215 43.7622 55.5313 51.3984 49.1864 56.6141C44.2426 60.678 38.2474 63.0115 32.0459 63.3671V85.8953C32.2716 92.0139 29.2691 97.7713 24.2205 100.901C19.1719 104.03 12.8859 104.03 7.8373 100.901C2.78869 97.7713 -0.213812 92.0139 0.0118856 85.8953V60.3982C-0.00109982 60.2669 -0.00109982 60.1346 0.0118856 60.0033V32.2107C0.0118856 31.6646 0.0478094 31.1185 0.0835268 30.5755C0.118836 30.0387 0.153943 29.5049 0.153943 28.9773C0.118758 28.6492 0.118758 28.3181 0.153943 27.99C1.97112 12.1587 14.7639 0.184388 30.0571 0H30.8858C31.8802 0 32.8983 0 33.7743 0.123413C41.0663 0.991762 47.8025 4.60834 52.7154 10.2926L53.0468 10.6629H52.0051C47.8054 10.6844 43.6463 11.5214 39.7407 13.1311C37.5423 11.8519 35.1329 11.0146 32.6378 10.6629H30.7911H30.2229C19.0027 10.9188 10.0543 20.5111 10.1217 32.2107V65.2854V65.6803V85.8953C10.1217 89.2351 12.7187 91.9425 15.9224 91.9425C19.126 91.9425 21.7231 89.2351 21.7231 85.8953V46.6007C21.7128 46.461 21.7128 46.3207 21.7231 46.1811C21.7359 28.7179 35.2777 14.5454 52.0287 14.464H52.3365C60.4066 14.4504 68.147 17.8008 73.8346 23.7693ZM50.3567 29.0501C50.3537 29.0258 50.3507 29.0015 50.3477 28.9772V29.0512C50.3507 29.0508 50.3537 29.0505 50.3567 29.0501Z" fill="#EA6212"/>
</svg>
