<svg width="205" height="70" viewBox="0 0 205 70" fill="none" xmlns="http://www.w3.org/2000/svg">
<path d="M153.484 66.9314L154.337 64.641H158.849L159.702 66.9314H161.951L157.791 56.507H155.469L151.323 66.9314H153.484ZM158.159 62.791H155.028L156.586 58.6359L158.159 62.791ZM166.361 70C166.949 70 167.485 69.9045 167.97 69.7136C168.455 69.5228 168.874 69.2512 169.227 68.8988C169.58 68.5464 169.852 68.1255 170.043 67.6361C170.234 67.1467 170.33 66.6035 170.33 66.0064V59.1792H168.433L168.389 60.1335C168.125 59.7518 167.792 59.4606 167.39 59.2599C166.988 59.0593 166.537 58.959 166.037 58.959C165.528 58.959 165.055 59.0593 164.619 59.2599C164.183 59.4606 163.801 59.7371 163.472 60.0895C163.144 60.4419 162.889 60.8554 162.708 61.3301C162.527 61.8049 162.436 62.3212 162.436 62.8791C162.436 63.4174 162.524 63.9191 162.701 64.384C162.877 64.849 163.122 65.2552 163.436 65.6026C163.749 65.9501 164.119 66.2217 164.545 66.4175C164.972 66.6133 165.43 66.7111 165.92 66.7111C166.41 66.7111 166.858 66.6108 167.265 66.4102C167.672 66.2095 168.007 65.933 168.272 65.5806V66.212C168.272 66.6231 168.193 66.9828 168.037 67.2911C167.88 67.5994 167.662 67.8392 167.382 68.0105C167.103 68.1818 166.772 68.2675 166.39 68.2675C166.037 68.2675 165.721 68.1867 165.442 68.0252C165.163 67.8637 164.935 67.641 164.759 67.3572L162.789 67.8417C162.985 68.2724 163.254 68.6492 163.597 68.9722C163.94 69.2952 164.342 69.5472 164.803 69.7283C165.263 69.9094 165.783 70 166.361 70ZM166.42 64.8906C166.057 64.8906 165.736 64.8 165.457 64.6189C165.178 64.4379 164.955 64.1932 164.788 63.8848C164.621 63.5765 164.538 63.2266 164.538 62.8351C164.538 62.4435 164.621 62.0936 164.788 61.7853C164.955 61.4769 165.178 61.2322 165.457 61.0512C165.736 60.8701 166.057 60.7795 166.42 60.7795C166.782 60.7795 167.103 60.8701 167.382 61.0512C167.662 61.2322 167.885 61.4769 168.051 61.7853C168.218 62.0936 168.301 62.4435 168.301 62.8351C168.301 63.2266 168.218 63.5765 168.051 63.8848C167.885 64.1932 167.662 64.4379 167.382 64.6189C167.103 64.8 166.782 64.8906 166.42 64.8906ZM175.651 67.1516C176.18 67.1516 176.68 67.066 177.15 66.8947C177.621 66.7234 178.032 66.4811 178.385 66.1679C178.738 65.8547 179.002 65.4778 179.179 65.0374L177.341 64.4501C177.155 64.7633 176.917 65.0031 176.628 65.1695C176.339 65.3359 176.018 65.4191 175.666 65.4191C175.156 65.4191 174.735 65.2552 174.401 64.9273C174.068 64.5994 173.858 64.1467 173.769 63.5692H179.34V63.0553C179.34 62.4386 179.25 61.8807 179.069 61.3815C178.887 60.8823 178.63 60.4516 178.297 60.0895C177.964 59.7273 177.564 59.4484 177.099 59.2526C176.633 59.0568 176.116 58.959 175.548 58.959C174.999 58.959 174.49 59.0617 174.019 59.2673C173.549 59.4728 173.14 59.7591 172.792 60.1262C172.444 60.4932 172.172 60.9264 171.976 61.4256C171.78 61.9248 171.682 62.4631 171.682 63.0406C171.682 63.6377 171.78 64.1883 171.976 64.6923C172.172 65.1964 172.446 65.632 172.799 65.9991C173.152 66.3661 173.571 66.65 174.056 66.8506C174.541 67.0513 175.073 67.1516 175.651 67.1516ZM177.224 62.189H173.799C173.897 61.6801 174.1 61.2787 174.409 60.9851C174.717 60.6915 175.097 60.5446 175.548 60.5446C175.989 60.5446 176.359 60.6915 176.658 60.9851C176.957 61.2787 177.145 61.6801 177.224 62.189ZM182.677 66.9314V62.4827C182.677 62.1597 182.746 61.8709 182.883 61.6164C183.02 61.3619 183.206 61.1637 183.442 61.0218C183.677 60.8799 183.951 60.8089 184.265 60.8089C184.696 60.8089 185.034 60.9631 185.279 61.2714C185.524 61.5797 185.647 62.0031 185.647 62.5414V66.9314H187.704V62.2771C187.704 61.6017 187.587 61.0145 187.352 60.5153C187.116 60.0161 186.786 59.6319 186.359 59.3627C185.933 59.0935 185.436 58.959 184.867 58.959C184.358 58.959 183.905 59.0691 183.508 59.2893C183.111 59.5095 182.8 59.8056 182.574 60.1776L182.516 59.1792H180.619V66.9314H182.677ZM192.952 67.1516C193.521 67.1516 194.05 67.0488 194.54 66.8433C195.03 66.6377 195.449 66.3441 195.797 65.9624C196.144 65.5806 196.382 65.1304 196.509 64.6116L194.554 64.2299C194.417 64.5724 194.207 64.8367 193.922 65.0227C193.638 65.2087 193.32 65.3017 192.967 65.3017C192.614 65.3017 192.3 65.2062 192.026 65.0154C191.752 64.8245 191.539 64.5627 191.387 64.2299C191.235 63.8971 191.159 63.5153 191.159 63.0847C191.159 62.654 191.237 62.2649 191.394 61.9174C191.551 61.5699 191.764 61.2983 192.033 61.1026C192.303 60.9068 192.614 60.8089 192.967 60.8089C193.3 60.8089 193.599 60.9043 193.864 61.0952C194.128 61.2861 194.334 61.5479 194.481 61.8807L196.436 61.499C196.309 60.99 196.081 60.5446 195.752 60.1629C195.424 59.7812 195.025 59.4851 194.554 59.2746C194.084 59.0642 193.57 58.959 193.011 58.959C192.452 58.959 191.933 59.0642 191.453 59.2746C190.973 59.4851 190.554 59.7787 190.196 60.1556C189.838 60.5324 189.559 60.9729 189.358 61.477C189.157 61.981 189.057 62.5267 189.057 63.114C189.057 63.6915 189.155 64.2274 189.351 64.7217C189.547 65.216 189.819 65.6442 190.167 66.0064C190.515 66.3686 190.926 66.65 191.401 66.8506C191.877 67.0513 192.394 67.1516 192.952 67.1516ZM198.847 69.9265C199.493 69.9265 200.045 69.7455 200.5 69.3833C200.956 69.0211 201.331 68.4485 201.625 67.6655L204.815 59.1792H202.639L200.978 64.6703L199.141 59.1792H196.892L200.023 66.858L199.89 67.1957C199.753 67.5285 199.579 67.7707 199.369 67.9224C199.158 68.0741 198.91 68.15 198.626 68.15C198.499 68.15 198.362 68.1329 198.215 68.0986C198.068 68.0644 197.94 68.0228 197.832 67.9738L197.436 69.5889C197.641 69.7063 197.862 69.792 198.097 69.8458C198.332 69.8996 198.582 69.9265 198.847 69.9265Z" fill="#161616"/>
<path d="M86.5519 25.1469C86.5009 28.6959 83.6329 31.5606 80.0797 31.6115H72.5314V18.6823H80.0955C83.6639 18.6911 86.5519 21.5828 86.5519 25.1469ZM80.0955 14.2251H70.2844C69.0854 14.2421 68.1176 15.2088 68.1006 16.4063V48.666C68.1006 49.8881 69.0925 50.8788 70.316 50.8788C71.5396 50.8788 72.5314 49.8881 72.5314 48.666V36.0214L80.0955 35.9265C85.9341 35.7039 90.5523 30.9117 90.5523 25.0758C90.5523 19.2399 85.9341 14.4477 80.0955 14.2251ZM110.732 37.7442C111.003 40.8062 109.521 43.7588 106.902 45.3734C104.283 46.988 100.976 46.988 98.3573 45.3734C95.7385 43.7588 94.2562 40.8062 94.5275 37.7442C94.2562 34.6822 95.7385 31.7295 98.3573 30.1149C100.976 28.5003 104.283 28.5003 106.902 30.1149C109.521 31.7295 111.003 34.6822 110.732 37.7442ZM112.931 24.6409C112.34 24.6323 111.77 24.8653 111.355 25.2861C110.94 25.707 110.714 26.2791 110.732 26.8698V27.8339C108.512 25.8205 105.628 24.695 102.63 24.6728C95.581 24.8624 90.0094 30.7029 90.1599 37.7442C89.9916 44.8004 95.5659 50.6649 102.63 50.863C105.629 50.8453 108.515 49.7192 110.732 47.7019V48.6976C110.661 49.5241 111.063 50.3198 111.77 50.7547C112.477 51.1896 113.369 51.1896 114.077 50.7547C114.784 50.3198 115.185 49.5241 115.115 48.6976V26.8698C115.119 26.29 114.891 25.7327 114.48 25.3227C114.07 24.9128 113.512 24.6843 112.931 24.6886V24.6409ZM140.07 25.1785L139.817 24.9889C139.561 24.8539 139.29 24.7479 139.01 24.6728H138.472C138.352 24.6515 138.228 24.6515 138.108 24.6728H137.918C137.042 24.972 136.448 25.7871 136.431 26.7117V39.8464C136.549 42.2293 135.343 44.4835 133.294 45.7104C131.246 46.9372 128.687 46.9372 126.638 45.7104C124.59 44.4835 123.384 42.2293 123.502 39.8464V26.7749C123.405 25.6378 122.453 24.7641 121.31 24.7641C120.168 24.7641 119.216 25.6378 119.119 26.7749V39.9254C119.089 44.0258 121.387 47.7892 125.051 49.6391C128.714 51.4889 133.111 51.1058 136.399 48.6502C136.128 51.2938 134.575 53.6362 132.244 54.9171C129.913 56.198 127.101 56.2542 124.721 55.0674H124.562C123.488 54.7124 122.319 55.2301 121.86 56.264C121.402 57.2978 121.804 58.5102 122.79 59.0663C124.484 59.8619 126.33 60.2824 128.202 60.2991C131.517 60.3328 134.71 59.0463 137.073 56.724C139.437 54.4017 140.777 51.2347 140.798 47.9231V26.7749C140.793 26.4429 140.706 26.1172 140.545 25.8266C140.431 25.5772 140.264 25.3559 140.055 25.1785H140.07ZM162.146 26.8698C162.15 26.2872 161.919 25.7275 161.505 25.317C161.091 24.9066 160.529 24.68 159.946 24.6883C156.433 24.7531 153.127 26.3606 150.91 29.0826V26.8698C150.813 25.7327 149.861 24.8589 148.718 24.8589C147.576 24.8589 146.624 25.7327 146.527 26.8698V48.666C146.456 49.4925 146.858 50.2882 147.565 50.723C148.272 51.1579 149.164 51.1579 149.872 50.723C150.579 50.2882 150.98 49.4925 150.91 48.666V38.0761V37.9813C151.569 36.0707 152.501 34.2658 153.679 32.6231C155.035 30.4824 157.364 29.1507 159.898 29.0668C161.125 29.0756 162.128 28.0944 162.146 26.8698ZM181.277 37.7442C181.51 40.7862 180.018 43.7022 177.412 45.2944C174.807 46.8867 171.528 46.8867 168.922 45.2944C166.317 43.7022 164.824 40.7862 165.057 37.7442C164.824 34.7022 166.317 31.7862 168.922 30.1939C171.528 28.6017 174.807 28.6017 177.412 30.1939C180.018 31.7862 181.51 34.7022 181.277 37.7442ZM183.524 24.6411C182.923 24.6142 182.338 24.8398 181.911 25.2632C181.485 25.6867 181.255 26.2693 181.277 26.8698V27.8339C179.05 25.8232 176.161 24.6985 173.159 24.6728C166.102 24.871 160.53 30.7257 160.69 37.7758C160.521 44.832 166.096 50.6965 173.159 50.8946C176.163 50.8763 179.054 49.7506 181.277 47.7335V48.7292C181.277 49.9339 182.255 50.9105 183.461 50.9105C184.667 50.9105 185.645 49.9339 185.645 48.7292V26.8698C185.662 26.2927 185.447 25.7328 185.049 25.3143C184.651 24.8959 184.102 24.6535 183.524 24.6411ZM192.465 16.7382C191.248 16.7556 190.273 17.7508 190.281 18.9669V20.1049C190.211 20.9372 190.615 21.7383 191.328 22.1761C192.04 22.614 192.938 22.614 193.65 22.1761C194.362 21.7383 194.767 20.9372 194.696 20.1049V18.9669C194.679 17.7509 193.683 16.7768 192.465 16.7856V16.7382ZM192.465 24.6409C191.875 24.6321 191.307 24.8656 190.894 25.2869C190.481 25.7083 190.26 26.2806 190.281 26.8698V48.666C190.379 49.8116 191.338 50.692 192.489 50.692C193.64 50.692 194.599 49.8116 194.696 48.666V26.8698C194.706 26.2802 194.472 25.7129 194.05 25.3004C193.628 24.888 193.055 24.6668 192.465 24.6886V24.6409ZM201.912 14.2249C200.713 14.2421 199.746 15.2088 199.729 16.4063V48.666C199.729 49.8881 200.721 50.8788 201.944 50.8788C203.168 50.8788 204.159 49.8881 204.159 48.666V16.4379C204.16 15.8455 203.922 15.2778 203.499 14.8619C203.077 14.446 202.505 14.2166 201.912 14.2249Z" fill="#F5BD00"/>
<path d="M33.6505 18.5559C33.7932 19.6577 33.7932 20.7733 33.6505 21.8752C32.7671 29.2568 26.0743 34.5355 18.6805 33.6821C16.8059 33.4595 15.1055 34.797 14.8826 36.6694C14.6598 38.5419 15.9988 40.2402 17.8735 40.4628C23.2352 41.1084 28.6335 39.5936 32.8742 36.2536C37.115 32.9137 39.8488 28.0237 40.4708 22.6654C40.5682 21.8155 40.6105 20.9602 40.5974 20.1049C38.8608 19.0558 36.8668 18.5086 34.8373 18.5243C34.4405 18.527 34.0442 18.5534 33.6505 18.6033" fill="url(#paint0_linear_974_2129)"/>
<path d="M49.8709 15.9007C49.721 15.6566 49.546 15.4288 49.3487 15.221C45.5473 11.399 40.3738 9.25354 34.98 9.26222H34.7743C23.5784 9.31439 14.5276 18.3899 14.519 29.5727C14.5121 29.6622 14.5121 29.752 14.519 29.8414V55.0043C14.519 57.143 12.7832 58.8767 10.642 58.8767C8.50079 58.8767 6.765 57.143 6.765 55.0043V42.0593C6.765 41.9803 6.765 41.8855 6.765 41.8064V20.6266C6.71999 13.1346 12.7008 6.99199 20.2 6.82812H20.5798C20.9912 6.82812 21.4026 6.82812 21.8141 6.82812C23.4817 7.05338 25.092 7.58954 26.5614 8.40871C29.1718 7.37791 31.9516 6.8419 34.7585 6.82812H35.4548L35.2332 6.59103C31.9496 2.95102 27.4474 0.635089 22.5737 0.0790292C21.9881 0 21.3077 0 20.6431 0H20.0892C9.86769 0.118076 1.31743 7.78599 0.102891 17.9238C0.0793743 18.1339 0.0793743 18.346 0.102891 18.5561C0.102891 19.2357 0.00794393 19.9312 0.00794393 20.6266V38.424C-0.000735078 38.5081 -0.000735078 38.5928 0.00794393 38.6769V55.0043C-0.142905 58.9225 1.86387 62.6093 5.23819 64.6131C8.61252 66.617 12.8139 66.617 16.1882 64.6131C19.5625 62.6093 21.5693 58.9225 21.4185 55.0043V29.8888C21.3743 22.3545 27.4216 16.1944 34.9642 16.0903C40.2343 16.1029 45.015 19.1779 47.2071 23.9647C49.3991 28.7516 48.6016 34.375 45.1647 38.3654C41.7277 42.3558 36.28 43.9834 31.2138 42.5335C29.396 42.0228 27.5079 43.0808 26.9966 44.8965C26.4853 46.7122 27.5445 48.5981 29.3624 49.1087C38.0951 51.5876 47.4145 47.9794 52.1931 40.2693C56.9716 32.5592 56.0495 22.6185 49.9342 15.9165" fill="url(#paint1_linear_974_2129)"/>
<defs>
<linearGradient id="paint0_linear_974_2129" x1="44.0753" y1="28.857" x2="21.9216" y2="28.857" gradientUnits="userSpaceOnUse">
<stop stop-color="#F5BD00"/>
<stop offset="1" stop-color="#F5BD00"/>
</linearGradient>
<linearGradient id="paint1_linear_974_2129" x1="28.4182" y1="3.17688" x2="28.4182" y2="50.2304" gradientUnits="userSpaceOnUse">
<stop stop-color="#F5BD00"/>
<stop offset="1" stop-color="#F5BD00"/>
</linearGradient>
</defs>
</svg>
