<svg width="205" height="70" viewBox="0 0 205 70" fill="none" xmlns="http://www.w3.org/2000/svg">
<path fill-rule="evenodd" clip-rule="evenodd" d="M172.069 60.5645C171.887 60.6717 171.689 60.7252 171.473 60.7252C171.257 60.7252 171.058 60.6717 170.876 60.5645C170.695 60.4574 170.553 60.312 170.45 60.1283C170.346 59.9447 170.295 59.7355 170.295 59.5008C170.295 59.2662 170.346 59.057 170.45 58.8733C170.553 58.6897 170.695 58.5443 170.876 58.4371C171.058 58.33 171.257 58.2764 171.473 58.2764C171.689 58.2764 171.887 58.33 172.069 58.4371C172.25 58.5443 172.393 58.6897 172.496 58.8733C172.599 59.057 172.65 59.2662 172.65 59.5008C172.65 59.7355 172.599 59.9447 172.496 60.1283C172.393 60.312 172.25 60.4574 172.069 60.5645ZM151.393 69.3879C150.824 69.643 150.152 69.7705 149.376 69.7705H145.505V58.9041H149.303C150.009 58.9041 150.62 59.0189 151.136 59.2484C151.651 59.478 152.048 59.8045 152.328 60.228C152.608 60.6514 152.747 61.1488 152.747 61.7202C152.747 62.2405 152.639 62.6971 152.424 63.09C152.208 63.4828 151.903 63.7914 151.511 64.0159C152.041 64.2302 152.453 64.5694 152.747 65.0337C153.042 65.4979 153.189 66.0464 153.189 66.679C153.189 67.3116 153.032 67.8574 152.718 68.3166C152.404 68.7757 151.962 69.1328 151.393 69.3879ZM147.625 63.2811H149.068C149.549 63.2811 149.919 63.1766 150.179 62.9674C150.439 62.7582 150.569 62.4496 150.569 62.0414C150.569 61.6333 150.439 61.3221 150.179 61.1078C149.919 60.8936 149.549 60.7864 149.068 60.7864H147.625V63.2811ZM149.274 67.8881H147.625V65.0414H149.274C149.823 65.0414 150.248 65.1638 150.547 65.4087C150.847 65.6536 150.996 66.0056 150.996 66.4647C150.996 66.9239 150.847 67.2759 150.547 67.5208C150.248 67.7656 149.823 67.8881 149.274 67.8881ZM159.468 69.7247C159.031 69.9083 158.543 70.0002 158.003 70.0002C157.297 70.0002 156.681 69.8446 156.156 69.5334C155.631 69.2222 155.224 68.7783 154.934 68.2019C154.645 67.6254 154.5 66.9443 154.5 66.1587V61.6896H156.561V66.2046C156.561 66.7862 156.693 67.2427 156.958 67.5744C157.223 67.906 157.581 68.0718 158.033 68.0718C158.484 68.0718 158.842 67.906 159.107 67.5744C159.372 67.2427 159.505 66.7862 159.505 66.2046V61.6896H161.566V66.1587C161.566 66.7402 161.482 67.2657 161.315 67.7351C161.149 68.2044 160.908 68.6074 160.594 68.9441C160.28 69.2808 159.905 69.541 159.468 69.7247ZM166.011 70.0002C166.472 70.0002 166.894 69.9339 167.277 69.8013C167.66 69.6686 167.993 69.4798 168.278 69.235C168.562 68.9901 168.781 68.7044 168.933 68.3779C169.085 68.0514 169.161 67.6892 169.161 67.2913C169.161 66.6382 168.94 66.1 168.499 65.6766C168.057 65.2532 167.419 64.9649 166.585 64.8119L166.173 64.7353C165.712 64.6537 165.385 64.544 165.194 64.4063C165.003 64.2685 164.907 64.0976 164.907 63.8936C164.907 63.6589 165.005 63.465 165.201 63.312C165.398 63.1589 165.648 63.0824 165.952 63.0824C166.246 63.0824 166.504 63.1691 166.725 63.3426C166.946 63.5161 167.105 63.7558 167.203 64.0619L169.043 63.664C168.935 63.2049 168.739 62.812 168.455 62.4855C168.17 62.159 167.814 61.9065 167.387 61.7279C166.96 61.5494 166.487 61.4601 165.967 61.4601C165.378 61.4601 164.858 61.5723 164.406 61.7968C163.955 62.0213 163.602 62.3299 163.346 62.7228C163.091 63.1156 162.964 63.5671 162.964 64.0772C162.964 64.72 163.182 65.2506 163.619 65.6689C164.056 66.0873 164.696 66.373 165.54 66.526L165.952 66.6025C166.394 66.6842 166.71 66.7989 166.902 66.9469C167.093 67.0948 167.189 67.281 167.189 67.5055C167.189 67.7708 167.081 67.98 166.865 68.133C166.649 68.2861 166.374 68.3626 166.04 68.3626C165.687 68.3626 165.383 68.2708 165.128 68.0871C164.873 67.9034 164.696 67.6535 164.598 67.3372L162.743 67.7504C162.861 68.2095 163.074 68.6075 163.383 68.9442C163.692 69.2809 164.07 69.5411 164.517 69.7247C164.963 69.9084 165.461 70.0002 166.011 70.0002ZM172.502 69.7706V61.6896H170.441V69.7706H172.502ZM176.213 65.1333V69.7706H174.152V61.6897H176.051L176.11 62.7304C176.335 62.3427 176.647 62.034 177.045 61.8045C177.442 61.5749 177.896 61.4601 178.406 61.4601C178.975 61.4601 179.473 61.6004 179.9 61.881C180.327 62.1616 180.658 62.5621 180.894 63.0824C181.129 63.6028 181.247 64.215 181.247 64.919V69.7706H179.186V65.1945C179.186 64.6333 179.064 64.192 178.818 63.8706C178.573 63.5492 178.234 63.3885 177.803 63.3885C177.489 63.3885 177.214 63.4625 176.978 63.6104C176.743 63.7584 176.556 63.965 176.419 64.2303C176.281 64.4956 176.213 64.7966 176.213 65.1333ZM186.576 70.0002C187.106 70.0002 187.606 69.9109 188.077 69.7324C188.549 69.5538 188.961 69.3013 189.314 68.9748C189.667 68.6483 189.932 68.2555 190.109 67.7963L188.269 67.1841C188.082 67.5106 187.844 67.7606 187.555 67.9341C187.265 68.1075 186.944 68.1942 186.591 68.1942C186.08 68.1942 185.658 68.0233 185.325 67.6815C184.991 67.3397 184.78 66.8678 184.692 66.2658H190.271V65.7302C190.271 65.0874 190.18 64.5058 189.999 63.9854C189.817 63.465 189.559 63.0161 189.226 62.6386C188.892 62.2611 188.492 61.9703 188.026 61.7662C187.56 61.5621 187.042 61.4601 186.473 61.4601C185.923 61.4601 185.413 61.5672 184.942 61.7815C184.471 61.9958 184.061 62.2942 183.713 62.6768C183.364 63.0595 183.092 63.511 182.896 64.0313C182.7 64.5517 182.601 65.1129 182.601 65.7149C182.601 66.3372 182.7 66.9112 182.896 67.4366C183.092 67.9621 183.367 68.4162 183.72 68.7988C184.073 69.1814 184.493 69.4773 184.979 69.6865C185.465 69.8956 185.997 70.0002 186.576 70.0002ZM184.721 64.8271H188.151C188.072 64.2965 187.883 63.8782 187.584 63.5721C187.285 63.266 186.914 63.1129 186.473 63.1129C186.021 63.1129 185.641 63.266 185.332 63.5721C185.023 63.8782 184.819 64.2965 184.721 64.8271ZM194.436 70.0002C194.897 70.0002 195.319 69.9339 195.702 69.8013C196.085 69.6686 196.419 69.4798 196.703 69.235C196.988 68.9901 197.206 68.7044 197.358 68.3779C197.51 68.0514 197.586 67.6892 197.586 67.2913C197.586 66.6382 197.366 66.1 196.924 65.6766C196.482 65.2532 195.844 64.9649 195.01 64.8119L194.598 64.7353C194.137 64.6537 193.811 64.544 193.619 64.4063C193.428 64.2685 193.332 64.0976 193.332 63.8936C193.332 63.6589 193.43 63.465 193.627 63.312C193.823 63.1589 194.073 63.0824 194.377 63.0824C194.672 63.0824 194.929 63.1691 195.15 63.3426C195.371 63.5161 195.53 63.7558 195.629 64.0619L197.469 63.664C197.361 63.2049 197.164 62.812 196.88 62.4855C196.595 62.159 196.239 61.9065 195.813 61.7279C195.386 61.5494 194.912 61.4601 194.392 61.4601C193.803 61.4601 193.283 61.5723 192.832 61.7968C192.38 62.0213 192.027 62.3299 191.772 62.7228C191.517 63.1156 191.389 63.5671 191.389 64.0772C191.389 64.72 191.607 65.2506 192.044 65.6689C192.481 66.0873 193.121 66.373 193.965 66.526L194.377 66.6025C194.819 66.6842 195.135 66.7989 195.327 66.9469C195.518 67.0948 195.614 67.281 195.614 67.5055C195.614 67.7708 195.506 67.98 195.29 68.133C195.074 68.2861 194.799 68.3626 194.466 68.3626C194.112 68.3626 193.808 68.2708 193.553 68.0871C193.298 67.9034 193.121 67.6535 193.023 67.3372L191.168 67.7504C191.286 68.2095 191.499 68.6075 191.809 68.9442C192.118 69.2809 192.496 69.5411 192.942 69.7247C193.389 69.9084 193.887 70.0002 194.436 70.0002ZM202.93 69.8013C202.548 69.9339 202.126 70.0002 201.665 70.0002C201.115 70.0002 200.617 69.9084 200.17 69.7247C199.724 69.5411 199.346 69.2809 199.037 68.9442C198.728 68.6075 198.514 68.2095 198.397 67.7504L200.251 67.3372C200.349 67.6535 200.526 67.9034 200.781 68.0871C201.036 68.2708 201.341 68.3626 201.694 68.3626C202.028 68.3626 202.302 68.2861 202.518 68.133C202.734 67.98 202.842 67.7708 202.842 67.5055C202.842 67.281 202.746 67.0948 202.555 66.9469C202.364 66.7989 202.047 66.6842 201.606 66.6025L201.193 66.526C200.349 66.373 199.709 66.0873 199.272 65.6689C198.836 65.2506 198.617 64.72 198.617 64.0772C198.617 63.5671 198.745 63.1156 199 62.7228C199.255 62.3299 199.609 62.0213 200.06 61.7968C200.511 61.5723 201.032 61.4601 201.62 61.4601C202.14 61.4601 202.614 61.5494 203.041 61.7279C203.468 61.9065 203.824 62.159 204.108 62.4855C204.393 62.812 204.589 63.2049 204.697 63.664L202.857 64.0619C202.759 63.7558 202.599 63.5161 202.378 63.3426C202.158 63.1691 201.9 63.0824 201.606 63.0824C201.301 63.0824 201.051 63.1589 200.855 63.312C200.659 63.465 200.56 63.6589 200.56 63.8936C200.56 64.0976 200.656 64.2685 200.848 64.4063C201.039 64.544 201.365 64.6537 201.826 64.7353L202.239 64.8119C203.073 64.9649 203.711 65.2532 204.152 65.6766C204.594 66.1 204.815 66.6382 204.815 67.2913C204.815 67.6892 204.739 68.0514 204.587 68.3779C204.434 68.7044 204.216 68.9901 203.931 69.235C203.647 69.4798 203.313 69.6686 202.93 69.8013Z" fill="#161616"/>
<path fill-rule="evenodd" clip-rule="evenodd" d="M200.015 17.1022C200.032 15.8539 201.002 14.8462 202.202 14.8283C202.796 14.8197 203.369 15.0588 203.792 15.4924C204.215 15.9259 204.453 16.5177 204.453 17.1352V50.7301C204.453 52.0041 203.459 53.0368 202.234 53.0368C201.009 53.0368 200.015 52.0041 200.015 50.7301V17.1022ZM80.2105 14.8288H70.3852C69.1845 14.8465 68.2153 15.8541 68.1982 17.1025V50.7304C68.1982 52.0043 69.1916 53.037 70.4169 53.037C71.6422 53.037 72.6355 52.0043 72.6355 50.7304V37.5494L80.2105 37.4506C86.0574 37.2185 90.6822 32.2231 90.6822 26.1397C90.6822 20.0563 86.0574 15.0608 80.2105 14.8288ZM86.6761 26.2133C86.625 29.9128 83.7528 32.899 80.1946 32.9521H72.6354V19.4746H80.2104C83.7839 19.4837 86.6761 22.498 86.6761 26.2133ZM107.055 47.298C109.678 45.6149 111.162 42.537 110.891 39.3451C111.162 36.1533 109.678 33.0754 107.055 31.3923C104.433 29.7093 101.121 29.7093 98.4983 31.3923C95.8757 33.0754 94.3913 36.1533 94.6629 39.3451C94.3913 42.537 95.8757 45.6149 98.4983 47.298C101.121 48.981 104.433 48.981 107.055 47.298ZM113.094 25.6859C112.502 25.6769 111.931 25.9197 111.515 26.3584C111.099 26.7971 110.874 27.3935 110.891 28.0093V29.0143C108.669 26.9155 105.78 25.7422 102.778 25.7191C95.7188 25.9168 90.1392 32.005 90.2899 39.3449C90.1213 46.7003 95.7037 52.8136 102.778 53.0201C105.781 53.0016 108.671 51.8278 110.891 49.7249V50.7629C110.821 51.6244 111.223 52.4538 111.931 52.9072C112.639 53.3605 113.533 53.3605 114.241 52.9072C114.949 52.4538 115.352 51.6244 115.281 50.7629V28.0093C115.285 27.4049 115.056 26.824 114.645 26.3966C114.234 25.9693 113.675 25.7311 113.094 25.7356V25.6859ZM140.018 26.0486L140.271 26.2463H140.255C140.465 26.4313 140.633 26.6619 140.747 26.9219C140.908 27.2248 140.995 27.5643 141 27.9104V49.9556C140.979 53.4076 139.637 56.7089 137.27 59.1297C134.903 61.5505 131.706 62.8916 128.386 62.8564C126.511 62.839 124.663 62.4006 122.966 61.5713C121.979 60.9917 121.576 59.7279 122.035 58.6502C122.494 57.5725 123.665 57.0328 124.741 57.4028H124.9C127.283 58.64 130.1 58.5814 132.434 57.2462C134.768 55.911 136.324 53.4692 136.595 50.7135C133.302 53.2732 128.899 53.6726 125.23 51.7443C121.561 49.816 119.259 45.8929 119.29 41.6186V27.9104C119.387 26.7251 120.34 25.8143 121.484 25.8143C122.629 25.8143 123.582 26.7251 123.679 27.9104V41.5363C123.561 44.0203 124.768 46.3701 126.82 47.649C128.872 48.9278 131.434 48.9278 133.486 47.649C135.537 46.3701 136.745 44.0203 136.626 41.5363V27.8445C136.643 26.8807 137.239 26.031 138.116 25.7191H138.306C138.427 25.6969 138.55 25.6969 138.671 25.7191H139.21C139.49 25.7975 139.761 25.908 140.018 26.0486ZM162.378 28.0094C162.382 27.4021 162.151 26.8187 161.737 26.3908C161.322 25.963 160.759 25.7268 160.175 25.7354C156.658 25.8029 153.347 27.4786 151.127 30.3161V28.0094C151.03 26.8241 150.076 25.9133 148.932 25.9133C147.787 25.9133 146.834 26.8241 146.737 28.0094V50.7301C146.666 51.5916 147.069 52.421 147.777 52.8743C148.485 53.3277 149.378 53.3277 150.087 52.8743C150.795 52.421 151.197 51.5916 151.127 50.7301V39.691V39.5922C151.786 37.6006 152.72 35.7191 153.9 34.0067C155.257 31.7752 157.589 30.3871 160.128 30.2996C161.356 30.3088 162.361 29.286 162.378 28.0094ZM177.667 47.2156C180.277 45.5558 181.771 42.5161 181.538 39.3451C181.771 36.1742 180.277 33.1344 177.667 31.4747C175.058 29.8149 171.774 29.8149 169.165 31.4747C166.556 33.1344 165.061 36.1742 165.295 39.3451C165.061 42.5161 166.556 45.5558 169.165 47.2156C171.774 48.8754 175.058 48.8754 177.667 47.2156ZM183.788 25.6863C183.186 25.6582 182.6 25.8934 182.173 26.3348C181.745 26.7761 181.515 27.3834 181.538 28.0094V29.0145C179.307 26.9185 176.415 25.7461 173.408 25.7192C166.341 25.9258 160.761 32.0289 160.921 39.378C160.752 46.7335 166.334 52.8467 173.408 53.0532C176.416 53.0341 179.311 51.8606 181.538 49.758V50.796C181.538 52.0517 182.517 53.0697 183.725 53.0697C184.933 53.0697 185.912 52.0517 185.912 50.796V28.0094C185.929 27.4079 185.714 26.8242 185.315 26.388C184.917 25.9518 184.367 25.6992 183.788 25.6863ZM190.555 19.7714C190.546 18.5038 191.523 17.4663 192.742 17.4482V17.4976C193.961 17.4885 194.959 18.5039 194.976 19.7714V20.9576C195.047 21.8252 194.642 22.6603 193.929 23.1168C193.216 23.5732 192.316 23.5732 191.603 23.1168C190.89 22.6603 190.484 21.8252 190.555 20.9576V19.7714ZM192.742 25.6859C192.151 25.6767 191.582 25.9201 191.169 26.3593C190.755 26.7986 190.533 27.3951 190.555 28.0093V50.73C190.652 51.9241 191.613 52.8418 192.766 52.8418C193.918 52.8418 194.879 51.9241 194.976 50.73V28.0093C194.986 27.3947 194.751 26.8033 194.329 26.3734C193.906 25.9435 193.333 25.7129 192.742 25.7356V25.6859Z" fill="#EA6212"/>
<path fill-rule="evenodd" clip-rule="evenodd" d="M49.4197 15.8666C49.6173 16.0831 49.7925 16.3206 49.9426 16.5751L50.006 16.5915C56.1302 23.5777 57.0536 33.9401 52.2682 41.9772C47.4828 50.0143 38.1499 53.7755 29.4046 51.1915C27.5842 50.6592 26.5234 48.6933 27.0354 46.8006C27.5474 44.9079 29.4383 43.8051 31.2587 44.3374C36.3322 45.8488 41.7878 44.1522 45.2297 39.9925C48.6715 35.8329 49.4702 29.971 47.275 24.9811C45.0798 19.9912 40.2921 16.7859 35.0145 16.7728C27.461 16.8812 21.4051 23.3026 21.4493 31.1565V35.1521C27.7011 34.5861 32.9253 29.533 33.699 22.803C33.8399 21.6706 33.8419 20.5243 33.7049 19.3916C34.0972 19.3401 34.4921 19.3128 34.8875 19.31C36.9199 19.2937 38.9168 19.864 40.6559 20.9576C40.669 21.8492 40.6267 22.7408 40.5291 23.6268C39.9062 29.2123 37.1685 34.3096 32.9216 37.7913C29.6127 40.504 25.6 42.0616 21.4493 42.299V57.3372C21.6004 61.4215 19.5907 65.2646 16.2115 67.3535C12.8323 69.4424 8.62491 69.4424 5.24573 67.3535C1.86655 65.2646 -0.14311 61.4215 0.00795536 57.3372V40.3172C-0.000736139 40.2296 -0.000736139 40.1413 0.00795536 40.0536V21.5014C0.00795536 21.1369 0.0320003 20.7723 0.055907 20.4098C0.0795404 20.0515 0.103039 19.6953 0.103039 19.3431C0.0794886 19.1241 0.0794886 18.903 0.103039 18.684C1.31933 8.1162 9.88189 0.123083 20.1181 0H20.6728C21.3384 0 22.0198 0 22.6061 0.082381C27.4869 0.662025 31.9956 3.07618 35.2839 6.87057L35.5058 7.11772H34.8085C31.9976 7.13208 29.2138 7.69082 26.5996 8.76534C25.1281 7.91142 23.5155 7.35252 21.8455 7.11772H20.6094H20.229C12.7191 7.28853 6.72966 13.6917 6.77473 21.5014V43.5795V43.8431V57.3372C6.77473 59.5665 8.51302 61.3738 10.6573 61.3738C12.8016 61.3738 14.5399 59.5665 14.5399 57.3372V31.1071C14.533 31.0138 14.533 30.9202 14.5399 30.827C14.5485 19.1699 23.6124 9.70943 34.8244 9.65505H35.0304C40.4319 9.646 45.6128 11.8825 49.4197 15.8666ZM33.7049 19.3916C33.703 19.3754 33.701 19.3592 33.699 19.343V19.3924C33.701 19.3921 33.703 19.3919 33.7049 19.3916Z" fill="#EA6212"/>
</svg>
