<svg width="53" height="53" viewBox="0 0 53 53" fill="none" xmlns="http://www.w3.org/2000/svg">
<circle cx="26.5" cy="26.5" r="26.5" fill="#FABB0A"/>
<path d="M20.6738 20.6737L23.5869 17.7606M20.6738 20.6737L23.5869 23.5869M20.6738 20.6737H29.4132C30.1858 20.6737 30.9268 20.9807 31.4731 21.527C32.0194 22.0733 32.3263 22.8143 32.3263 23.5869V25.0434M32.3263 32.3262L29.4132 35.2393M32.3263 32.3262L29.4132 29.4131M32.3263 32.3262H23.5869C22.8143 32.3262 22.0734 32.0193 21.5271 31.473C20.9807 30.9267 20.6738 30.1857 20.6738 29.4131V27.9565" stroke="black" stroke-width="2" stroke-linecap="round" stroke-linejoin="round"/>
<path d="M26.5008 41.0657C18.4564 41.0657 11.9352 34.5444 11.9352 26.5001C11.9352 18.4557 18.4564 11.9344 26.5008 11.9344C34.5452 11.9344 41.0664 18.4557 41.0664 26.5001C41.0664 34.5444 34.5452 41.0657 26.5008 41.0657Z" stroke="black" stroke-width="2" stroke-linecap="round" stroke-linejoin="round"/>
</svg>
