<svg width="323" height="42" viewBox="0 0 323 42" fill="none" xmlns="http://www.w3.org/2000/svg">
<path d="M141.255 24.1102H153.102V27.2054H148.96V40.5638H145.48V27.2054H141.255V24.1102ZM114.164 24.1917H124.851V27.124H117.478V30.8708H124.023V33.7217H117.478V37.55H124.851V40.5638H114.164V24.1917ZM126.84 24.1917V40.5638H130.236V30.7894L136.947 40.5638H139.764V24.1917H136.533V33.5588L129.905 24.1917H126.84ZM56.5021 24.1917H59.8988V37.55H66.6923V40.5638H56.4192V24.1917H56.5021ZM43.8264 24.1917H54.5137V27.124H47.1403V30.8708H53.6852V33.7217H47.1403V37.55H54.5137V40.5638H43.8264V24.1917ZM141.255 0.407267H152.937V3.58395H144.901V7.65662H152.025V10.8333H144.901V15.0689H152.937V18.327H141.255V0.407267ZM128.414 0.407267H132.142V15.0689H139.598V18.327H128.414V0.407267ZM112.921 0.407267V18.327H120.626C123.609 18.327 126.508 17.0238 126.508 13.4398C126.508 10.0188 124.437 9.53005 123.526 9.04133C124.768 8.06389 125.68 7.24936 125.68 5.05012C125.68 3.74687 124.934 0.407267 120.129 0.407267H112.921ZM116.567 3.58395H119.632C122.78 3.58395 122.863 7.65662 119.881 7.65662H116.567V3.58395ZM116.567 10.8333H120.378C123.443 10.8333 123.609 15.0689 120.626 15.0689H116.567V10.8333ZM79.2852 0.407267V18.327H83.0133V7.65662L90.3039 18.327H93.3693V0.407267H89.8068V10.6704L82.5162 0.407267H79.2852ZM72.6574 18.327V0.407267H76.3855V18.327H72.6574ZM103.145 5.53882L105.134 11.0777H101.157L103.145 5.53882ZM101.406 0.407267L94.7777 18.327H98.5887L99.9971 14.4173H106.293L107.702 18.327H111.43L104.968 0.407267H101.406ZM60.893 0.407267L54.2652 18.327H58.0762L59.4846 14.4173H65.781L67.1894 18.327H70.9176L64.4554 0.407267H60.893ZM62.6328 5.53882L64.6211 11.0777H60.6445L62.6328 5.53882ZM42.9979 0.407267H55.9221V3.74686H51.3655V18.327H47.5545V3.74686H42.9979V0.407267ZM42.418 2.28069L40.2639 5.13156C40.2639 5.13156 38.2756 3.42105 36.3701 3.42105C35.3759 3.42105 34.2989 3.90976 34.2989 4.80575C34.2989 8.47115 42.6665 6.92355 42.6665 13.1955C42.6665 15.8834 40.9267 18.5714 36.2872 18.5714C32.1449 18.5714 29.7423 15.8834 29.7423 15.8834L32.062 13.1955C32.062 13.1955 34.6303 15.3947 36.7015 15.3947C37.6957 15.3947 38.9384 14.906 39.0212 13.5213C39.1869 10.1817 30.5708 11.7293 30.5708 5.37593C30.5708 2.44361 32.8076 0 36.7015 0C40.0982 0 42.418 2.28069 42.418 2.28069ZM28.0853 24.1917H31.8135L35.2931 35.1064L39.0212 24.1917H42.5008L36.8672 40.5638H33.6361L28.0853 24.1917ZM16.6524 24.1917H27.3397V27.124H19.9663V30.8708H26.5112V33.7217H19.9663V37.55H27.3397V40.5638H16.6524V24.1917ZM1.40842 24.1917V40.5638H7.37343C16.5695 40.5638 18.1436 24.1917 6.62781 24.1917H1.40842ZM4.80515 27.2054H6.04787C13.4213 27.2054 12.0129 37.55 6.9592 37.55H4.80515V27.2054ZM14.664 12.6253V0.407267H18.2265V11.8107C18.2265 16.535 24.9371 16.535 24.9371 11.8107V0.407267H28.5824V12.6253C28.4996 21.015 14.664 21.015 14.664 12.6253ZM12.6757 2.28069L10.5217 5.13156C10.5217 5.13156 8.53331 3.42105 6.62781 3.42105C5.63364 3.42105 4.55662 3.90976 4.55662 4.80575C4.55662 8.47115 12.9242 6.92355 12.9242 13.1955C12.9242 15.8834 11.1844 18.5714 6.54496 18.5714C2.40258 18.5714 0 15.8834 0 15.8834L2.31972 13.1955C2.31972 13.1955 4.888 15.3947 6.9592 15.3947C7.95337 15.3947 9.1961 14.906 9.27894 13.5213C9.44464 10.1817 0.828476 11.7293 0.828476 5.37593C0.828476 2.44361 3.06536 0 6.9592 0C10.4388 0 12.6757 2.28069 12.6757 2.28069ZM83.8418 24.1917V40.5638H87.3214V35.5951H89.5583C97.6773 35.5951 97.0974 24.1917 89.8068 24.1917H83.8418ZM87.3214 27.2054H89.3097C92.7065 27.2054 93.1207 32.5814 89.3097 32.5814H87.3214V27.2054ZM96.8489 40.5638V24.1917H100.494L104.222 30.7894L107.95 24.1917H111.513V40.5638H108.199V30.3007L104.222 37.0613L100.246 30.3007V40.5638H96.8489ZM74.3971 23.8658C69.5091 23.8658 66.7752 27.6127 66.7752 32.6628C66.7752 37.7129 69.6748 40.9711 74.48 40.9711C79.2852 40.8896 81.8534 37.3871 81.9363 32.6628C82.0191 27.9385 79.2852 23.8658 74.3971 23.8658ZM74.3143 27.2054C76.8826 27.2054 78.291 29.649 78.291 32.5814C78.291 35.5137 76.8826 37.55 74.3971 37.6315C71.8289 37.7129 70.3376 35.6766 70.3376 32.5814C70.3376 29.4861 71.746 27.2054 74.3143 27.2054Z" fill="#00AEEF"/>
<path d="M295.252 30.0201L302.353 29.7873C302.353 29.7873 301.946 35.3168 308.931 35.3168C311.783 35.3168 315.159 33.9781 315.159 31.0678C315.159 29.147 314.286 28.3903 312.19 27.5173C309.746 26.4114 308.349 26.1203 306.079 25.2473C304.1 24.4324 300.433 23.7339 298.046 20.8236C296.358 18.7865 295.66 16.5746 295.66 14.7121C295.66 10.4631 298.978 3.24561 308.581 3.24561C321.328 3.24561 321.503 13.3733 321.503 13.3733L314.286 13.6062C314.286 13.6062 314.402 9.5318 308.814 9.5318C304.623 9.5318 302.994 11.569 302.994 13.4898C302.994 15.9926 304.1 16.5164 305.555 17.3313C306.952 18.1462 308.756 18.6118 310.735 19.0775C311.608 19.3103 315.275 20.2998 316.905 21.2311C318.884 22.3952 322.376 24.4324 322.376 30.6021C322.376 34.3855 319.291 41.3701 308.814 41.3701C294.146 41.3701 295.252 30.0201 295.252 30.0201ZM249.852 3.59484L236.349 40.5553H244.206L246.767 32.7557H260.155L262.774 40.5553H270.748L257.535 3.59484H249.852ZM253.461 12.5585L258.234 26.877H248.746L253.461 12.5585ZM272.378 40.5553V4.1769H279.537V33.9781H293.564V40.5553H272.378ZM198.457 14.5957C198.457 14.5957 195.547 3.24561 182.159 3.24561C170.285 3.24561 163.883 12.6749 163.883 22.5698C163.883 34.2109 173.196 41.3701 181.752 41.3701C199.912 41.3701 199.621 21.2311 199.621 20.9983H182.858V27.0516H191.647C191.647 27.0516 190.541 34.9093 182.392 34.9093C174.942 34.9093 171.45 28.3903 171.45 22.3952C171.45 13.9554 176.106 9.76462 181.868 9.76462C189.377 9.76462 190.948 15.1777 190.948 15.1777L198.457 14.5957Z" fill="#4F91CD"/>
<path fill-rule="evenodd" clip-rule="evenodd" d="M236.699 15.6434L229.598 18.8447C230.005 19.776 230.296 20.7072 230.413 21.7549L238.096 20.7654C237.921 18.9611 237.397 17.2731 236.699 15.6434Z" fill="#C31F33"/>
<path fill-rule="evenodd" clip-rule="evenodd" d="M232.915 10.1721L227.443 15.7016C228.142 16.4 228.782 17.2149 229.248 18.088L236.058 14.3629C235.243 12.8495 234.195 11.4526 232.915 10.1721Z" fill="#279B48" fill-opacity="0.9991"/>
<path fill-rule="evenodd" clip-rule="evenodd" d="M227.442 6.50513L224.357 13.6062C225.289 14.0136 226.162 14.5375 226.918 15.1777L231.924 9.24079C230.527 8.13489 229.072 7.20359 227.442 6.50513Z" fill="#D3A029"/>
<path fill-rule="evenodd" clip-rule="evenodd" d="M220.982 4.99182L220.691 12.7332C221.681 12.7914 222.67 12.966 223.66 13.3152L226.221 5.98132C224.475 5.39927 222.729 5.10823 220.982 4.99182Z" fill="#EB1C2D"/>
<path fill-rule="evenodd" clip-rule="evenodd" d="M214.406 5.98128L216.909 13.3152C217.84 12.9659 218.83 12.7913 219.878 12.7913L219.587 5.04999C217.84 5.04999 216.094 5.39922 214.406 5.98128Z" fill="#183668"/>
<path fill-rule="evenodd" clip-rule="evenodd" d="M208.645 9.24079L213.65 15.1777C214.407 14.5375 215.28 14.0136 216.211 13.6062L213.126 6.50513C211.497 7.14539 209.983 8.07668 208.645 9.24079Z" fill="#02558B" fill-opacity="0.9997"/>
<path fill-rule="evenodd" clip-rule="evenodd" d="M204.451 14.3629L211.261 18.088C211.727 17.2149 212.367 16.4 213.066 15.7016L207.652 10.1721C206.372 11.3944 205.266 12.7913 204.451 14.3629Z" fill="#5DBB46" fill-opacity="0.9993"/>
<path fill-rule="evenodd" clip-rule="evenodd" d="M202.355 20.649L210.039 21.6967C210.155 20.7072 210.446 19.7177 210.853 18.8447L203.811 15.6434C203.112 17.2149 202.588 18.9029 202.355 20.649Z" fill="#007DBC"/>
<path fill-rule="evenodd" clip-rule="evenodd" d="M202.706 27.2845L210.273 25.4801C210.04 24.4906 209.924 23.5011 209.982 22.5116L202.24 22.1042C202.124 23.7921 202.299 25.5383 202.706 27.2845Z" fill="#48773E"/>
<path fill-rule="evenodd" clip-rule="evenodd" d="M205.443 33.3378L211.846 28.9141C211.264 28.0993 210.798 27.168 210.507 26.2367L203.115 28.6231C203.639 30.2529 204.454 31.8826 205.443 33.3378Z" fill="#CF8D2A"/>
<path fill-rule="evenodd" clip-rule="evenodd" d="M210.156 37.9943L214.521 31.5917C213.707 31.0096 212.95 30.3694 212.31 29.5545L206.314 34.4438C207.362 35.7825 208.701 37.0048 210.156 37.9943Z" fill="#F99D26"/>
<path fill-rule="evenodd" clip-rule="evenodd" d="M216.208 40.6136L217.954 33.0469C216.964 32.8141 216.033 32.4648 215.16 31.941L211.318 38.6928C212.832 39.5659 214.52 40.2061 216.208 40.6136Z" fill="#E11484" fill-opacity="0.9999"/>
<path fill-rule="evenodd" clip-rule="evenodd" d="M222.846 40.8463L221.74 33.1632C220.75 33.2796 219.761 33.2796 218.772 33.1632L217.607 40.8463C219.354 41.1374 221.1 41.1374 222.846 40.8463Z" fill="#F36D25"/>
<path fill-rule="evenodd" clip-rule="evenodd" d="M229.13 38.7509L225.288 31.9991C224.415 32.4647 223.484 32.8722 222.494 33.105L224.182 40.6717C225.928 40.2061 227.558 39.624 229.13 38.7509Z" fill="#8F1838" fill-opacity="0.9999"/>
<path fill-rule="evenodd" clip-rule="evenodd" d="M234.193 34.4436L228.198 29.4962C227.558 30.2528 226.801 30.9513 225.986 31.5333L230.294 37.9941C231.749 37.0047 233.087 35.8405 234.193 34.4436Z" fill="#FDB713" fill-opacity="0.9899"/>
<path fill-rule="evenodd" clip-rule="evenodd" d="M237.397 28.6813L230.005 26.2367C229.714 27.168 229.248 28.0993 228.666 28.9141L235.01 33.3378C236.058 31.9408 236.815 30.3111 237.397 28.6813Z" fill="#00AED9"/>
<path fill-rule="evenodd" clip-rule="evenodd" d="M238.271 22.1042L230.529 22.5116C230.588 23.5011 230.471 24.4906 230.238 25.4801L237.747 27.3427C238.154 25.5965 238.329 23.8503 238.271 22.1042Z" fill="#EF402B"/>
</svg>
