<svg width="41" height="38" viewBox="0 0 41 38" fill="none" xmlns="http://www.w3.org/2000/svg">
<path d="M37.1712 19C37.6289 19 38.0019 19.3713 37.9819 19.8286C37.803 23.9288 36.3002 27.8695 33.6872 31.0535C30.8986 34.4514 27.018 36.7774 22.7067 37.6349C18.3954 38.4925 13.9202 37.8286 10.0435 35.7565C6.16676 33.6844 3.12847 30.3321 1.44629 26.271C-0.235892 22.2098 -0.457885 17.6911 0.818133 13.4846C2.09415 9.27812 4.78923 5.64423 8.44416 3.20208C12.0991 0.75993 16.4877 -0.339368 20.8623 0.09149C24.9614 0.495218 28.8106 2.21906 31.8364 4.99185C32.1738 5.30111 32.1726 5.82736 31.849 6.15104C31.5253 6.47472 31.0018 6.47306 30.663 6.16521C27.9094 3.6629 24.4172 2.10729 20.6998 1.74116C16.7069 1.34789 12.7012 2.35128 9.36511 4.58037C6.02905 6.80945 3.5691 10.1263 2.40441 13.9658C1.23972 17.8053 1.44234 21.9298 2.97776 25.6366C4.51318 29.3435 7.28639 32.4032 10.8249 34.2946C14.3634 36.1859 18.4482 36.7919 22.3833 36.0091C26.3185 35.2264 29.8605 33.1034 32.4058 30.0019C34.7755 27.1144 36.1449 23.5451 36.3226 19.8286C36.3444 19.3714 36.7134 19 37.1712 19Z" fill="#89163B"/>
<path d="M40.2452 7.41867L23.5117 24.2413C23.0097 24.746 22.3507 25 21.6917 25C21.0327 25 20.3737 24.746 19.8717 24.2413L11.5052 15.83C10.4983 14.8182 10.4983 13.1823 11.5052 12.1705C12.5115 11.1582 14.1383 11.1582 15.1451 12.1705L21.6917 18.7521L36.6052 3.75919C37.6116 2.74694 39.2383 2.74694 40.2452 3.75919C41.2516 4.77098 41.2516 6.40641 40.2452 7.41867Z" fill="#FABB0A"/>
</svg>
