<svg width="18" height="19" viewBox="0 0 18 19" fill="none" xmlns="http://www.w3.org/2000/svg">
<g clip-path="url(#clip0_1154_722)">
<path d="M12.0271 2.43497V2.43164H12.8711L13.1794 2.4949C13.385 2.53597 13.5717 2.5898 13.7394 2.65639C13.9071 2.72298 14.0694 2.80068 14.2263 2.88947C14.3832 2.97825 14.5255 3.06872 14.6532 3.16083C14.7798 3.25185 14.8934 3.34841 14.9941 3.45051C15.0936 3.55373 15.2489 3.58036 15.4599 3.53042C15.6709 3.48048 15.8981 3.4111 16.1416 3.32232C16.385 3.23353 16.6258 3.13364 16.8638 3.02265C17.1019 2.91166 17.2469 2.84119 17.2988 2.81122C17.3497 2.78015 17.3768 2.76351 17.38 2.76127L17.3832 2.75628L17.3995 2.74796L17.4157 2.73963L17.4319 2.73131L17.4482 2.72298L17.4514 2.71799L17.4563 2.71466L17.4612 2.71133L17.4644 2.70634L17.4806 2.70134L17.4968 2.69801L17.4936 2.72298L17.4887 2.74796L17.4806 2.77293L17.4725 2.7979L17.4644 2.81455L17.4563 2.8312L17.4482 2.85617C17.4427 2.87282 17.4373 2.89501 17.4319 2.92276C17.4265 2.95051 17.3751 3.06149 17.2777 3.25573C17.1803 3.44996 17.0586 3.64696 16.9125 3.84674C16.7665 4.04651 16.6355 4.19745 16.5198 4.29957C16.4029 4.40278 16.3255 4.47492 16.2876 4.51599C16.2498 4.55816 16.2038 4.597 16.1497 4.63253L16.0685 4.68747L16.0523 4.69579L16.0361 4.70412L16.0328 4.70911L16.028 4.71244L16.0231 4.71577L16.0198 4.72076L16.0036 4.72909L15.9874 4.73741L15.9841 4.74241L15.9793 4.74574L15.9744 4.74907L15.9711 4.75406L15.9679 4.75905L15.963 4.76238L15.9582 4.76571L15.9549 4.77071H16.0361L16.4905 4.67082C16.7935 4.60423 17.083 4.52377 17.3589 4.42942L17.7971 4.27959L17.8458 4.26294L17.8702 4.25462L17.8864 4.24629L17.9026 4.23797L17.9188 4.22964L17.9351 4.22132L17.9675 4.21632L18 4.21299V4.24629L17.9919 4.24962L17.9838 4.25462L17.9805 4.25961L17.9757 4.26294L17.9708 4.26627L17.9675 4.27126L17.9643 4.27626L17.9594 4.27959L17.9546 4.28292L17.9513 4.28791L17.9481 4.29291L17.9432 4.29624L17.9351 4.31288L17.927 4.32953L17.9221 4.33286C17.9199 4.33619 17.8512 4.43052 17.716 4.61588C17.5807 4.80234 17.5077 4.89667 17.4968 4.8989C17.486 4.90223 17.4709 4.91888 17.4514 4.94884C17.433 4.97991 17.3183 5.10367 17.1073 5.3201C16.8963 5.53652 16.6897 5.72908 16.4873 5.89779C16.2839 6.0676 16.1811 6.27625 16.1789 6.52376C16.1757 6.77015 16.1632 7.04874 16.1416 7.3595C16.1199 7.67027 16.0794 8.006 16.0198 8.36671C15.9603 8.72743 15.8684 9.13531 15.7439 9.59035C15.6195 10.0454 15.468 10.4894 15.2894 10.9222C15.1109 11.3551 14.9243 11.7435 14.7295 12.0876C14.5347 12.4316 14.3562 12.723 14.1939 12.9616C14.0316 13.2002 13.8666 13.425 13.6988 13.6359C13.5311 13.8467 13.319 14.0843 13.0626 14.3484C12.8051 14.6114 12.6644 14.7557 12.6406 14.7813C12.6157 14.8057 12.5097 14.8967 12.3225 15.0543C12.1363 15.213 11.9362 15.3717 11.7219 15.5304C11.5088 15.688 11.3129 15.8195 11.1344 15.925C10.9558 16.0304 10.7405 16.1508 10.4884 16.2862C10.2373 16.4228 9.96573 16.5493 9.67358 16.6658C9.38142 16.7824 9.07304 16.8906 8.74842 16.9905C8.42381 17.0904 8.11001 17.1681 7.80703 17.2235C7.50407 17.279 7.16051 17.3262 6.77637 17.365L6.20018 17.4233V17.4316H5.14518V17.4233L5.00721 17.415C4.91525 17.4094 4.8395 17.4039 4.77998 17.3983C4.72048 17.3928 4.49594 17.3623 4.1064 17.3068C3.71686 17.2513 3.41119 17.1958 3.18936 17.1403C2.96755 17.0848 2.63751 16.9794 2.19928 16.824C1.76105 16.6686 1.38611 16.5115 1.07448 16.3528C0.763937 16.1952 0.569167 16.0953 0.490171 16.0532C0.412263 16.0121 0.324617 15.9611 0.227232 15.9L0.0811542 15.8084L0.0779243 15.8035L0.0730388 15.8001L0.0681695 15.7968L0.0649234 15.7918L0.0486925 15.7835L0.0324617 15.7751L0.0292317 15.7702L0.0243463 15.7668L0.019477 15.7635L0.0162308 15.7585L0.0130009 15.7535L0.00811542 15.7502H0V15.7169L0.0162308 15.7202L0.0324617 15.7252L0.1055 15.7335C0.154193 15.7391 0.28675 15.7474 0.503156 15.7585C0.719578 15.7696 0.949504 15.7696 1.19297 15.7585C1.43643 15.7474 1.68531 15.7224 1.93959 15.6836C2.19387 15.6447 2.49414 15.5782 2.8404 15.4838C3.18667 15.3895 3.50479 15.2774 3.79479 15.1475C4.08369 15.0166 4.28927 14.9189 4.41156 14.8545C4.53274 14.7912 4.71777 14.6736 4.96664 14.5016L5.33995 14.2435L5.34319 14.2385L5.34806 14.2352L5.35295 14.2319L5.35618 14.2269L5.35942 14.2219L5.36429 14.2185L5.36918 14.2152L5.37241 14.2102L5.38864 14.2052L5.40487 14.2019L5.40812 14.1852L5.41298 14.1686L5.41787 14.1653L5.4211 14.1603L5.29125 14.152C5.20469 14.1464 5.12083 14.1408 5.03968 14.1353C4.95852 14.1298 4.83139 14.1048 4.65825 14.0604C4.48513 14.016 4.29848 13.9494 4.09829 13.8606C3.89811 13.7718 3.70334 13.6664 3.51398 13.5443C3.32463 13.4222 3.18774 13.3206 3.10334 13.2396C3.02002 13.1597 2.91181 13.0465 2.77872 12.9C2.64671 12.7524 2.53201 12.6009 2.43463 12.4455C2.33724 12.2901 2.24419 12.1109 2.15547 11.9078L2.02074 11.6048L2.01262 11.5798L2.00451 11.5548L1.99964 11.5382L1.99639 11.5215L2.02074 11.5249L2.04509 11.5299L2.22362 11.5548C2.34266 11.5715 2.52932 11.577 2.78359 11.5715C3.03788 11.5659 3.21371 11.5548 3.31109 11.5382C3.40848 11.5215 3.46799 11.5104 3.48963 11.5049L3.52209 11.4966L3.56267 11.4882L3.60325 11.4799L3.60649 11.4749L3.61136 11.4716L3.61625 11.4683L3.61948 11.4633L3.58702 11.4549L3.55455 11.4466L3.52209 11.4383L3.48963 11.43L3.45717 11.4217C3.43553 11.4161 3.39767 11.405 3.34355 11.3884C3.28946 11.3717 3.14338 11.3107 2.90532 11.2052C2.66728 11.0998 2.47791 10.9971 2.33724 10.8972C2.19622 10.7971 2.06176 10.6875 1.93472 10.5693C1.80812 10.4494 1.66908 10.2951 1.51758 10.1064C1.3661 9.91777 1.23085 9.69857 1.11181 9.44884C0.992792 9.19912 0.903522 8.9605 0.844004 8.73297C0.784724 8.50678 0.745615 8.27553 0.727158 8.04207L0.697926 7.69246L0.714157 7.69579L0.730388 7.70079L0.746619 7.70911L0.762849 7.71743L0.77908 7.72576L0.795311 7.73408L1.04689 7.85062C1.21462 7.92832 1.42291 7.99491 1.67178 8.0504C1.92066 8.10589 2.06943 8.13642 2.11812 8.14196L2.19116 8.15029H2.33724L2.33401 8.14529L2.32913 8.14196L2.32426 8.13863L2.32101 8.13364L2.31778 8.12864L2.31289 8.12531L2.30803 8.12198L2.30478 8.11699L2.28855 8.10867L2.27232 8.10034L2.26909 8.09535L2.2642 8.09202L2.25933 8.08869L2.25609 8.08369L2.23986 8.07537L2.22362 8.06705L2.22039 8.06205C2.21715 8.05982 2.17061 8.02431 2.08079 7.9555C1.99206 7.88558 1.89901 7.79513 1.80162 7.68414C1.70424 7.57314 1.60685 7.45661 1.50947 7.33453C1.4119 7.21217 1.32501 7.08125 1.24977 6.94329C1.17404 6.80457 1.09396 6.62808 1.00956 6.41388C0.926245 6.20079 0.862945 5.98602 0.819657 5.7696C0.776386 5.55317 0.75204 5.33953 0.746619 5.12864C0.741214 4.91776 0.746619 4.73741 0.762849 4.58758C0.77908 4.43775 0.811542 4.26848 0.860234 4.07981C0.908927 3.89114 0.979271 3.69136 1.07124 3.48048L1.2092 3.16416L1.21731 3.13919L1.22543 3.11422L1.23031 3.11089L1.23354 3.10589L1.23679 3.1009L1.24166 3.09757L1.24654 3.1009L1.24977 3.10589L1.25302 3.11089L1.25789 3.11422L1.26278 3.11755L1.26601 3.12254L1.26925 3.12753L1.27412 3.13086L1.28224 3.14751L1.29035 3.16416L1.29524 3.16749L1.29847 3.17248L1.51758 3.42221C1.66366 3.58869 1.8368 3.7746 2.03697 3.97992C2.23716 4.18524 2.34807 4.29179 2.3697 4.29957C2.39135 4.30844 2.41839 4.33396 2.45086 4.37615C2.48332 4.41722 2.59153 4.51544 2.77547 4.67082C2.95943 4.8262 3.20019 5.00656 3.49775 5.21188C3.79532 5.41721 4.12534 5.61977 4.48783 5.81954C4.85033 6.01932 5.23987 6.19967 5.65645 6.36061C6.07304 6.52155 6.3652 6.62698 6.53291 6.67692C6.70064 6.72687 6.98738 6.79068 7.39315 6.86838C7.79892 6.94607 8.10461 6.99602 8.31019 7.01821C8.51579 7.0404 8.65646 7.05317 8.73219 7.0565L8.84581 7.05983L8.84258 7.03486L8.83769 7.00989L8.80523 6.80178C8.78359 6.66306 8.77277 6.46882 8.77277 6.2191C8.77277 5.96938 8.79171 5.73908 8.82958 5.5282C8.86746 5.31732 8.92427 5.10367 9 4.88725C9.07575 4.67082 9.14988 4.49711 9.22236 4.36616C9.29595 4.2363 9.39225 4.08813 9.51127 3.92165C9.63031 3.75517 9.7845 3.58314 9.97385 3.40556C10.1632 3.22797 10.3796 3.06981 10.6231 2.93109C10.8665 2.79236 11.0911 2.68691 11.2967 2.61477C11.5023 2.54263 11.6754 2.49545 11.8161 2.47326C11.9567 2.45107 12.0271 2.4383 12.0271 2.43497Z" fill="#89163B" stroke="#89163B" stroke-width="1.12646"/>
</g>
<defs>
<clipPath id="clip0_1154_722">
<rect width="18" height="18" fill="white" transform="translate(0 0.931641)"/>
</clipPath>
</defs>
</svg>
